<?xml version="1.0" encoding="UTF-8"?>
<svg width="14px" height="14px" viewBox="0 0 14 14" version="1.1" xmlns="http://www.w3.org/2000/svg" xmlns:xlink="http://www.w3.org/1999/xlink">
    <title>Icon/14px/ Traffic Lights / 关闭 /常态 </title>
    <g id="Icon/14px/-Traffic-Lights-/-关闭-/常态-" stroke="none" stroke-width="1" fill="none" fill-rule="evenodd">
        <path d="M7.5,-1 C7.77614237,-1 8,-0.776142375 8,-0.5 L7.999,5.999 L14.5,6 C14.7761424,6 15,6.22385763 15,6.5 L15,7.5 C15,7.77614237 14.7761424,8 14.5,8 L7.999,7.999 L8,14.5 C8,14.7761424 7.77614237,15 7.5,15 L6.5,15 C6.22385763,15 6,14.7761424 6,14.5 L5.999,7.999 L-0.5,8 C-0.776142375,8 -1,7.77614237 -1,7.5 L-1,6.5 C-1,6.22385763 -0.776142375,6 -0.5,6 L5.999,5.999 L6,-0.5 C6,-0.776142375 6.22385763,-1 6.5,-1 L7.5,-1 Z" id="形状结合" fill="currentColor" transform="translate(7.000000, 7.000000) rotate(-315.000000) translate(-7.000000, -7.000000) "></path>
    </g>
</svg>
