<?xml version="1.0" encoding="UTF-8"?>
<svg width="14px" height="14px" viewBox="0 0 14 14" version="1.1" xmlns="http://www.w3.org/2000/svg" xmlns:xlink="http://www.w3.org/1999/xlink">
    <title>Icon/14px/ Traffic Lights / 窗口化 / 常态</title>
    <g id="Icon/14px/-Traffic-Lights-/-窗口化-/-常态" stroke="none" stroke-width="1" fill="none" fill-rule="evenodd">
        <path d="M2.5,12 L11.5,12 C11.7761424,12 12,11.7761424 12,11.5 L12,2.5 C12,2.22385763 11.7761424,2 11.5,2 L2.5,2 C2.22385763,2 2,2.22385763 2,2.5 L2,11.5 C2,11.7761424 2.22385763,12 2.5,12 Z M0.5,0 L13.5,0 C13.7761424,-5.07265313e-17 14,0.223857625 14,0.5 L14,13.5 C14,13.7761424 13.7761424,14 13.5,14 L0.5,14 C0.223857625,14 3.38176876e-17,13.7761424 0,13.5 L0,0.5 C-3.38176876e-17,0.223857625 0.223857625,5.07265313e-17 0.5,0 Z" id="Rectangle" fill="currentColor"></path>
    </g>
</svg>
