<svg width="14" height="11" viewBox="0 0 14 11" stroke="none" stroke-width="1" fill="none" xmlns="http://www.w3.org/2000/svg">
<path d="M10 6C10 7.65685 8.65685 9 7 9C5.34315 9 4 7.65685 4 6C4 4.34315 5.34315 3 7 3C8.65685 3 10 4.34315 10 6ZM9 6C9 4.89543 8.10457 4 7 4C5.89543 4 5 4.89543 5 6C5 7.10457 5.89543 8 7 8C8.10457 8 9 7.10457 9 6Z" />
<path d="M5.05352 0C4.85291 0 4.66557 0.100261 4.55429 0.26718L3.73241 1.5H1.01C0.728336 1.5 0.5 1.72833 0.5 2.01V10.49C0.5 10.7717 0.728332 11 1.01 11H12.99C13.2716 11 13.5 10.7717 13.5 10.49V2.01C13.5 1.72834 13.2717 1.5 12.99 1.5H10.2676L9.44571 0.26718C9.33443 0.100261 9.14709 0 8.94648 0H5.05352ZM5.26759 1H8.73241L9.73241 2.5H12.5V10H1.5V2.5H4.26759L5.26759 1Z" />
</svg>
