<?xml version="1.0" encoding="UTF-8"?>
<svg width="15px" height="15px" viewBox="0 0 9 9" version="1.1" xmlns="http://www.w3.org/2000/svg" xmlns:xlink="http://www.w3.org/1999/xlink">
    <title>编组 12</title>
    <g id="交互文档" stroke="none" stroke-width="1" fill="none" fill-rule="evenodd">
        <g id="信控配置改造第一期V1.0" transform="translate(-735.000000, -4008.000000)" fill="#B9B9B9" fill-rule="nonzero">
            <g id="编组-6" transform="translate(732.000000, 4005.000000)">
                <g id="编组-12" transform="translate(3.750000, 3.750000)">
                    <path d="M3.58052101,6.94962229 L1.29958555,6.94962229 C0.887359383,6.94962229 0.552841913,6.62807809 0.55284192,6.23221819 L0.55284192,1.26704601 C0.55284192,0.871186106 0.887359383,0.549641906 1.29958555,0.549641906 L1.29958555,0.550377708 L6.20115453,0.550377708 C6.61264062,0.550377708 6.94715808,0.872657703 6.94715808,1.26778181 L6.94715808,4.15873639 L7.5,4.15873639 L7.5,1.26778181 C7.5,0.568772687 6.91681468,0 6.20041445,0 L1.29958555,0 C0.583185318,0.000735794746 0,0.568772687 0,1.26778181 L0,6.23295399 C0,6.93122731 0.582445232,7.5 1.29958555,7.5 L3.58052101,7.5 L3.58052101,6.94962229 Z" id="路径"></path>
                    <path d="M3.93784772,2.53853555 C3.81025382,2.45147236 3.72799785,2.51695579 3.75520062,2.68438499 L4.49420895,7.2793865 C4.52141171,7.4468157 4.61273526,7.46988372 4.69758196,7.33073145 C4.69758196,7.33073145 5.16974417,6.55311581 5.55705967,6.078361 L6.34205362,7.42151529 C6.38998229,7.50336957 6.48713501,7.52494933 6.55773265,7.46839546 L6.92756066,7.17446419 C6.99880599,7.11791033 7.01758884,7.0048026 6.96901249,6.92220419 L6.1853139,5.58128229 C6.68208812,5.34464901 7.38353074,5.14522223 7.38353074,5.14522223 C7.52666908,5.10429509 7.53962278,5.00011692 7.41267656,4.91379786 L3.93784772,2.53853555 Z" id="路径"></path>
                </g>
            </g>
        </g>
    </g>
</svg>
