<?xml version="1.0" encoding="UTF-8"?>
<svg width="1em" height="1em" viewBox="0 0 24 26" version="1.1" xmlns="http://www.w3.org/2000/svg" xmlns:xlink="http://www.w3.org/1999/xlink">
    <!-- Generator: Sketch 59.1 (86144) - https://sketch.com -->
    <title>logo 2</title>
    <desc>Created with Sketch.</desc>
    <g id="TAD-SIM-菜单样式" stroke="none" stroke-width="1" fill="none" fill-rule="evenodd">
        <g id="TOP/菜单栏/常态" transform="translate(-15.000000, -7.000000)" fill="currentColor">
            <g id="logo-2" transform="translate(14.838670, 7.000000)">
                <path d="M13,0.577350269 L22.2583302,5.92264973 C22.8771324,6.27991532 23.2583302,6.94016936 23.2583302,7.65470054 L23.2583302,18.3452995 C23.2583302,19.0598306 22.8771324,19.7200847 22.2583302,20.0773503 L13,25.4226497 C12.3811978,25.7799153 11.6188022,25.7799153 11,25.4226497 L1.74166975,20.0773503 C1.1228676,19.7200847 0.741669751,19.0598306 0.741669751,18.3452995 L0.741669751,7.65470054 C0.741669751,6.94016936 1.1228676,6.27991532 1.74166975,5.92264973 L11,0.577350269 C11.6188022,0.220084679 12.3811978,0.220084679 13,0.577350269 Z M12.1613301,3 C11.0567606,3 10.1613301,3.8954305 10.1613301,5 C10.1613301,5.89518478 10.7494572,6.65300512 11.5603963,6.90814599 L11.5603963,6.90814599 L11.5611539,9.04472668 C10.4808079,9.20728503 9.54197181,9.80191977 8.92623981,10.6470366 L6.03550828,8.97938653 C6.14862389,8.37179334 5.87614864,7.73234196 5.31044465,7.40573261 C4.59300572,6.99151905 3.67562011,7.23733178 3.26140655,7.95477072 C2.84719299,8.67220965 3.09300572,9.58959526 3.81044465,10.0038088 C4.37582648,10.3302322 5.06538154,10.2467582 5.53499819,9.84559145 L5.53499819,9.84559145 L8.442788,11.5231858 C8.26117216,11.9800923 8.16133012,12.4783865 8.16133012,13 C8.16133012,13.4514515 8.23611915,13.885435 8.37398329,14.2902367 L6.30444333,15.5336075 C5.67810622,14.9913316 4.75291204,14.8765114 3.99505174,15.3140623 C3.0384665,15.866347 2.71071618,17.0895278 3.26300093,18.0461131 C3.81528568,19.0026983 5.0384665,19.3304486 5.99505174,18.7781639 C6.78803526,18.3203346 7.14888559,17.4014679 6.93450217,16.5556223 L6.93450217,16.5556223 L8.92925636,15.3570982 C9.56406984,16.2260745 10.5408371,16.8293986 11.661571,16.9690832 L11.661571,16.9690832 L11.6616226,20.0852495 C11.0788736,20.2910851 10.6613301,20.8467813 10.6613301,21.5 C10.6613301,22.3284271 11.332903,23 12.1613301,23 C12.9897572,23 13.6613301,22.3284271 13.6613301,21.5 C13.6613301,20.8471533 13.244262,20.2917181 12.6620331,20.0856015 L12.6620331,20.0856015 L12.6620855,16.9689589 C13.692777,16.8402344 14.6016376,16.3193674 15.2346341,15.5603911 L16.8971242,16.5200874 C16.712082,17.3502479 17.074289,18.2390432 17.8498638,18.6868215 C18.8064491,19.2391063 20.0296299,18.911356 20.5819146,17.9547707 C21.1341994,16.9981855 20.8064491,15.7750047 19.8498638,15.2227199 C19.0746111,14.7751275 18.1242559,14.9055503 17.4978278,15.4802738 L17.4978278,15.4802738 L15.856992,14.5331176 C16.0530852,14.0609581 16.1613301,13.54312 16.1613301,13 C16.1613301,12.3373955 16.0002194,11.7124205 15.7150346,11.1621116 L18.1877586,9.73427706 C18.6573919,10.1360347 19.3474107,10.2197899 19.9131147,9.8931805 C20.6305536,9.47896694 20.8763664,8.56158133 20.4621528,7.8441424 C20.0479392,7.12670346 19.1305536,6.88089073 18.4131147,7.29510429 C17.8477329,7.62152764 17.5752459,8.26043681 17.6878582,8.86772016 L17.6878582,8.86772016 L15.1454948,10.3363412 C14.5387435,9.65705551 13.7034983,9.18622077 12.7604972,9.04457496 L12.7604972,9.04457496 L12.7612531,6.90846373 C13.5727143,6.65363477 14.1613301,5.89555669 14.1613301,5 C14.1613301,3.8954305 13.2658996,3 12.1613301,3 Z M4.49505174,16.1800877 C4.93918061,15.9236697 5.4982448,16.0466547 5.7969402,16.4484801 L5.7969402,16.4484801 L5.85171112,16.5318906 L5.86953294,16.5610475 C6.13378409,17.0370644 5.9683804,17.638862 5.49505174,17.9121385 C5.01675912,18.1882808 4.40516871,18.0244057 4.12902634,17.5461131 C3.85288396,17.0678204 4.01675912,16.45623 4.49505174,16.1800877 Z M17.9838384,16.4547707 C18.2599808,15.9764781 18.8715712,15.8126029 19.3498638,16.0887453 C19.8281564,16.3648877 19.9920316,16.9764781 19.7158892,17.4547707 C19.4397468,17.9330633 18.8281564,18.0969385 18.3498638,17.8207961 C17.8715712,17.5446537 17.707696,16.9330633 17.9838384,16.4547707 Z M12.1613301,10.8666667 C13.3395376,10.8666667 14.2946635,11.8217925 14.2946635,13 C14.2946635,14.1782075 13.3395376,15.1333333 12.1613301,15.1333333 C10.9831227,15.1333333 10.0279968,14.1782075 10.0279968,13 C10.0279968,11.8217925 10.9831227,10.8666667 12.1613301,10.8666667 Z M12.1613301,4 C12.7136149,4 13.1613301,4.44771525 13.1613301,5 C13.1613301,5.55228475 12.7136149,6 12.1613301,6 C11.6090454,6 11.1613301,5.55228475 11.1613301,5 C11.1613301,4.44771525 11.6090454,4 12.1613301,4 Z" id="形状结合"></path>
            </g>
        </g>
    </g>
</svg>
