<?xml version="1.0" encoding="UTF-8"?>
<svg width="20px" height="12px" viewBox="0 0 20 12" version="1.1" xmlns="http://www.w3.org/2000/svg"
     xmlns:xlink="http://www.w3.org/1999/xlink">
    <title>icon/Tool/24px/视角/司机视角/常态备份 3</title>
    <g id="TAD-SIM-工具栏" stroke="none" stroke-width="1" fill="none" fill-rule="evenodd">
        <g id="模块/工具栏/播放-切换视角" transform="translate(-548.000000, -155.000000)" fill="currentColor">
            <g id="编组-2" transform="translate(536.000000, 61.000000)">
                <g id="合并形状" transform="translate(10.000000, 88.000000)">
                    <path d="M16.5,6 C16.7761424,6 17,6.22385763 17,6.5 L17,10.069 L21.1717305,6.43966493 C21.2399915,6.38025021 21.32264,6.3408522 21.4106023,6.32486661 L21.5,6.31681094 C21.7454599,6.31681094 21.9496084,6.4936861 21.9919443,6.72693531 L22,6.81681094 L22,17.1831456 C22,17.303808 21.9563656,17.4204003 21.877146,17.5114151 C21.715992,17.6965635 21.448545,17.7344256 21.2448118,17.6132221 L21.1717305,17.5602916 L17,13.93 L17,17.5 C17,17.7761424 16.7761424,18 16.5,18 L2.5,18 C2.22385763,18 2,17.7761424 2,17.5 L2,6.5 C2,6.22385763 2.22385763,6 2.5,6 L16.5,6 Z M10.3994141,8.84179688 L6.72265625,8.84179688 L6.72265625,16 L8.94433594,16 L8.94433594,13.34375 L10.1552734,13.34375 C11.047205,13.34375 11.710447,13.1403015 12.1450195,12.7333984 C12.579592,12.3264954 12.796875,11.7617224 12.796875,11.0390625 C12.796875,10.335934 12.5974955,9.79394722 12.1987305,9.41308594 C11.7999655,9.03222466 11.2001993,8.84179688 10.3994141,8.84179688 L10.3994141,8.84179688 Z M9.57421875,10.296875 C9.98763228,10.296875 10.269205,10.3749992 10.4189453,10.53125 C10.5686856,10.6875008 10.6435547,10.8779286 10.6435547,11.1025391 C10.6435547,11.33366 10.5572925,11.523274 10.3847656,11.6713867 C10.2122387,11.8194994 9.91276255,11.8935547 9.48632812,11.8935547 L9.48632812,11.8935547 L8.94433594,11.8935547 L8.94433594,10.296875 Z"></path>
                </g>
            </g>
        </g>
    </g>
</svg>
