<?xml version="1.0" encoding="UTF-8"?>
<svg width="24px" height="24px" viewBox="0 0 24 24" version="1.1" xmlns="http://www.w3.org/2000/svg" xmlns:xlink="http://www.w3.org/1999/xlink">
    <!-- Generator: Sketch 59.1 (86144) - https://sketch.com -->
    <title>icon/24px/播放控键/下一帧/常态</title>
    <desc>Created with Sketch.</desc>
    <g id="icon/24px/播放控键/下一帧/常态" stroke="none" stroke-width="1" fill="none" fill-rule="evenodd">
        <path d="M20.5171573,4 C20.6276142,4 20.7171573,4.08954305 20.7171573,4.2 C20.7171573,4.2530433 20.6960859,4.30391408 20.6585786,4.34142136 L18,6.999 L18,19.5 C18,19.7761424 17.7761424,20 17.5,20 L16.5,20 C16.2238576,20 16,19.7761424 16,19.5 L16,6.999 L13.3414214,4.34142136 C13.2633165,4.2633165 13.2633165,4.1366835 13.3414214,4.05857864 C13.3789286,4.02107137 13.4297994,4 13.4828427,4 L20.5171573,4 Z M4.5,4.18028068 C4.63607664,4.18028068 4.76627532,4.23574238 4.86055268,4.33386797 L11.8932107,11.653587 C12.0791406,11.8471062 12.0791405,12.1528937 11.8932105,12.3464127 L4.8605524,19.6661201 C4.66923379,19.8652477 4.3527146,19.8715782 4.153587,19.6802595 C4.05546158,19.5859822 4,19.4557836 4,19.3197071 L4,4.68028068 C4,4.40413831 4.22385763,4.18028068 4.5,4.18028068 Z" id="合并形状" fill="currentColor"></path>
    </g>
</svg>
