<?xml version="1.0" encoding="UTF-8"?>
<svg width="24px" height="24px" viewBox="0 0 24 24" version="1.1" xmlns="http://www.w3.org/2000/svg" xmlns:xlink="http://www.w3.org/1999/xlink">
    <!-- Generator: Sketch 59.1 (86144) - https://sketch.com -->
    <title>icon/24px/播放控键/下一个/常态</title>
    <desc>Created with Sketch.</desc>
    <g id="icon/24px/播放控键/下一个/常态" stroke="none" stroke-width="1" fill="none" fill-rule="evenodd">
        <path d="M19.5,4 C19.7761424,4 20,4.22385763 20,4.5 L20,19.5 C20,19.7761424 19.7761424,20 19.5,20 L18.5,20 C18.2238576,20 18,19.7761424 18,19.5 L18,4.5 C18,4.22385763 18.2238576,4 18.5,4 L19.5,4 Z M4.5,4.00515327 C4.61689942,4.00515327 4.73010367,4.04611321 4.81993827,4.1209144 L13.821085,11.6157608 C14.0332943,11.7924579 14.0620826,12.1077287 13.8853856,12.319938 C13.8659496,12.3432802 13.844427,12.3648028 13.8210847,12.3842388 L4.81993797,19.8790733 C4.60772856,20.0557702 4.29245774,20.0269816 4.11576088,19.8147722 C4.04095985,19.7249376 4,19.6117335 4,19.4948342 L4,4.50515327 C4,4.22901089 4.22385763,4.00515327 4.5,4.00515327 Z" id="合并形状" fill="currentColor"></path>
    </g>
</svg>
