<?xml version="1.0" encoding="UTF-8"?>
<svg width="24px" height="24px" viewBox="0 0 24 24" version="1.1" xmlns="http://www.w3.org/2000/svg" xmlns:xlink="http://www.w3.org/1999/xlink">
    <!-- Generator: Sketch 59.1 (86144) - https://sketch.com -->
    <title>icon/24px/播放控键/暂停/常态</title>
    <desc>Created with Sketch.</desc>
    <g id="icon/24px/播放控键/暂停/常态" stroke="none" stroke-width="1" fill="none" fill-rule="evenodd">
        <path d="M9.5,4 C9.77614237,4 10,4.22385763 10,4.5 L10,19.5 C10,19.7761424 9.77614237,20 9.5,20 L6.5,20 C6.22385763,20 6,19.7761424 6,19.5 L6,4.5 C6,4.22385763 6.22385763,4 6.5,4 L9.5,4 Z M17.5,4 C17.7761424,4 18,4.22385763 18,4.5 L18,19.5 C18,19.7761424 17.7761424,20 17.5,20 L14.5,20 C14.2238576,20 14,19.7761424 14,19.5 L14,4.5 C14,4.22385763 14.2238576,4 14.5,4 L17.5,4 Z" id="合并形状" fill="currentColor"></path>
    </g>
</svg>
