<?xml version="1.0" encoding="UTF-8"?>
<svg width="16px" height="19px" viewBox="0 0 16 19" version="1.1" xmlns="http://www.w3.org/2000/svg" xmlns:xlink="http://www.w3.org/1999/xlink">
    <title>循环</title>
    <g id="二期-场景播放" stroke="none" stroke-width="1" fill="none" fill-rule="evenodd">
        <g id="播放进度-播放-列表循环播放" transform="translate(-1285.000000, -7.000000)" fill="#B9B9B9">
            <g id="icon/24px/播放控键/循环播放/常态" transform="translate(1281.000000, 5.000000)">
                <g id="ziyuanldpi" transform="translate(4.000000, 2.000000)">
                    <path d="M0.999637731,7.99420883 C1.26475814,7.99420884 1.51901992,7.88898208 1.70648836,7.70167726 C1.8939568,7.51437244 1.99927548,7.26033258 1.99927548,6.99544356 L1.99927548,5.99667826 C1.99927548,5.44507543 2.44682853,4.99791299 2.99891321,4.99791299 L12.5854391,4.99791299 L11.28591,6.2863202 C11.096666,6.47385496 10.9902189,6.72913523 10.9902189,6.99544355 C10.9902189,7.26175186 11.096666,7.51703214 11.28591,7.7045669 C11.4736086,7.8936458 11.7291119,8 11.9956528,8 C12.2621938,8 12.517697,7.8936458 12.7053956,7.7045669 L15.7043088,4.70827106 C15.8935529,4.5207363 16,4.26545602 16,3.9991477 C16,3.73283939 15.8935529,3.47755911 15.7043088,3.29002435 L12.7053956,0.293728509 C12.3134155,-0.0979095031 11.6778902,-0.0979095031 11.28591,0.293728509 C10.8939299,0.685366522 10.8939299,1.3203372 11.28591,1.71197521 L12.5854391,3.00038242 L2.99891321,3.00038242 C1.34265918,3.00038242 0,4.34186976 0,5.99667826 L0,6.99544356 C0,7.54704639 0.447553057,7.99420883 0.999637731,7.99420883 Z" id="路径" fill-rule="nonzero"></path>
                    <path d="M15.0003623,11 C14.7352419,11 14.4809801,11.1050596 14.2935117,11.2920669 C14.1060432,11.4790742 14.0007245,11.7327105 14.0007245,11.9971788 L14.0007245,12.9943576 C14.0007245,13.2588259 13.8954059,13.5124622 13.7079374,13.6994695 C13.520469,13.8864768 13.2662072,13.9915364 13.0010868,13.9915364 L3.41456091,13.9915364 L4.71408997,12.7151475 C5.1016731,12.3262105 5.1016731,11.6980625 4.71408997,11.3091254 C4.52639139,11.1203469 4.27088812,11.0141616 4.00434717,11.0141616 C3.73780623,11.0141616 3.48230296,11.1203469 3.29460438,11.3091254 L0.295691171,14.3006618 C0.106447099,14.4878987 0,14.7427735 0,15.0086588 C0,15.2745441 0.106447099,15.5294189 0.295691171,15.7166558 L3.29460438,18.7081922 C3.68934493,19.0992081 4.32710804,19.0969758 4.71908816,18.7032063 C5.11106828,18.3094367 5.10883051,17.6732424 4.71408997,17.2822265 L3.41456091,15.985894 L13.0010868,15.985894 C14.6573408,15.985894 16,14.6465376 16,12.9943576 L16,11.9971788 C16,11.7327105 15.8946813,11.4790742 15.7072129,11.2920669 C15.5197444,11.1050596 15.2654827,11 15.0003623,11 Z" id="路径" fill-rule="nonzero"></path>
                </g>
            </g>
        </g>
    </g>
</svg>