<?xml version="1.0" encoding="UTF-8"?>
<svg width="24px" height="24px" viewBox="0 0 24 24" version="1.1" xmlns="http://www.w3.org/2000/svg" xmlns:xlink="http://www.w3.org/1999/xlink">
    <title>icon/24px/播放控键/单次播放/常态</title>
    <g id="icon/24px/播放控键/单次播放/常态" stroke="none" stroke-width="1" fill="none" fill-rule="evenodd">
        <path d="M8.56640625,12.5 L10.6464466,14.5800404 C10.8417088,14.7753025 10.8417088,15.091885 10.6464466,15.2871471 L10.2871471,15.6464466 C10.091885,15.8417088 9.77530251,15.8417088 9.58004036,15.6464466 L7.5,13.5664062 L7.5,13.5664062 L5.41995964,15.6464466 C5.22469749,15.8417088 4.90811501,15.8417088 4.71285286,15.6464466 L4.35355339,15.2871471 C4.15829124,15.091885 4.15829124,14.7753025 4.35355339,14.5800404 L6.43359375,12.5 L6.43359375,12.5 L4.35355339,10.4199596 C4.15829124,10.2246975 4.15829124,9.90811501 4.35355339,9.71285286 L4.71285286,9.35355339 C4.90811501,9.15829124 5.22469749,9.15829124 5.41995964,9.35355339 L7.5,11.4335938 L7.5,11.4335938 L9.58004036,9.35355339 C9.77530251,9.15829124 10.091885,9.15829124 10.2871471,9.35355339 L10.6464466,9.71285286 C10.8417088,9.90811501 10.8417088,10.2246975 10.6464466,10.4199596 L8.56640625,12.5 L8.56640625,12.5 Z" id="路径" fill="#B9B9B9" fill-rule="nonzero"></path>
        <path d="M19.28,19 L19.28,4.72 L17.64,4.72 C17.16,5.24 16.56,5.7 15.84,6.14 C15.12,6.54 14.46,6.82 13.82,6.98 L13.82,9.14 C15.14,8.76 16.24,8.16 17.1,7.34 L17.1,19 L19.28,19 Z" id="1" fill="#B9B9B9" fill-rule="nonzero"></path>
    </g>
</svg>