<?xml version="1.0" encoding="UTF-8"?>
<svg width="24px" height="24px" viewBox="0 0 24 24" version="1.1" xmlns="http://www.w3.org/2000/svg" xmlns:xlink="http://www.w3.org/1999/xlink">
    <!-- Generator: Sketch 59.1 (86144) - https://sketch.com -->
    <title>icon/24px/图表/A/常态</title>
    <desc>Created with Sketch.</desc>
    <g id="icon/24px/图表/A/常态" stroke="none" stroke-width="1" fill="none" fill-rule="evenodd">
        <path d="M21.8,5 C21.9104569,5 22,5.08954305 22,5.2 L22,19.8 C22,19.9104569 21.9104569,20 21.8,20 L19.2,20 C19.0895431,20 19,19.9104569 19,19.8 L19,5.2 C19,5.08954305 19.0895431,5 19.2,5 L21.8,5 Z M16.8,11 C16.9104569,11 17,11.0895431 17,11.2 L17,19.8 C17,19.9104569 16.9104569,20 16.8,20 L14.2,20 C14.0895431,20 14,19.9104569 14,19.8 L14,11.2 C14,11.0895431 14.0895431,11 14.2,11 L16.8,11 Z M8.66666667,10 L12,20 L9.5,20 L8.943,18.333 L5.056,18.333 L4.5,20 L2,20 L5.33333333,10 L8.66666667,10 Z M11.8,8 C11.9104569,8 12,8.08954305 12,8.2 L11.9997373,16.6 L9.13720749,8.01005586 C9.15695531,8.0035311 9.17806529,8 9.2,8 L11.8,8 Z M7,12.501 L5.889,15.833 L8.11,15.833 L7,12.501 Z" id="合并形状" fill="currentColor"></path>
    </g>
</svg>
