<?xml version="1.0" encoding="UTF-8"?>
<svg width="24px" height="24px" viewBox="0 0 24 24" version="1.1" xmlns="http://www.w3.org/2000/svg" xmlns:xlink="http://www.w3.org/1999/xlink">
    <!-- Generator: Sketch 59.1 (86144) - https://sketch.com -->
    <title>icon/24px/图表/C/常态</title>
    <desc>Created with Sketch.</desc>
    <g id="icon/24px/图表/C/常态" stroke="none" stroke-width="1" fill="none" fill-rule="evenodd">
        <path d="M12.0017414,16.0363423 L12,19.8 C12,19.9104569 11.9104569,20 11.8,20 L9.33013353,20.0017627 C10.0200842,19.7430724 10.5956547,19.3239224 11.0413954,18.7470246 C11.5597147,18.08724 11.8777691,17.0912226 12.0017414,16.0363423 Z M21.8,5 C21.9104569,5 22,5.08954305 22,5.2 L22,19.8 C22,19.9104569 21.9104569,20 21.8,20 L19.2,20 C19.0895431,20 19,19.9104569 19,19.8 L19,5.2 C19,5.08954305 19.0895431,5 19.2,5 L21.8,5 Z M16.8,11 C16.9104569,11 17,11.0895431 17,11.2 L17,19.8 C17,19.9104569 16.9104569,20 16.8,20 L14.2,20 C14.0895431,20 14,19.9104569 14,19.8 L14,11.2 C14,11.0895431 14.0895431,11 14.2,11 L16.8,11 Z M6.64010467,10 C7.77982424,10 8.74021823,10.3021232 9.48456493,10.9048686 C10.2052046,11.4833121 10.6439043,12.2855106 10.7967588,13.2798045 L10.8583877,13.680691 L8.73980102,13.680691 L8.6724573,13.4185648 C8.54102065,12.9069656 8.31106355,12.5551832 7.96816683,12.3279611 C7.63596239,12.1009877 7.19209188,11.9880189 6.61487148,11.9880189 C5.76988246,11.9880189 5.17272488,12.2570506 4.76157326,12.8160775 C4.37419511,13.3220439 4.17706422,14.0488898 4.17706422,15.0125383 C4.17706422,15.9976811 4.37309521,16.7396955 4.74761843,17.2323391 C5.14605575,17.7460234 5.7768701,18.0119811 6.65272127,18.0119811 C7.21478692,18.0119811 7.67379275,17.8754069 8.01185064,17.6236031 C8.37467154,17.3372684 8.63952663,16.890357 8.798946,16.2792692 L8.86700379,16.0183895 L11,16.0183895 L10.9207549,16.4318446 C10.7033965,17.5658957 10.193007,18.454386 9.38235574,19.096151 C8.62472935,19.6984912 7.71455524,20 6.66533787,20 C5.06819175,20 3.83927051,19.4839596 3.03524115,18.4644761 C2.34042381,17.5979588 2,16.4456901 2,15.0125383 C2,13.6004765 2.355584,12.4360133 3.07210152,11.5493019 C3.89562984,10.5126388 5.09237788,10 6.64010467,10 Z M11.8,8 C11.9104569,8 12,8.08954305 12,8.2 L12.0016608,14.0037526 C11.8745374,12.9260325 11.5442187,11.8706815 11.0098294,11.1956886 C10.4872662,10.5242656 9.81285523,10.0666637 9.00041532,9.82313999 L9,8.2 C9,8.08954305 9.08954305,8 9.2,8 L11.8,8 Z" id="合并形状" fill="currentColor"></path>
    </g>
</svg>
