<?xml version="1.0" encoding="UTF-8"?>
<svg width="22px" height="22px" viewBox="0 0 22 22" version="1.1" xmlns="http://www.w3.org/2000/svg" xmlns:xlink="http://www.w3.org/1999/xlink">
    <title>icon/仪表盘22*22</title>
    <defs>
        <path d="M2.00074012,16.1883776 C0.501772612,14.1678139 -0.270047322,11.5598844 0.0859032558,8.76633053 C0.662720436,4.22714758 4.3243738,0.580757847 8.80720006,0.0685572687 C14.828934,-0.619837555 19.929699,4.14139937 19.929699,10.11144 C19.9348587,12.3000733 19.2331857,14.4318776 17.9290854,16.189565 C17.7577594,16.4152262 17.4899376,16.5467386 17.2066184,16.5443608 L2.7255646,16.5443608 C2.44133972,16.5466512 2.17268265,16.4147241 2.00074012,16.1883948 L2.00074012,16.1883776 Z M16.7437708,14.7058439 C18.7041212,11.7230561 18.5540434,7.82455872 16.3701819,5.00130782 C15.1969413,3.45789207 13.5034952,2.39264691 11.6042644,2.00335559 C6.39312035,0.967218475 1.81162256,5.0071758 1.81162256,10.1114228 C1.81162256,11.7455087 2.28973379,13.3431477 3.18605469,14.7058439 L16.7425835,14.7058439 L16.7437708,14.7058439 Z M9.96432768,0.92141038 C10.5681444,0.92141038 10.8700442,1.22566768 10.8700442,1.83418227 L10.8700442,3.68440253 C10.8700442,4.29291713 10.5681444,4.59717442 9.96549783,4.59717442 L9.96432768,4.59717442 C9.3604937,4.59717442 9.05859392,4.29174697 9.05859392,3.68440253 L9.05859392,1.83418227 C9.05859392,1.22566768 9.36051091,0.92141038 9.96432768,0.92141038 L9.96432768,0.92141038 Z M13.8080777,6.21245182 C13.453587,5.85144669 13.453587,5.27301985 13.8080777,4.91201473 L15.0885361,3.61157764 C15.2572867,3.43980212 15.4879847,3.34304124 15.7287825,3.34304124 C15.9695804,3.34304124 16.2002783,3.43980212 16.3690289,3.61157764 C16.7235084,3.97258068 16.7235084,4.55099449 16.3690289,4.91199752 L15.0885533,6.21245182 C14.919646,6.38392257 14.6890146,6.48047228 14.4483241,6.48047228 C14.2076336,6.48047228 13.9770022,6.38392257 13.8080949,6.21245182 L13.8080777,6.21245182 Z M19.0227666,10.1090653 L19.0227666,10.1137803 C19.0227666,10.7246352 18.7196794,11.0300798 18.1146925,11.0300798 L16.30794,11.0300798 C15.7017657,11.0300798 15.3998659,10.7246352 15.3998659,10.1137803 L15.3998659,10.1090825 C15.3998659,9.49821035 15.7017657,9.1927829 16.30794,9.1927829 L18.1146925,9.1927829 C18.7196794,9.1927829 19.0227666,9.49821035 19.0227666,10.1090825 L19.0227666,10.1090653 Z M6.12056047,6.21245182 C5.95165316,6.38392257 5.72102172,6.48047228 5.48033126,6.48047228 C5.23964079,6.48047228 5.00900936,6.38392257 4.84010204,6.21245182 L3.55962641,4.91201473 C3.20513569,4.55100961 3.20513569,3.97258277 3.55962641,3.61157764 C3.72837575,3.43981281 3.9590663,3.34305876 4.19985562,3.34305876 C4.44064494,3.34305876 4.6713355,3.43981281 4.84008484,3.61157764 L6.12056047,4.91199752 C6.47506246,5.27300474 6.47506246,5.8514446 6.12056047,6.21245182 L6.12056047,6.21245182 Z M0.905854385,10.1137803 L0.905854385,10.1090825 C0.905854385,9.49821035 1.20895873,9.1927829 1.81513302,9.1927829 L3.62071534,9.1927829 C4.22687242,9.1927829 4.52995956,9.49821035 4.52995956,10.1090825 L4.52995956,10.1149504 C4.52995956,10.7258225 4.22687242,11.03125 3.62071534,11.03125 L1.81511581,11.03125 C1.20894153,11.03125 0.905854385,10.7258053 0.905854385,10.1149504 L0.905854385,10.1137803 Z" id="path-1"></path>
        <filter x="-10.0%" y="-6.0%" width="120.1%" height="124.2%" filterUnits="objectBoundingBox" id="filter-2">
            <feOffset dx="0" dy="1" in="SourceAlpha" result="shadowOffsetOuter1"></feOffset>
            <feGaussianBlur stdDeviation="0.5" in="shadowOffsetOuter1" result="shadowBlurOuter1"></feGaussianBlur>
            <feColorMatrix values="0 0 0 0 0   0 0 0 0 0   0 0 0 0 0  0 0 0 0.5 0" type="matrix" in="shadowBlurOuter1"></feColorMatrix>
        </filter>
        <path d="M7.24712641,6.25474945 L8.42776036,11.0406456 C8.52761925,11.4435917 8.80837022,11.7748658 9.18780992,11.9369838 C9.56607947,12.0990845 9.99838261,12.0708976 10.3543504,11.8629715 L10.4953023,11.7807338 C10.8496129,11.5715302 11.0866383,11.2096067 11.1367958,10.8012118 C11.1869533,10.392817 11.0445512,9.98429369 10.751394,9.69557062 L7.24712641,6.25474945 L7.24712641,6.25474945 Z" id="path-3"></path>
        <filter x="-51.3%" y="-17.3%" width="202.6%" height="169.1%" filterUnits="objectBoundingBox" id="filter-4">
            <feOffset dx="0" dy="1" in="SourceAlpha" result="shadowOffsetOuter1"></feOffset>
            <feGaussianBlur stdDeviation="0.5" in="shadowOffsetOuter1" result="shadowBlurOuter1"></feGaussianBlur>
            <feColorMatrix values="0 0 0 0 0   0 0 0 0 0   0 0 0 0 0  0 0 0 0.5 0" type="matrix" in="shadowBlurOuter1"></feColorMatrix>
        </filter>
    </defs>
    <g id="icon/仪表盘22*22" stroke="none" stroke-width="1" fill="none" fill-rule="evenodd">
        <g id="仪表盘" transform="translate(1.000000, 3.000000)" fill-rule="nonzero">
            <g id="形状">
                <use fill="black" fill-opacity="1" filter="url(#filter-2)" xlink:href="#path-1"></use>
                <use fill="currentColor" xlink:href="#path-1"></use>
            </g>
            <g id="路径">
                <use fill="black" fill-opacity="1" filter="url(#filter-4)" xlink:href="#path-3"></use>
                <use fill="currentColor" xlink:href="#path-3"></use>
            </g>
        </g>
    </g>
</svg>
