<?xml version="1.0" encoding="UTF-8"?>
<svg width="16px" height="6px" viewBox="0 0 16 6" version="1.1" xmlns="http://www.w3.org/2000/svg" xmlns:xlink="http://www.w3.org/1999/xlink">
    <title>不可见</title>
    <g id="标注" stroke="none" stroke-width="1" fill="none" fill-rule="evenodd">
        <g id="回放-视图元素" transform="translate(-207.000000, -339.000000)" fill="#A3C0D5" fill-rule="nonzero">
            <g id="编组-4" transform="translate(38.000000, 152.000000)">
                <g id="不可见" transform="translate(169.000000, 187.000000)">
                    <path d="M13.8606715,1.84235011 L14.7715587,3.64570744 C14.8752541,3.83968651 14.8657463,4.07461444 14.7467148,4.25957957 C14.6276833,4.44454469 14.4178038,4.5505264 14.1982948,4.53651222 C13.9787858,4.52249805 13.7840878,4.39068678 13.6895444,4.19208633 L12.7755875,2.38105515 C12.2322782,2.62508393 11.6889688,2.82997601 11.1448921,2.99573141 L11.4717986,4.49597122 C11.5254392,4.81500648 11.3191204,5.11994812 11.0030242,5.1888251 C10.6869281,5.25770208 10.372444,5.06624279 10.2884892,4.75381295 L9.96925659,3.29347723 C9.40522781,3.40781776 8.83966425,3.47918467 8.27333334,3.5098801 L8.27333334,5.22729018 C8.26172185,5.55350519 7.99390361,5.81196014 7.66748201,5.81196014 C7.34106041,5.81196014 7.07324218,5.55350519 7.06163069,5.22729018 L7.06163069,3.5098801 C6.49518328,3.4792146 5.93171528,3.40740256 5.37568345,3.29501198 L5.03266187,4.75918464 C4.99105832,4.97794727 4.83286889,5.156292 4.62063556,5.22370827 C4.40840223,5.29112453 4.17629204,5.2367591 4.01607236,5.08210595 C3.85585268,4.92745281 3.79331698,4.69740928 3.85318946,4.48292565 L4.20081536,2.99880097 C3.64140551,2.82780624 3.09341334,2.62147616 2.56014388,2.38105515 L1.64541967,4.19208633 C1.55087625,4.39068678 1.35617823,4.52249805 1.13666923,4.53651222 C0.917160233,4.5505264 0.707280725,4.44454469 0.588249217,4.25957957 C0.469217708,4.07461444 0.459709973,3.83968651 0.563405283,3.64570744 L1.47505996,1.84235011 C1.07218226,1.6221103 0.670071942,1.38191846 0.268729024,1.11870504 C0.00350701533,0.930115117 -0.0654972736,0.565761581 0.112397614,0.293250516 C0.290292502,0.0207394515 0.651614111,-0.0626978681 0.930983206,0.104220616 C3.19247001,1.58143885 5.43553957,2.31429256 7.66786571,2.31429256 C9.90019186,2.31429256 12.142494,1.58143885 14.4047482,0.104220616 C14.6841173,-0.0626979744 15.045439,0.0207393122 15.2233339,0.293250424 C15.4012289,0.565761536 15.3322245,0.930115146 15.0670024,1.11870504 C14.6656595,1.38115108 14.2627818,1.62211032 13.8606715,1.84235011 L13.8606715,1.84235011 Z" id="路径"></path>
                </g>
            </g>
        </g>
    </g>
</svg>