<?xml version="1.0" encoding="UTF-8"?>
<svg width="24px" height="24px" viewBox="0 0 24 24" version="1.1" xmlns="http://www.w3.org/2000/svg" xmlns:xlink="http://www.w3.org/1999/xlink">
    <!-- Generator: Sketch 59.1 (86144) - https://sketch.com -->
    <title>icon/24px/图表/S/常态</title>
    <desc>Created with Sketch.</desc>
    <g id="icon/24px/图表/S/常态" stroke="none" stroke-width="1" fill="none" fill-rule="evenodd">
        <path d="M12.0010233,17.4804881 L12,19.8 C12,19.9104569 11.9104569,20 11.8,20 L10.3173939,20.0005689 C11.3111152,19.3086582 11.9240048,18.6188866 12.0010233,17.4804881 Z M6.46615337,10 C7.70619299,10 8.69270847,10.2337816 9.41527474,10.7198116 C10.2145647,11.2540672 10.67311,12.0860405 10.7802522,13.1644171 L10.8280911,13.645911 L8.37076602,13.645911 L8.28563224,13.3075598 C8.17592815,12.8715577 7.98049597,12.5686007 7.71453359,12.3928873 C7.46323857,12.2182836 7.01962417,12.1219128 6.38451376,12.1219128 C5.83239097,12.1219128 5.44207153,12.1862486 5.1835888,12.3124633 C4.94553284,12.4199766 4.84981563,12.5675507 4.84981563,12.8246156 C4.84981563,13.0231497 4.96864709,13.182527 5.2759143,13.3294634 C5.45248092,13.4145224 6.01530981,13.5985377 6.85651873,13.8403161 C8.14730118,14.2009077 9.05280038,14.5096738 9.49957586,14.7403619 C10.4846118,15.2713383 11,16.0409641 11,17.0156104 C11,17.9464568 10.5853349,18.7067947 9.77774507,19.2465535 C9.00464648,19.7493363 7.94335896,20 6.6294326,20 C5.34625622,20 4.32096585,19.7709996 3.56780073,19.2989474 C2.61968305,18.6994693 2.10404701,17.7572957 2.0283216,16.5124198 L2,16.0468313 L4.47021725,16.0468313 L4.53136106,16.4196257 C4.62350395,16.9814217 4.82636779,17.3502792 5.12286038,17.5490625 C5.42322532,17.7428538 5.92782398,17.8535066 6.6294326,17.8535066 C7.2609412,17.8535066 7.76027678,17.7584098 8.08525048,17.5922205 C8.3682798,17.438831 8.47708259,17.28983 8.47708259,17.1016426 C8.47708259,16.8286432 8.28615147,16.5986958 7.83035756,16.3928454 C7.65799888,16.315003 6.99448151,16.1109072 6.00427626,15.8391502 C4.75867608,15.4811633 4.00737177,15.2332643 3.67671124,15.0624859 C2.78783762,14.5807552 2.32689822,13.8473709 2.32689822,12.9106477 C2.32689822,11.9773872 2.76963275,11.2266228 3.62222714,10.7133429 C4.38221589,10.2328154 5.3272992,10 6.46615337,10 Z M21.8,5 C21.9104569,5 22,5.08954305 22,5.2 L22,19.8 C22,19.9104569 21.9104569,20 21.8,20 L19.2,20 C19.0895431,20 19,19.9104569 19,19.8 L19,5.2 C19,5.08954305 19.0895431,5 19.2,5 L21.8,5 Z M16.8,11 C16.9104569,11 17,11.0895431 17,11.2 L17,19.8 C17,19.9104569 16.9104569,20 16.8,20 L14.2,20 C14.0895431,20 14,19.9104569 14,19.8 L14,11.2 C14,11.0895431 14.0895431,11 14.2,11 L16.8,11 Z M11.8,8 C11.9104569,8 12,8.08954305 12,8.2 L12.0008842,16.8565679 C11.9446121,15.7282687 11.5709183,14.9853827 9.88094932,14.2153228 L9.65297179,14.1146922 L11.8692975,14.1146922 L11.8692975,13.6419097 C11.8692975,12.0791017 11.163025,10.8105997 9.96387374,10.0234277 C9.67028899,9.82948568 9.34923184,9.66381539 9.00080953,9.52581753 L9,8.2 C9,8.08954305 9.08954305,8 9.2,8 L11.8,8 Z" id="合并形状" fill="currentColor"></path>
    </g>
</svg>
