<?xml version="1.0" standalone="no"?>
<svg xmlns="http://www.w3.org/2000/svg" xmlns:xlink="http://www.w3.org/1999/xlink" id="body_1" width="20" height="20">

<g transform="matrix(1.4285715 0 0 1.4285715 0 0)">
	<g>
        <path d="M2.2771 2.99055C 2.2771 2.78172 2.44639 2.61243 2.65522 2.61243C 2.86406 2.61243 3.03335 2.78172 3.03335 2.99055C 3.03335 3.19938 2.86406 3.36868 2.65522 3.36868C 2.44639 3.36868 2.2771 3.19938 2.2771 2.99055zM3.7896 2.99055C 3.7896 2.78172 3.95889 2.61243 4.16772 2.61243L4.16772 2.61243L8.70522 2.61243C 8.91406 2.61243 9.08335 2.78172 9.08335 2.99055C 9.08335 3.19938 8.91406 3.36868 8.70522 3.36868L8.70522 3.36868L4.16773 3.36868C 3.95889 3.36868 3.7896 3.19938 3.7896 2.99055zM2.2771 6.01555C 2.2771 5.80672 2.44639 5.63743 2.65522 5.63743C 2.86406 5.63743 3.03335 5.80672 3.03335 6.01555C 3.03335 6.22438 2.86406 6.39368 2.65522 6.39368C 2.44639 6.39368 2.2771 6.22438 2.2771 6.01555zM3.7896 6.01555C 3.7896 5.80672 3.95889 5.63743 4.16772 5.63743L4.16772 5.63743L8.70522 5.63743C 8.91406 5.63743 9.08335 5.80672 9.08335 6.01555C 9.08335 6.22438 8.91406 6.39368 8.70522 6.39368L8.70522 6.39368L4.16773 6.39368C 3.95889 6.39368 3.7896 6.22438 3.7896 6.01555z" stroke="none" fill="currentColor" fill-rule="nonzero" />
        <path d="M12.1084 1.09998L1.5209 1.09998C 1.10496 1.09998 0.764648 1.44029 0.764648 1.85623L0.764648 1.85623L0.764648 10.175C 0.764648 10.5909 1.10496 10.9312 1.5209 10.9312L1.5209 10.9312L12.1084 10.9312C 12.5243 10.9312 12.8646 10.5909 12.8646 10.175L12.8646 10.175L12.8646 1.85623C 12.8646 1.44029 12.5243 1.09998 12.1084 1.09998zM1.5209 1.85623L12.1084 1.85623L12.1084 4.12498L1.5209 4.12498L1.5209 1.85623zM1.5209 4.88123L12.1084 4.88123L12.1084 7.14998L1.5209 7.14998L1.5209 4.88123zM1.5209 10.175L1.5209 7.90623L12.1084 7.90623L12.1084 10.175L1.5209 10.175z" stroke="none" fill="currentColor" fill-rule="nonzero" />
	</g>
	<g>
        <path d="M2.41455 9.13005C 2.41455 8.94779 2.5623 8.80005 2.74455 8.80005L2.74455 8.80005L2.81788 8.80005C 3.00014 8.80005 3.14788 8.94779 3.14788 9.13005C 3.14788 9.3123 3.00014 9.46005 2.81788 9.46005L2.81788 9.46005L2.74455 9.46005C 2.5623 9.46005 2.41455 9.3123 2.41455 9.13005zM3.88122 9.13005C 3.88122 8.94779 4.02896 8.80005 4.21122 8.80005L4.21122 8.80005L8.68455 8.80005C 8.8668 8.80005 9.01455 8.94779 9.01455 9.13005C 9.01455 9.3123 8.86681 9.46005 8.68455 9.46005L8.68455 9.46005L4.21122 9.46005C 4.02896 9.46005 3.88122 9.3123 3.88122 9.13005z" stroke="none" fill="currentColor" fill-rule="nonzero" />
	</g>
</g>
</svg>
