<?xml version="1.0" encoding="UTF-8"?>
<svg width="16px" height="11px" viewBox="0 0 16 11" version="1.1" xmlns="http://www.w3.org/2000/svg" xmlns:xlink="http://www.w3.org/1999/xlink">
    <title>可见</title>
    <g id="标注" stroke="none" stroke-width="1" fill="none" fill-rule="evenodd">
        <g id="回放-视图元素" transform="translate(-207.000000, -188.000000)" fill="#A3C0D5" fill-rule="nonzero">
            <g id="编组-4" transform="translate(38.000000, 152.000000)">
                <g id="可见" transform="translate(169.000000, 36.000000)">
                    <path d="M7.68094723,10.7449041 C4.39653476,10.7449041 1.44133094,8.8064868 0.0700119829,5.74691846 C-0.0174700315,5.48523979 -0.0174700315,5.26116306 0.0907314074,4.94576738 C1.44133094,1.93991607 4.39730216,0.00149880845 7.68017986,0.00149880845 C10.9645923,0.00149880845 13.9205636,1.93991607 15.2911151,4.99948442 C15.3785971,5.26116308 15.3785971,5.48523982 15.2703957,5.8006355 C13.9205636,8.8064868 10.9645923,10.7449041 7.68171464,10.7449041 L7.68094723,10.7449041 Z M1.14358514,5.33022781 C2.31001201,7.92476018 4.85466428,9.59382493 7.68094723,9.59382493 C10.5072302,9.59382493 13.0526499,7.92476018 14.1975899,5.38317745 C14.2052638,5.35785371 14.2052638,5.38701439 14.2167746,5.41387291 L14.217542,5.41617507 C13.0518825,2.82164269 10.5064628,1.15257795 7.68171464,1.15257795 C4.85543165,1.15257795 2.31001201,2.82164269 1.16507194,5.36322543 C1.15663069,5.38854917 1.15663069,5.35938849 1.1451199,5.33252997 L1.1451199,5.33022781 L1.14358514,5.33022781 Z M7.68094723,8.34682255 C6.88954107,8.3540409 6.12836136,8.04326708 5.56815263,7.48421252 C5.0079439,6.92515797 4.6956009,6.16462081 4.70118705,5.37320144 C4.6956009,4.58178207 5.0079439,3.82124491 5.56815263,3.26219035 C6.12836136,2.7031358 6.88954107,2.39236198 7.68094723,2.39958033 C8.47208854,2.39277566 9.23287065,2.70373221 9.79274534,3.26274133 C10.35262,3.82175046 10.6647533,4.58205055 10.6591727,5.37320144 C10.664756,6.16448655 10.3525179,6.92490515 9.79247619,7.48393699 C9.23243449,8.04296882 8.4714536,8.35383402 7.68017986,8.34682255 L7.68094723,8.34682255 Z M7.68094723,7.19574341 C8.70770982,7.19574341 9.50732612,6.39766187 9.50732615,5.37320144 C9.5131708,4.88739729 9.32250109,4.41983681 8.97859977,4.07665797 C8.63469846,3.73347914 8.16673802,3.54379316 7.68094723,3.55065946 C7.19515646,3.54379316 6.72719602,3.73347915 6.38329471,4.07665798 C6.0393934,4.41983681 5.8487237,4.8873973 5.85456835,5.37320144 C5.8487237,5.85900558 6.0393934,6.32656606 6.38329471,6.6697449 C6.72719602,7.01292373 7.19515646,7.20260971 7.68094723,7.19574341 L7.68094723,7.19574341 Z" id="形状"></path>
                </g>
            </g>
        </g>
    </g>
</svg>