<?xml version="1.0" encoding="UTF-8"?>
<svg width="138px" height="15px" viewBox="0 0 138 15" version="1.1" xmlns="http://www.w3.org/2000/svg" xmlns:xlink="http://www.w3.org/1999/xlink">
    <title>自动驾驶仿真测试平台</title>
    <g id="TAD-SIM-菜单样式" stroke="none" stroke-width="1" fill="none" fill-rule="evenodd">
        <g id="TOP/菜单栏/常态" transform="translate(-48.000000, -12.000000)" fill="#60C1D8" fill-rule="nonzero">
            <g id="自动驾驶仿真测试平台" transform="translate(48.030000, 12.918000)">
                <path d="M1.694,11.046 L1.694,9.59 L8.344,9.59 L8.344,11.046 L1.694,11.046 Z M8.344,6.608 L8.344,8.05 L1.694,8.05 L1.694,6.608 L8.344,6.608 Z M8.344,3.626 L8.344,5.068 L1.694,5.068 L1.694,3.626 L8.344,3.626 Z M5.32,2.03 C5.544,1.526 5.768,0.98 5.978,0.42 L3.962,0.196 C3.892,0.756 3.738,1.428 3.584,2.03 L0,2.03 L0,13.286 L1.694,13.286 L1.694,12.586 L8.344,12.586 L8.344,13.272 L10.122,13.272 L10.122,2.03 L5.32,2.03 Z" id="形状"></path>
                <path d="M18.606,1.302 L13.132,1.302 L13.132,2.772 L18.606,2.772 L18.606,1.302 Z M22.232,3.248 C22.246,2.352 22.26,1.428 22.26,0.476 L20.608,0.476 C20.608,1.428 20.608,2.366 20.594,3.248 L19.026,3.248 L19.026,4.844 L20.538,4.844 C20.44,7.056 20.132,8.988 19.32,10.514 C19.068,9.534 18.508,8.064 18.018,6.93 L16.688,7.294 C16.898,7.826 17.108,8.428 17.318,9.03 L14.938,9.576 C15.4,8.498 15.82,7.238 16.114,6.048 L18.858,6.048 L18.858,4.536 L12.684,4.536 L12.684,6.048 L14.406,6.048 C14.098,7.532 13.608,8.946 13.426,9.366 C13.202,9.87 13.006,10.192 12.74,10.29 C12.922,10.696 13.188,11.452 13.272,11.774 C13.678,11.522 14.28,11.312 17.738,10.416 C17.808,10.654 17.864,10.878 17.906,11.074 L19.236,10.668 C18.942,11.144 18.592,11.606 18.186,12.012 C18.592,12.278 19.152,12.866 19.418,13.286 C21.392,11.326 21.98,8.358 22.176,4.844 L23.618,4.844 C23.492,9.226 23.352,10.906 23.044,11.298 C22.904,11.494 22.764,11.536 22.526,11.536 C22.232,11.536 21.63,11.536 20.972,11.48 C21.252,11.942 21.434,12.628 21.462,13.104 C22.19,13.132 22.904,13.132 23.338,13.062 C23.842,12.964 24.164,12.824 24.5,12.334 C24.962,11.69 25.116,9.646 25.256,4.004 C25.256,3.794 25.27,3.248 25.27,3.248 L22.232,3.248 Z" id="形状"></path>
                <path d="M37.072,3.738 L35.168,3.738 L35.168,2.156 L37.072,2.156 L37.072,3.738 Z M38.626,0.966 L33.726,0.966 L33.726,4.914 L38.626,4.914 L38.626,0.966 Z M31.514,2.576 C31.43,3.332 31.332,3.696 31.22,3.822 C31.108,3.92 31.01,3.934 30.828,3.934 C30.632,3.948 30.254,3.934 29.792,3.892 C29.988,4.228 30.142,4.746 30.156,5.124 C30.73,5.152 31.29,5.138 31.612,5.11 C31.948,5.068 32.242,4.97 32.494,4.704 C32.816,4.382 32.97,3.57 33.082,1.834 C33.11,1.652 33.124,1.316 33.124,1.316 L30.338,1.316 C30.38,0.966 30.408,0.616 30.436,0.252 L28.91,0.252 C28.882,0.616 28.854,0.98 28.812,1.316 L26.824,1.316 L26.824,2.576 L28.49,2.576 C28.168,3.388 27.538,4.032 26.348,4.48 C26.656,4.746 27.048,5.292 27.202,5.642 C28.91,4.956 29.694,3.934 30.086,2.576 L31.514,2.576 Z M35.994,10.416 L27.006,10.416 L27.006,11.732 L35.994,11.732 L35.994,10.416 Z M36.624,8.68 C36.848,7.728 37.058,6.65 37.198,5.628 L35.924,5.46 L35.644,5.53 L28.308,5.53 L28.308,7.014 L35.224,7.014 C35.126,7.56 35,8.134 34.874,8.68 L30.66,8.68 C30.758,8.26 30.856,7.812 30.926,7.406 L29.218,7.252 C29.064,8.12 28.826,9.198 28.616,9.884 L37.282,9.884 C37.142,11.074 36.988,11.62 36.792,11.802 C36.666,11.928 36.54,11.942 36.33,11.942 C36.106,11.942 35.588,11.942 35.042,11.872 C35.252,12.25 35.42,12.796 35.448,13.216 C36.134,13.23 36.75,13.23 37.128,13.188 C37.548,13.146 37.898,13.048 38.178,12.74 C38.57,12.348 38.808,11.382 39.004,9.282 C39.032,9.086 39.046,8.68 39.046,8.68 L36.624,8.68 Z" id="形状"></path>
                <path d="M47.81,3.766 L48.902,3.766 L48.902,5.964 L47.81,5.964 L47.81,3.766 Z M51.562,3.766 L51.562,5.964 L50.442,5.964 L50.442,3.766 L51.562,3.766 Z M53.102,7.364 L53.102,2.366 L50.442,2.366 L50.442,0.322 L48.902,0.322 L48.902,2.366 L46.354,2.366 L46.354,7.364 L48.874,7.364 C48.846,7.952 48.762,8.554 48.58,9.114 C48.188,8.694 47.852,8.232 47.586,7.742 L46.256,8.176 C46.69,9.03 47.222,9.8 47.866,10.472 C47.334,11.144 46.564,11.69 45.388,12.082 C45.654,11.298 45.822,9.842 46.018,7.294 C46.046,7.098 46.06,6.678 46.06,6.678 L45.066,6.678 C45.262,5.11 45.444,2.758 45.556,0.882 L40.852,0.882 L40.852,2.31 L43.96,2.31 C43.876,3.836 43.722,5.474 43.568,6.678 L42.308,6.678 C42.42,5.558 42.532,4.228 42.616,3.122 L41.23,3.038 C41.146,4.62 40.964,6.706 40.768,7.98 L44.478,7.98 C44.408,9.016 44.324,9.814 44.226,10.402 L44.086,9.072 C42.714,9.366 41.328,9.646 40.348,9.814 L40.362,9.814 L40.656,11.256 C41.734,11.018 43.008,10.724 44.212,10.43 C44.086,11.242 43.946,11.648 43.792,11.816 C43.638,11.97 43.512,11.998 43.302,11.998 C43.092,11.998 42.616,11.998 42.098,11.942 C42.322,12.32 42.476,12.88 42.504,13.3 C43.12,13.314 43.68,13.314 44.044,13.258 C44.464,13.202 44.758,13.09 45.052,12.74 C45.178,12.614 45.29,12.418 45.388,12.11 C45.724,12.432 46.172,13.02 46.368,13.356 C47.516,12.866 48.37,12.222 48.972,11.48 C49.994,12.292 51.198,12.894 52.57,13.286 C52.794,12.866 53.256,12.236 53.606,11.9 C52.136,11.55 50.834,10.976 49.77,10.178 C50.162,9.296 50.344,8.344 50.414,7.364 L53.102,7.364 Z" id="形状"></path>
                <path d="M57.386,0.196 C56.7,2.184 55.51,4.172 54.264,5.432 C54.558,5.852 55.034,6.79 55.188,7.196 C55.454,6.902 55.72,6.58 55.986,6.244 L55.986,13.272 L57.61,13.272 L57.61,3.71 C58.128,2.744 58.604,1.708 58.982,0.7 L57.386,0.196 Z M67.494,4.256 L67.494,2.618 L62.846,2.618 L64.26,2.226 C64.134,1.694 63.812,0.784 63.56,0.14 L61.894,0.532 C62.104,1.19 62.37,2.044 62.482,2.618 L58.506,2.618 L58.506,4.256 L60.606,4.256 C60.508,7.434 60.27,10.36 57.75,12.124 C58.17,12.404 58.702,12.922 58.954,13.314 C60.998,11.83 61.81,9.688 62.16,7.266 L64.946,7.266 C64.834,10.038 64.652,11.186 64.358,11.48 C64.218,11.648 64.078,11.69 63.826,11.676 C63.504,11.676 62.846,11.676 62.132,11.606 C62.412,12.04 62.636,12.684 62.65,13.146 C63.42,13.174 64.176,13.174 64.624,13.104 C65.142,13.048 65.52,12.922 65.856,12.502 C66.332,11.97 66.528,10.402 66.71,6.398 C66.724,6.188 66.738,5.712 66.738,5.712 L62.328,5.712 C62.37,5.222 62.398,4.746 62.412,4.256 L67.494,4.256 Z" id="形状"></path>
                <path d="M72.226,8.708 L77.714,8.708 L77.714,9.352 L72.226,9.352 L72.226,8.708 Z M77.714,4.228 L77.714,4.83 L72.226,4.83 L72.226,4.228 L77.714,4.228 Z M77.714,7.224 L77.714,7.77 L72.226,7.77 L72.226,7.224 L77.714,7.224 Z M77.714,6.3 L72.226,6.3 L72.226,5.768 L77.714,5.768 L77.714,6.3 Z M81.2,10.724 L81.2,9.352 L79.394,9.352 L79.394,3.192 L75.586,3.192 C75.628,2.996 75.656,2.786 75.712,2.562 L80.864,2.562 L80.864,1.176 L75.978,1.176 L76.118,0.364 L74.368,0.196 C74.354,0.49 74.312,0.826 74.284,1.176 L69.132,1.176 L69.132,2.562 L74.088,2.562 C74.046,2.786 74.004,2.996 73.962,3.192 L70.616,3.192 L70.616,9.352 L68.754,9.352 L68.754,10.724 L72.576,10.724 C71.68,11.27 70.042,11.872 68.684,12.18 C69.048,12.488 69.552,12.992 69.818,13.314 C71.204,12.978 72.94,12.306 74.046,11.634 L72.744,10.724 L76.832,10.724 L75.936,11.648 C77.476,12.11 79.044,12.796 79.968,13.3 L81.354,12.18 C80.43,11.732 78.918,11.158 77.49,10.724 L81.2,10.724 Z" id="形状"></path>
                <path d="M87.5,2.142 L89.922,2.142 L89.922,10.024 L91.224,10.024 L91.224,0.966 L86.254,0.966 L86.254,10.108 L87.5,10.108 L87.5,2.142 Z M86.24,1.708 C85.708,1.302 84.644,0.7 83.916,0.336 L82.936,1.554 C83.692,1.974 84.742,2.632 85.232,3.052 L86.24,1.708 Z M85.666,5.39 C85.134,4.998 84.07,4.424 83.342,4.074 L82.404,5.278 C83.146,5.684 84.182,6.314 84.686,6.72 L85.666,5.39 Z M84.434,7.798 C83.888,9.436 83.16,11.2 82.642,12.292 L84.154,13.146 C84.714,11.774 85.316,10.164 85.778,8.666 L84.434,7.798 Z M88.844,10.892 C89.208,10.038 89.292,9.128 89.292,8.274 L89.292,2.912 L88.088,2.912 L88.088,8.246 C88.088,9.8 87.864,11.298 85.666,12.292 C85.876,12.488 86.254,13.02 86.38,13.3 C87.64,12.726 88.382,11.914 88.788,11.018 C89.404,11.69 90.118,12.614 90.454,13.188 L91.518,12.53 C91.14,11.928 90.37,11.032 89.726,10.36 L88.844,10.892 Z M93.142,1.512 L91.882,1.512 L91.882,10.08 L93.142,10.08 L93.142,1.512 Z M93.8,0.448 L93.8,11.62 C93.8,11.83 93.716,11.9 93.506,11.9 C93.296,11.9 92.638,11.914 91.966,11.886 C92.134,12.278 92.33,12.88 92.386,13.244 C93.394,13.258 94.08,13.202 94.514,12.978 C94.962,12.754 95.102,12.376 95.102,11.62 L95.102,0.448 L93.8,0.448 Z" id="形状"></path>
                <path d="M100.646,2.506 C100.184,1.904 99.176,1.022 98.434,0.42 L97.356,1.428 C98.098,2.086 99.078,3.024 99.498,3.654 L100.646,2.506 Z M103.964,7.616 L105.014,7.616 L105.014,6.09 L101.304,6.09 L101.304,7.616 L102.438,7.616 L102.438,10.626 C102.13,10.71 101.836,10.78 101.57,10.85 L101.584,10.836 C101.43,10.5 101.234,9.842 101.15,9.408 L99.904,10.192 L99.904,4.522 L96.684,4.522 L96.684,6.118 L98.322,6.118 L98.322,10.36 C98.322,10.962 97.888,11.424 97.594,11.62 C97.846,11.956 98.238,12.67 98.364,13.076 C98.602,12.796 99.036,12.516 101.122,11.144 L101.5,12.502 C102.69,12.166 104.188,11.732 105.588,11.298 L105.364,9.856 C104.888,9.982 104.426,10.108 103.964,10.234 L103.964,7.616 Z M109.452,4.494 L109.452,2.912 L108.402,2.912 L109.438,2.24 C109.186,1.722 108.598,0.938 108.08,0.378 L106.96,1.064 C107.422,1.624 107.94,2.366 108.192,2.912 L106.89,2.912 C106.862,2.072 106.862,1.204 106.862,0.336 L105.168,0.336 C105.182,1.232 105.196,2.086 105.224,2.912 L100.884,2.912 L100.884,4.494 L105.28,4.494 C105.518,9.926 106.148,13.188 107.912,13.202 C108.486,13.216 109.27,12.67 109.62,9.982 C109.354,9.828 108.598,9.366 108.318,9.016 C108.262,10.276 108.15,10.976 107.968,10.962 C107.492,10.948 107.1,8.19 106.932,4.494 L109.452,4.494 Z" id="形状"></path>
                <path d="M123.34,6.986 L117.838,6.986 L117.838,2.744 L122.528,2.744 L122.528,1.092 L111.384,1.092 L111.384,2.744 L116.102,2.744 L116.102,6.986 L110.656,6.986 L110.656,8.68 L116.102,8.68 L116.102,13.3 L117.838,13.3 L117.838,8.68 L123.34,8.68 L123.34,6.986 Z M112.238,3.64 C112.686,4.578 113.12,5.81 113.26,6.552 L114.884,6.048 C114.73,5.264 114.226,4.088 113.764,3.192 L112.238,3.64 Z M120.414,6.524 C120.876,5.81 121.45,4.676 121.954,3.598 L120.176,3.15 C119.91,4.06 119.406,5.292 118.958,6.104 L120.414,6.524 Z" id="形状"></path>
                <path d="M133.896,8.736 L133.896,10.976 L127.96,10.976 L127.96,8.736 L133.896,8.736 Z M126.252,13.286 L127.96,13.286 L127.96,12.572 L133.896,12.572 L133.896,13.272 L135.688,13.272 L135.688,7.14 L126.252,7.14 L126.252,13.286 Z M132.118,2.38 C132.636,2.898 133.196,3.486 133.742,4.102 L128.002,4.284 C129.066,3.262 130.172,2.016 131.054,0.714 L129.374,0 C128.422,1.68 126.896,3.374 126.406,3.808 C125.944,4.256 125.608,4.522 125.244,4.62 C125.44,5.054 125.706,5.88 125.79,6.216 C126.532,5.964 127.526,5.936 134.96,5.572 C135.254,5.964 135.506,6.328 135.688,6.636 L137.102,5.614 C136.374,4.438 134.708,2.716 133.42,1.512 L132.118,2.38 Z" id="形状"></path>
            </g>
        </g>
    </g>
</svg>