<?xml version="1.0" standalone="no"?><!DOCTYPE svg PUBLIC "-//W3C//DTD SVG 1.1//EN" "http://www.w3.org/Graphics/SVG/1.1/DTD/svg11.dtd"><svg t="1596003940001" class="icon" viewBox="0 0 1024 1024" version="1.1" xmlns="http://www.w3.org/2000/svg" p-id="2744" xmlns:xlink="http://www.w3.org/1999/xlink" width="200" height="200"><defs><style type="text/css"></style></defs><path d="M512 118.401c-217.387 0-393.599 176.211-393.599 393.598 0 217.364 176.211 393.599 393.598 393.599 217.364 0 393.599-176.235 393.599-393.599 0.001-217.387-176.234-393.598-393.598-393.598zM577.919 665.653c-31.76 46.558-64.094 82.497-118.507 82.497-37.118-5.91-52.371-31.903-44.323-58.375l69.981-226.349c1.682-5.549-1.153-11.458-6.318-13.237-5.166-1.778-15.278 4.78-24.047 14.126l-42.282 49.703c-1.153-8.311-0.119-22.148-0.119-27.698 31.783-46.581 83.985-83.361 119.396-83.361 33.68 3.364 49.584 29.645 43.722 58.521l-70.46 227.479c-0.961 5.14 1.825 10.329 6.606 11.962 5.189 1.779 16.071-4.756 24.816-14.125l42.306-49.679c1.154 8.311-0.768 22.965-0.768 28.538zM568.503 369.974c-26.763 0-48.457-19.002-48.457-47.062s21.693-47.061 48.457-47.061 48.431 19.002 48.431 47.061-21.669 47.062-48.431 47.062z" fill="#0491AA" p-id="2745"></path><path d="M512 118.401c-217.387 0-393.599 176.211-393.599 393.598 0 217.364 176.211 393.599 393.598 393.599 217.364 0 393.599-176.235 393.599-393.599 0.001-217.387-176.234-393.598-393.598-393.598zM577.919 665.653c-31.76 46.558-64.094 82.497-118.507 82.497-37.118-5.91-52.371-31.903-44.323-58.375l69.981-226.349c1.682-5.549-1.153-11.458-6.318-13.237-5.166-1.778-15.278 4.78-24.047 14.126l-42.282 49.703c-1.153-8.311-0.119-22.148-0.119-27.698 31.783-46.581 83.985-83.361 119.396-83.361 33.68 3.364 49.584 29.645 43.722 58.521l-70.46 227.479c-0.961 5.14 1.825 10.329 6.606 11.962 5.189 1.779 16.071-4.756 24.816-14.125l42.306-49.679c1.154 8.311-0.768 22.965-0.768 28.538zM568.503 369.974c-26.763 0-48.457-19.002-48.457-47.062s21.693-47.061 48.457-47.061 48.431 19.002 48.431 47.061-21.669 47.062-48.431 47.062z" fill="#0491AA" p-id="2746"></path></svg>