<?xml version="1.0" standalone="no"?><!DOCTYPE svg PUBLIC "-//W3C//DTD SVG 1.1//EN" "http://www.w3.org/Graphics/SVG/1.1/DTD/svg11.dtd"><svg t="1596005752132" class="icon" viewBox="0 0 1024 1024" version="1.1" xmlns="http://www.w3.org/2000/svg" p-id="6393" xmlns:xlink="http://www.w3.org/1999/xlink" width="200" height="200"><defs><style type="text/css"></style></defs><path d="M848.457143 206.262857a338.432 338.432 0 0 0-79.140572-107.958857 385.828571 385.828571 0 0 0-514.413714 0 338.944 338.944 0 0 0-79.140571 108.105143 316.928 316.928 0 0 0-29.257143 133.485714v35.693714a14.628571 14.628571 0 0 0 14.628571 14.628572h72.045715a14.628571 14.628571 0 0 0 14.628571-14.628572v-35.693714a265.069714 265.069714 0 0 1 527.506286 0 222.134857 222.134857 0 0 1-56.027429 147.090286 269.019429 269.019429 0 0 1-144.310857 84.699428 145.846857 145.846857 0 0 0-114.249143 142.116572v41.545143a14.628571 14.628571 0 0 0 14.628572 14.628571h72.045714a14.628571 14.628571 0 0 0 14.628571-14.628571v-41.545143a44.763429 44.763429 0 0 1 34.669715-43.885714 373.028571 373.028571 0 0 0 199.241142-117.028572 332.8 332.8 0 0 0 59.099429-97.938286 318.537143 318.537143 0 0 0-7.899429-248.685714zM512 875.812571a74.093714 74.093714 0 1 0 74.752 74.093715A74.459429 74.459429 0 0 0 512 875.812571z" p-id="6394" fill="#ffffff"></path></svg>