<?xml version="1.0" encoding="UTF-8"?>
<svg width="12px" height="12px" viewBox="0 0 12 12" version="1.1" xmlns="http://www.w3.org/2000/svg" xmlns:xlink="http://www.w3.org/1999/xlink">
    <title>icon/12px/牌/常态</title>
    <g id="icon/12px/牌/常态" stroke="none" stroke-width="1" fill="none" fill-rule="evenodd">
        <g id="pinpai" transform="translate(0.000000, 2.000000)" fill="#B9B9B9" fill-rule="nonzero">
            <path d="M12,0.377590765 L12,7.62336047 C12,7.8312813 11.8506422,7.99983444 11.6664,7.99983444 L7.3332,7.99983444 C7.14919187,7.99983411 4.85057386,8.00020712 4.6668,7.99983444 L0.333599998,7.99983444 C0.245123777,7.99983444 0.160271312,7.96017033 0.0977091771,7.88956777 C0.0351470417,7.8189652 0,7.72320758 0,7.62336047 L0,0.377590765 C0,0.169717546 0.149399996,0.00111678496 0.333599998,0.00111678496 L0.999600001,0.00111678496 C0.860893345,-0.000372261655 2.13874159,-1.47382107e-14 1.9998,0.00111678496 L4.0002,0.00111678496 C3.86125841,-1.47382107e-14 5.13874159,-1.47382107e-14 4.9998,0.00111678496 L6.9996,0.00111678496 C6.86089335,-0.000372261655 8.13910665,-0.000372261655 8.00039999,0.00111678496 L9.9996,0.00111678496 C9.86089334,-0.000372261655 11.1391067,-0.000372261655 11.0004,0.00111678496 L11.6664,0.00111678496 C11.8506,0.00111678496 12,0.169717534 12,0.377590765 Z M8.76146211,2.78435168 C8.89401362,2.78286811 9.00062326,2.65562473 9,2.49966269 C9.00030712,2.34396339 8.89378917,2.21713072 8.76146211,2.21564832 L3.23852957,2.21564832 C3.10607021,2.21676241 2.99936996,2.34381214 3,2.49966269 C3,2.65684879 3.10665335,2.78435168 3.23852957,2.78435168 L8.76146211,2.78435168 Z M6.82324533,4.784689 L9.78852621,4.784689 C9.90530158,4.784689 10,4.65651149 10,4.5 C10,4.34281389 9.90530157,4.215311 9.78852621,4.215311 L2.2114738,4.215311 C2.09411746,4.215311 2,4.34281389 2,4.5 C2,4.6571861 2.09411746,4.78468899 2.2114738,4.784689 L6.82324533,4.784689 Z" id="形状"></path>
        </g>
    </g>
</svg>
