<?xml version="1.0" encoding="UTF-8"?>
<svg width="12px" height="12px" viewBox="0 0 12 12" version="1.1" xmlns="http://www.w3.org/2000/svg" xmlns:xlink="http://www.w3.org/1999/xlink">
    <title>icon/12px/灯/常态</title>
    <g id="icon/12px/灯/常态" stroke="none" stroke-width="1" fill="none" fill-rule="evenodd">
        <g id="traffic-status" transform="translate(3.000000, 0.000000)" fill="#B9B9B9" fill-rule="nonzero">
            <path d="M2.79255319,-3.54326497e-16 C4.33483773,-3.54326497e-16 5.58510638,1.25026865 5.58510638,2.79255319 L5.58510638,9.17553191 C5.58510638,10.7178165 4.33483773,11.9680851 2.79255319,11.9680851 C1.25026865,11.9680851 -7.08652994e-16,10.7178165 -7.08652994e-16,9.17553191 L-7.08652994e-16,2.79255319 C-7.08652994e-16,1.25026865 1.25026865,-3.54326497e-16 2.79255319,-3.54326497e-16 Z M2.79255319,3.9893617 C3.45353228,3.9893617 3.9893617,3.45353228 3.9893617,2.79255319 C3.9893617,2.1315741 3.45353228,1.59574468 2.79255319,1.59574468 C2.1315741,1.59574468 1.59574468,2.1315741 1.59574468,2.79255319 C1.59574468,3.45353228 2.1315741,3.9893617 2.79255319,3.9893617 Z M2.79255319,7.18085106 C3.45353228,7.18085106 3.9893617,6.64502164 3.9893617,5.98404255 C3.9893617,5.32306346 3.45353228,4.78723404 2.79255319,4.78723404 C2.1315741,4.78723404 1.59574468,5.32306346 1.59574468,5.98404255 C1.59574468,6.64502164 2.1315741,7.18085106 2.79255319,7.18085106 Z M2.79255319,10.3723404 C3.2201317,10.3723404 3.61523054,10.14423 3.82901979,9.77393618 C4.04280905,9.40364233 4.04280905,8.9474215 3.82901979,8.57712765 C3.61523054,8.2068338 3.2201317,7.9787234 2.79255319,7.9787234 C2.1315741,7.9787234 1.59574468,8.51455283 1.59574468,9.17553191 C1.59574468,9.836511 2.1315741,10.3723404 2.79255319,10.3723404 L2.79255319,10.3723404 Z" id="形状"></path>
        </g>
    </g>
</svg>
