<?xml version="1.0" encoding="UTF-8"?>
<svg width="12px" height="12px" viewBox="0 0 12 12" version="1.1" xmlns="http://www.w3.org/2000/svg" xmlns:xlink="http://www.w3.org/1999/xlink">
    <title>icon/12px/曲线道路/常态</title>
    <g id="icon/12px/曲线道路/常态" stroke="none" stroke-width="1" fill="none" fill-rule="evenodd">
        <g id="icon/Tool/24px/曲线道路/常态" transform="translate(-1.000000, -1.000000)" fill="#B9B9B9">
            <path d="M12.3907572,1.16675212 L12.498,1.43875212 L10.9694533,1.45495995 L10.9694533,1.85118483 L12.5543171,1.83448299 L12.654,1.83175212 L12.8333333,2.28224917 C7.75777762,2.18393027 5.21999977,2.64167398 5.21999977,3.65548029 C5.21999977,5.17618976 11.2432704,6.86427196 11.9042895,8.90177069 C12.3449689,10.2601032 11.9129176,11.4400446 10.6081357,12.4415949 L7.36228987,12.4404968 C7.40749205,12.3962938 7.44201898,12.3620069 7.44989035,12.3524765 L6.77733675,12.3524765 L6.691,12.4407521 L2.33333333,12.4415949 C4.25777762,11.1321738 5.21999977,9.95223241 5.21999977,8.90177069 C5.21999977,7.32607812 1.75,5.39178525 1.75,4.01923422 C1.75,2.64668319 3.25269815,2.22931286 4.04430685,1.96920749 C4.57211482,1.79578129 5.5491485,1.50304326 7.25203356,1.33650813 C8.16007294,1.24770563 9.87298081,1.19112029 12.3907572,1.16675212 Z M8.28287129,10.0982775 C8.05628098,10.580866 7.51385245,11.3369745 7,11.9914532 L7.72227719,11.9914532 C8.25801609,11.3090984 8.60685765,10.7088009 8.85298638,10.1845998 L8.28287129,10.0982775 Z M8.17909222,7.52472621 L7.85246411,7.92042099 C8.34882796,8.33014686 8.56174663,8.63915522 8.57177152,8.95790905 C8.57208568,9.14186809 8.55047629,9.31221968 8.5043332,9.4950242 L9.00784456,9.55805246 C9.06429561,9.33441102 9.08527308,9.18408059 9.08474316,8.94925465 C9.06885993,8.4410851 8.77821838,8.0192777 8.17909222,7.52472621 Z M5.93448697,5.92575124 L5.637978,6.34449068 L7.32101476,7.5156586 L7.62063901,7.09914258 L5.93448697,5.92575124 Z M3.82110088,4.23240063 L3.41023103,4.53972171 C3.51855285,4.68454149 3.64771769,4.82110418 3.78080235,4.93576681 C4.23138029,5.30363881 4.64255561,5.62107442 5.07919709,5.94178821 L5.38293328,5.52826117 C4.95312261,5.21256463 4.54882995,4.90044257 4.11047119,4.54266121 C4.01001158,4.45598736 3.90640372,4.34644541 3.82110088,4.23240063 Z M4.79010615,2.26150849 C4.38713343,2.41495168 4.01298434,2.59378856 3.66758688,2.8002455 C3.24373655,3.05585122 3.05285013,3.39760304 3.08924954,3.79014448 L3.60014676,3.74277021 C3.58273503,3.55499726 3.70467813,3.2746156 3.96569596,3.11720568 C4.28369257,2.92712954 4.55166622,2.77720995 4.92747281,2.63411103 L4.79010615,2.26150849 Z M7.52428307,1.63079493 C6.77379097,1.72120024 6.09311496,1.85260263 5.46918609,2.0345206 L5.61423352,2.42141838 C6.20920424,2.24794369 6.86281969,2.12176526 7.58707396,2.0345206 L7.52428307,1.63079493 Z M10.2830566,1.46440803 C9.49720552,1.47910046 8.84134909,1.50785095 8.21630261,1.56046499 L8.24974914,1.96207657 C8.86214436,1.91052747 9.50746802,1.8822387 10.2830566,1.86773814 L10.2830566,1.46440803 Z" id="形状结合"></path>
        </g>
    </g>
</svg>
