<?xml version="1.0" encoding="UTF-8"?>
<svg viewBox="0 0 24 24" version="1.1" xmlns="http://www.w3.org/2000/svg"
     xmlns:xlink="http://www.w3.org/1999/xlink">
    <title>icon/Tool/24px/环形路口/常态</title>
    <g id="icon/Tool/24px/环形路口/常态" stroke="none" stroke-width="1" fill="none" fill-rule="evenodd">
        <g id="编组" transform="translate(2.000000, 2.000000)" fill="currentColor" fill-rule="nonzero">
            <path d="M9.94782609,9.23705556e-14 C15.4418587,9.23705556e-14 19.8956522,4.45379344 19.8956522,9.94782609 C19.8956522,15.4418587 15.4418587,19.8956522 9.94782609,19.8956522 C4.45379348,19.8956522 -1.77635684e-15,15.4418587 -1.77635684e-15,9.94782609 C-1.77635684e-15,4.45379344 4.45379348,9.23705556e-14 9.94782609,9.23705556e-14 Z M12.6552228,17.1175573 C12.5905826,16.916378 12.3750934,16.8056911 12.1739141,16.8703313 C11.4837315,17.0920912 10.7602698,17.2097663 10.020824,17.2170328 C9.80952522,17.2191092 9.63991704,17.392084 9.64195608,17.6033827 C9.64406991,17.8146815 9.8170447,17.9842897 10.0283434,17.9822132 C10.8449531,17.9741884 11.6447812,17.844092 12.4079968,17.5988661 C12.6091761,17.5342259 12.719863,17.3187366 12.6552228,17.1175573 Z M5.36841661,15.593993 C5.20438591,15.4607811 4.96342322,15.4857649 4.83021139,15.6497957 C4.69699965,15.8138264 4.72198339,16.0547891 4.88601409,16.1880009 C5.5128447,16.6970591 6.21296217,17.1095973 6.96351974,17.4100214 C7.15969704,17.4885448 7.382386,17.3931676 7.46090948,17.1969903 C7.53943296,17.000813 7.44405565,16.7781239 7.24787835,16.6996004 C6.56907296,16.4278965 5.93567739,16.0546737 5.36841661,15.593993 Z M16.6882683,13.5935376 C16.5077595,13.483683 16.2723735,13.5409596 16.1625189,13.7214684 C15.782589,14.3457545 15.310133,14.9100682 14.7625689,15.3944881 C14.6043043,15.5345017 14.5895092,15.776304 14.7295229,15.9345684 C14.8695365,16.0928329 15.1113388,16.1076281 15.2696032,15.9676144 C15.8744685,15.4325011 16.3963823,14.8091139 16.8161991,14.119287 C16.9260537,13.9387783 16.8687772,13.7033922 16.6882683,13.5935376 Z M9.94782609,5.35652174 C7.4121187,5.35652174 5.35652174,7.4121187 5.35652174,9.94782609 C5.35652174,12.4835335 7.4121187,14.5391304 9.94782609,14.5391304 C12.4835335,14.5391304 14.5391304,12.4835335 14.5391304,9.94782609 C14.5391304,7.4121187 12.4835335,5.35652174 9.94782609,5.35652174 Z M2.42537986,10.9215008 L2.34810678,10.9274249 C2.14009861,10.9646281 2.00163391,11.1634111 2.03883713,11.3714193 C2.18180835,12.1707903 2.44472504,12.9388355 2.81685096,13.653535 C2.91443852,13.84096 3.14548678,13.9137877 3.33291191,13.8162003 C3.52033696,13.7186128 3.5931647,13.4875644 3.49557722,13.3001394 C3.15906704,12.6538431 2.9213767,11.9594903 2.7921013,11.2366945 C2.75489809,11.0286863 2.55611496,10.8902217 2.34810678,10.9274249 Z M17.5143239,8.31824058 L17.436973,8.32304339 C17.2284472,8.35722609 17.0871143,8.55398026 17.121297,8.762506 C17.1840767,9.14548287 17.2163587,9.53505957 17.217367,9.92878704 C17.2173897,10.2852538 17.1944125,10.622258 17.1479791,10.9568257 C17.1189308,11.1661285 17.2650558,11.3593503 17.4743586,11.3883987 C17.6836615,11.417447 17.8768832,11.271322 17.9059317,11.0620191 C17.957235,10.6923624 17.9826095,10.3201963 17.982583,9.92778148 C17.981469,9.49224757 17.9458112,9.06193261 17.8764357,8.63871948 C17.842253,8.43019365 17.6454989,8.28886061 17.436973,8.32304339 Z M3.491522,5.82073484 C3.30811739,5.71578618 3.07436087,5.7793873 2.96941226,5.9627919 C2.56886757,6.66276974 2.27551113,7.42008609 2.10103539,8.212378 C2.05559052,8.41874226 2.18604148,8.622874 2.39240583,8.66831878 C2.59877017,8.71376365 2.80290183,8.58331261 2.8483467,8.37694835 C3.00609609,7.6606107 3.27132504,6.97590704 3.63357904,6.34284462 C3.73852774,6.15944001 3.67492661,5.9256835 3.491522,5.82073484 Z M15.1457944,3.82072479 C14.9847228,3.68394983 14.7432703,3.70364621 14.6064954,3.86471788 C14.4697204,4.02578955 14.4894168,4.26724195 14.6504884,4.4040169 C15.2077532,4.87722156 15.6915698,5.43189978 16.0841617,6.0483372 C16.1976729,6.22656936 16.4341775,6.27903613 16.6124097,6.16552503 C16.7906417,6.05201392 16.8431085,5.81550928 16.7295975,5.63727713 C16.2958181,4.95616814 15.7613755,4.34344905 15.1457944,3.82072479 Z M7.72396452,2.61374535 C7.65262061,2.41484457 7.433544,2.31143928 7.23464322,2.38278317 C6.47317896,2.65591343 5.75868374,3.04295853 5.11402713,3.52917072 C4.94532226,3.65641115 4.91170861,3.89632224 5.03894904,4.06502715 C5.16618948,4.23373205 5.40610061,4.26734565 5.57480548,4.14010522 C6.15812148,3.70015725 6.80441913,3.35005511 7.49300235,3.10306661 C7.69190313,3.03172272 7.79530843,2.81264613 7.72396452,2.61374535 Z M9.94782609,1.91304348 C9.73651713,1.91304348 9.56521739,2.08434323 9.56521739,2.29565217 C9.56521739,2.50696112 9.73651713,2.67826087 9.94782609,2.67826087 C10.6878089,2.67826087 11.4124844,2.78871567 12.1047142,3.00347017 C12.306534,3.06608191 12.5208982,2.95323147 12.5835099,2.75141165 C12.6461217,2.54959183 12.5332712,2.33522769 12.3314514,2.27261594 C11.5660048,2.03514696 10.7649042,1.91304348 9.94782609,1.91304348 Z"
                  id="形状结合"></path>
        </g>
    </g>
</svg>
