<svg width="28" height="19" viewBox="0 0 28 19" fill="none" xmlns="http://www.w3.org/2000/svg">
<path fill-rule="evenodd" clip-rule="evenodd" d="M13.3366 1.94872L11.4008 3.86853C7.58531 7.65257 4.66802 12.146 2.83237 17.0513H24.3456C21.6366 12.4014 20.0701 7.2405 19.7606 1.94872H13.3366ZM26.731 17.0513C26.8445 17.232 26.9598 17.4118 27.077 17.5908L28 19H0L0.276668 18.1335C0.39247 17.7708 0.513796 17.4101 0.640583 17.0513C2.55422 11.6362 5.7118 6.67715 9.89513 2.52831L12.4444 0H21.7778C21.7778 6.00125 23.4902 11.8888 26.731 17.0513Z" fill="currentColor"/>
<path fill-rule="evenodd" clip-rule="evenodd" d="M18.6524 1.66095L18.6677 1.43115L19.7027 1.49193L19.6874 1.72173C19.3592 6.65584 20.0458 11.6032 21.7097 16.2932L22.2697 17.8716L21.2859 18.1797L20.7259 16.6013C19.0199 11.7925 18.3159 6.71998 18.6524 1.66095Z" fill="currentColor"/>
<path fill-rule="evenodd" clip-rule="evenodd" d="M14.9333 1.75385L13.5775 3.45236C10.4038 7.42815 8.07976 11.9438 6.73364 16.7499L6.20515 18.6368L5.20226 18.3888L5.73074 16.502C7.11095 11.5742 9.49387 6.94419 12.7479 2.86774L14.1037 1.16923L14.9333 1.75385Z" fill="currentColor"/>
<path fill-rule="evenodd" clip-rule="evenodd" d="M17.3248 1.61556L16.7603 3.53005L14.7413 3.08372L15.3058 1.16923L17.3248 1.61556ZM16.1304 5.49087L15.8126 6.75959C15.7475 7.01961 15.6853 7.28021 15.6261 7.54136L13.5976 7.13512C13.6599 6.86058 13.7252 6.58661 13.7937 6.31326L14.1114 5.04454L16.1304 5.49087ZM15.3058 9.11511C15.2109 9.64176 15.0919 10.4323 15.0207 10.9622L12.963 10.7179C13.0379 10.1608 13.1611 9.34322 13.2609 8.78958L15.3058 9.11511ZM14.8784 12.2937C14.8547 12.5597 14.834 12.8261 14.8163 13.0927L14.7413 14.2193L12.6713 14.0978L12.7462 12.9711C12.7649 12.6909 12.7867 12.4109 12.8116 12.1311L14.8784 12.2937ZM14.5914 16.4726L14.5165 17.5992L12.4465 17.4777L12.5214 16.351L14.5914 16.4726Z" fill="currentColor"/>
</svg>
