<?xml version="1.0" encoding="UTF-8"?>
<svg viewBox="0 0 24 24" version="1.1" xmlns="http://www.w3.org/2000/svg"
     xmlns:xlink="http://www.w3.org/1999/xlink">
    <title>icon/Tool/24px/交叉路口/常态</title>
    <g id="icon/Tool/24px/交叉路口/常态" stroke="none" stroke-width="1" fill="none" fill-rule="evenodd">
        <path d="M22,12 L16.5454545,12 L16.5454545,12.9090909 L22,12.9090909 L22,12 Z M2,8.36363636 L7.454,8.363 L7.45454545,2 L11.5454545,2 L11.5454545,8.36363636 L12.4545455,8.36363636 L12.4545455,2 L16.5454545,2 L16.545,8.363 L22,8.36363636 L22,16.5454545 L16.545,16.545 L16.5454545,22 L12.454,22 L12.4545455,16.5454545 L11.5454545,16.5454545 L11.545,22 L7.45454545,22 L7.454,16.545 L2,16.5454545 L2,12.9090909 L7.45454545,12.9090909 L7.45454545,12 L2,12 L2,8.36363636 Z"
              id="形状结合" fill="currentColor"></path>
    </g>
</svg>
