<?xml version="1.0" encoding="UTF-8"?>
<svg viewBox="0 0 24 24" version="1.1" xmlns="http://www.w3.org/2000/svg"
     xmlns:xlink="http://www.w3.org/1999/xlink">
    <title>icon/Tool/24px/曲线道路/常态</title>
    <g id="icon/Tool/24px/曲线道路/常态" stroke="none" stroke-width="1" fill="none" fill-rule="evenodd">
        <g id="道路规划" transform="translate(1.000000, 3.000000)" fill="currentColor" fill-rule="nonzero">
            <g id="蒙版">
                <path d="M20.9307164,0.348387097 L20.9297894,0.460387097 L20.2728869,0.526550934 C20.0715831,0.547474527 19.8723965,0.568540902 19.6753272,0.589750075 L19.7349597,1.15420281 L20.859001,1.03807857 L20.9297894,1.0303871 L20.9307164,1.66413576 C12.8538249,2.30922942 8.74326398,3.22543817 8.59903377,4.412762 L8.59510022,4.47779399 C8.59510022,6.30621825 19.7272407,9.49037395 19.7272407,12.5840183 C19.7272407,14.646448 18.5573271,16.310833 16.2174997,17.5771734 L16.2174997,17.5771734 L9.5397894,17.5763871 L9.53529972,17.5692625 L9.5217894,17.5763871 L0.644789404,17.5771734 C6.52939083,15.7076217 9.5356546,14.0741722 9.66358071,12.676825 L9.66784492,12.5840183 C9.66784492,10.4575093 2.79664321,7.94077588 2.79664321,4.47779399 C2.79664321,2.16913941 8.8413343,0.792670445 20.9307164,0.348387097 L20.9307164,0.348387097 Z M12.606351,15.1336615 C12.1555931,15.6154391 11.585484,16.1140123 10.8960236,16.6293811 L11.2562525,17.0813824 L11.7004363,16.7264597 C12.0286532,16.4641996 12.3272989,16.2053211 12.5964096,15.9496108 L13.0085787,15.5579657 L12.606351,15.1336615 Z M14.1480727,11.4103152 L13.5363414,11.6269173 C13.7569551,11.9534689 13.8831459,12.2731488 13.8831459,12.5840183 C13.8831459,12.9651807 13.7840677,13.3602858 13.5859115,13.7693335 L14.1852937,13.9361894 L14.3380743,13.3885331 C14.4135075,13.1181354 14.4517136,12.8496057 14.4517136,12.5840183 C14.4517136,12.3716975 14.412463,12.1588824 14.3374245,11.9464263 L14.1480727,11.4103152 Z M10.904509,8.58909012 L10.5709059,9.05327921 C11.2252181,9.51455362 11.8546815,9.97237085 12.3858819,10.4222513 L12.7429387,9.96713605 L12.295697,9.61607467 L11.9514442,9.35151612 C11.7711669,9.21564474 11.577604,9.07351541 11.3659872,8.92121521 L10.904509,8.58909012 Z M7.7653705,6.28973751 L7.41716679,6.72587566 C7.94579363,7.18377392 8.5716043,7.64568107 9.22231823,8.10718681 L9.55474586,7.65041725 L9.0948813,7.31606131 C8.75971654,7.07237136 8.46982656,6.85308321 8.20941466,6.64483469 L7.7653705,6.28973751 Z M6.59425041,3.4566463 C6.18469149,3.75252149 5.96129572,4.06095142 5.9240631,4.38193608 L5.91847825,4.47860812 C5.91847825,4.80613779 6.04391426,5.14021741 6.26330309,5.47892594 L6.72940391,5.31714131 L6.54291467,4.7800277 C6.50827349,4.6802565 6.49020718,4.58799538 6.48742699,4.50205203 C6.48741347,4.40099116 6.51990231,4.31488631 6.61096219,4.20320477 L6.97025353,3.76254728 L6.59425041,3.4566463 Z M10.2773364,2.06132336 C9.42606741,2.26866222 8.69948577,2.48440992 8.09759139,2.70856645 L8.2711924,3.23832775 L8.81168098,3.06185861 C9.13422744,2.95654742 9.48777833,2.85284221 9.87218705,2.75085723 L10.4217431,2.60505806 L10.2773364,2.06132336 Z M14.1068996,1.31477436 C13.3009427,1.44330013 12.5544814,1.57583823 11.8675157,1.71238868 L11.9721076,2.26806054 L12.5309789,2.16350383 C12.7675493,2.11924495 13.0107301,2.07540846 13.2605173,2.03199625 L14.2008933,1.87318105 L14.1068996,1.31477436 Z M18.0152237,0.777755534 C17.224637,0.872032385 16.4728021,0.968922634 15.759719,1.06842627 L15.8356729,1.63031622 L16.7668218,1.50632589 L18.0856826,1.34065555 L18.0152237,0.777755534 Z"
                      id="形状结合"></path>
            </g>
        </g>
    </g>
</svg>
