<?xml version="1.0" standalone="no"?><!DOCTYPE svg PUBLIC "-//W3C//DTD SVG 1.1//EN" "http://www.w3.org/Graphics/SVG/1.1/DTD/svg11.dtd"><svg t="1683705801745" class="icon" viewBox="0 0 1024 1024" version="1.1" xmlns="http://www.w3.org/2000/svg" p-id="54333" xmlns:xlink="http://www.w3.org/1999/xlink" width="20" height="20"><path d="M212.992 163.84A69.632 69.632 0 0 0 143.36 233.472v106.496A69.632 69.632 0 0 0 212.992 409.6h106.496c8.56064 0 16.75264-1.55648 24.33024-4.34176l295.44448 295.44448A69.4272 69.4272 0 0 0 634.88 724.992v106.496a69.632 69.632 0 0 0 69.632 69.632h106.496a69.632 69.632 0 0 0 69.632-69.632v-106.496a69.632 69.632 0 0 0-69.632-69.632h-106.496c-3.80928 0-7.5776 0.32768-11.22304 0.90112L388.21888 351.19104c0.57344-3.6864 0.90112-7.3728 0.90112-11.22304V233.472A69.632 69.632 0 0 0 319.488 163.84H212.992z m106.496 69.632v106.496H212.992V233.472h106.496z m491.52 491.52v106.496h-106.496v-106.496h106.496z" fill="currentColor" p-id="54334"></path></svg>