<svg xmlns="http://www.w3.org/2000/svg" width="25.051" height="19.377" viewBox="0 0 25.051 19.377">
    <g id="组_62" transform="translate(-470.082 -1051.666)">
        <g id="组_61" transform="translate(48.201 142.544)">
            <path id="减去_1"
                  d="M-276.482,3728.7h-9.249a9.578,9.578,0,0,1,1.187-6.185,5.806,5.806,0,0,1,2.361-2.333,4.185,4.185,0,0,1,.655-.168c.693-.138,1.291-.257,1.208-1.575-.1-1.609-.753-2.59-2.406-3.622a4.878,4.878,0,0,0-1.649-.759,13.436,13.436,0,0,1-1.749-.6.834.834,0,0,1-.592-.653c-.158-1.242,2.69-3.386,2.811-3.476h5.937c.238.6-1.954,2.326-2.509,2.722a.89.89,0,0,0-.272.93.754.754,0,0,0,.8.479l.089,0c.231-.012.5-.025.781-.025a14.109,14.109,0,0,1,4.18.785c2.068.614,2.814,2.763,3.307,4.185a5.069,5.069,0,0,0,.489,1.157.82.82,0,0,0,.718.328c.113,0,.23-.011.333-.022h.021c.106-.01.206-.021.3-.021.276,0,.542.073.618.6.314,4.687-.66,7.373-1.589,8.25h-4.3l-.074-1.053h-1.4l0,1.053Zm.051-4.39h0l-.057,2.234h1.4l-.039-2.234Zm.03-3.336h0l-.039,2.234h1.318l-.036-2.234Zm-.057-2.454,0,.012a5.02,5.02,0,0,1,.12.938,2.845,2.845,0,0,1-.048.661h1.224c-.011-.2-.012-.308-.013-.392a3.475,3.475,0,0,0-.025-.413c-.011-.108-.018-.193-.024-.268a4.245,4.245,0,0,0-.1-.666h0A6.039,6.039,0,0,0-276.458,3718.524Zm-1.18-2.333a.1.1,0,0,1,.017.017,7.723,7.723,0,0,1,.655.8,2.387,2.387,0,0,1,.37.927l.063-.014c.646-.138,1.017-.208,1.1-.208a3.028,3.028,0,0,0-.476-.9,4.274,4.274,0,0,0-.742-.784h0a3.02,3.02,0,0,0-.986.164Zm-2.143-1.627.017.006a4.777,4.777,0,0,1,.97.5,2.823,2.823,0,0,1,.671.656l.035-.009a7.378,7.378,0,0,1,.981-.205,1.632,1.632,0,0,0-.6-.559l-.006,0c-.056-.035-.122-.075-.2-.125a1.756,1.756,0,0,0-.6-.3c-.054-.016-.114-.033-.19-.057h0A6.735,6.735,0,0,0-279.781,3714.564Zm-2.907-.858h0a3.453,3.453,0,0,0,.676.2l.282.061a4.972,4.972,0,0,0,1.362.145h.954a8.47,8.47,0,0,1-1.551-.144c-.373-.106-.936-.261-.936-.261Zm-1.023-1.765h0a1.27,1.27,0,0,0-.37.686c-.046.252.212.426.4.553a1.109,1.109,0,0,1,.158.119c.146,0,.732-.037.773-.039l-.009,0c-.214-.125-.7-.444-.633-.693a1.99,1.99,0,0,1,.363-.62h-.682Zm1.609-1.8a2.908,2.908,0,0,0-.649.57c-.189.209-.774.917-.774.944h.7l0,0a5.448,5.448,0,0,1,.673-.822c.369-.356.725-.686.727-.688h-.681Z"
                  transform="translate(708.604 -2800.211)" fill="currentColor"/>
        </g>
        <path id="联合_33"
              d="M-195.562,3882.718a.891.891,0,0,1-.453-.184.892.892,0,0,1-.2-.219l-2.748-3.518a.892.892,0,0,1,.154-1.253.892.892,0,0,1,1.252.154l.839,1.074V3867.3l-.838,1.073a.892.892,0,0,1-1.253.154.892.892,0,0,1-.154-1.253l2.743-3.51a.891.891,0,0,1,.206-.228.892.892,0,0,1,.633-.185.889.889,0,0,1,.471.186.892.892,0,0,1,.2.219l2.748,3.518a.892.892,0,0,1-.154,1.253.894.894,0,0,1-1.253-.154l-.838-1.073v11.469l.838-1.073a.893.893,0,0,1,1.253-.153.891.891,0,0,1,.154,1.252l-2.743,3.511a.891.891,0,0,1-.206.228.889.889,0,0,1-.549.189A.9.9,0,0,1-195.562,3882.718Z"
              transform="translate(686.905 -2811.681)" fill="currentColor"/>
    </g>
</svg>
