<svg xmlns="http://www.w3.org/2000/svg" viewBox="0 0 17.701 18">
    <g id="组_237" transform="translate(-1324.649 -11889)">
        <g id="icon_Tool_24px_旋转_常态" transform="translate(1321.649 11886)">
            <path id="合并形状"
                  d="M12,3a8.972,8.972,0,0,1,6.394,2.667l1.665-1.5a.25.25,0,0,1,.417.176L20.7,10.2a.25.25,0,0,1-.24.259.245.245,0,0,1-.045,0l-5.8-.835a.25.25,0,0,1-.132-.433l1.675-1.508a6,6,0,1,0,.324,8.309l2.241,1.994A9,9,0,1,1,12,3Z"
                  fill="currentColor" fill-rule="evenodd"/>
        </g>
    </g>
</svg>
