<?xml version="1.0" encoding="UTF-8"?>
<svg width="24px" height="24px" viewBox="0 0 24 24" version="1.1" xmlns="http://www.w3.org/2000/svg" xmlns:xlink="http://www.w3.org/1999/xlink">
    <!-- Generator: Sketch 59.1 (86144) - https://sketch.com -->
    <title>icon/Tool/24px/缩放/减/常态</title>
    <desc>Created with Sketch.</desc>
    <g id="icon/Tool/24px/缩放/减/常态" stroke="none" stroke-width="1" fill="none" fill-rule="evenodd">
        <path d="M10,3 C13.8659932,3 17,6.13400675 17,10 C17,11.5719021 16.4818819,13.0227913 15.6071076,14.1912056 L20.0710678,18.6568542 C20.4615921,19.0473785 20.4615921,19.6805435 20.0710678,20.0710678 C19.6805435,20.4615921 19.0473785,20.4615921 18.6568542,20.0710678 L14.1922034,15.6063605 C13.0236173,16.4815869 11.5723496,17 10,17 C6.13400675,17 3,13.8659932 3,10 C3,6.13400675 6.13400675,3 10,3 Z M13.5,9 L6.5,9 C6.22385763,9 6,9.22385763 6,9.5 L6,9.5 L6,10.5 C6,10.7761424 6.22385763,11 6.5,11 L6.5,11 L13.5,11 C13.7761424,11 14,10.7761424 14,10.5 L14,10.5 L14,9.5 C14,9.22385763 13.7761424,9 13.5,9 L13.5,9 Z" id="形状结合" fill="currentColor"></path>
    </g>
</svg>
