<?xml version="1.0" encoding="UTF-8"?>
<svg width="24px" height="24px" viewBox="0 0 24 24" version="1.1" xmlns="http://www.w3.org/2000/svg" xmlns:xlink="http://www.w3.org/1999/xlink">
    <!-- Generator: Sketch 59.1 (86144) - https://sketch.com -->
    <title>icon/Tool/24px/视角/司机视角/常态</title>
    <desc>Created with Sketch.</desc>
    <g id="icon/Tool/24px/视角/司机视角/常态" stroke="none" stroke-width="1" fill="none" fill-rule="evenodd">
        <path d="M16.5,6 C16.7761424,6 17,6.22385763 17,6.5 L17,10.069 L21.1717305,6.43966493 C21.2399915,6.38025021 21.32264,6.3408522 21.4106023,6.32486661 L21.5,6.31681094 C21.7454599,6.31681094 21.9496084,6.4936861 21.9919443,6.72693531 L22,6.81681094 L22,17.1831456 C22,17.303808 21.9563656,17.4204003 21.877146,17.5114151 C21.715992,17.6965635 21.448545,17.7344256 21.2448118,17.6132221 L21.1717305,17.5602916 L17,13.93 L17,17.5 C17,17.7761424 16.7761424,18 16.5,18 L2.5,18 C2.22385763,18 2,17.7761424 2,17.5 L2,6.5 C2,6.22385763 2.22385763,6 2.5,6 L16.5,6 Z M9.78613281,8.4 L6.5,8.4 L6.5,15.5582031 L9.78613281,15.5582031 C10.180015,15.5582031 10.6194637,15.4930996 11.1044922,15.3628906 C11.4593117,15.2684891 11.7913396,15.0788751 12.1005859,14.794043 C12.4098323,14.5092108 12.6515291,14.1560242 12.8256836,13.7344727 C12.9998381,13.3129211 13.0869141,12.7196653 13.0869141,11.9546875 C13.0869141,11.4664038 13.0283209,11.0041688 12.9111328,10.5679688 C12.7939447,10.1317687 12.6051445,9.7492855 12.3447266,9.42050781 C12.0843086,9.09173013 11.754722,8.839454 11.355957,8.66367188 C10.957192,8.48788975 10.4339225,8.4 9.78613281,8.4 L9.78613281,8.4 Z M9.26367188,10.0210938 C9.83659141,10.0210938 10.2467436,10.1610663 10.4941406,10.4410156 C10.7415377,10.7209649 10.8652344,11.2401655 10.8652344,11.9986328 C10.8652344,12.5715523 10.8098964,12.9857735 10.6992188,13.2413086 C10.5885411,13.4968437 10.4355479,13.6758784 10.2402344,13.778418 C10.0449209,13.8809575 9.71614814,13.9322266 9.25390625,13.9322266 L9.25390625,13.9322266 L8.71191406,13.9322266 L8.71191406,10.0210938 Z" id="合并形状" fill="currentColor"></path>
    </g>
</svg>
