<?xml version="1.0" encoding="UTF-8"?>
<svg width="24px" height="24px" viewBox="0 0 24 24" version="1.1" xmlns="http://www.w3.org/2000/svg" xmlns:xlink="http://www.w3.org/1999/xlink">
    <title>icon/Tool/24px/视角/跟车视角/常态</title>
    <g id="icon/Tool/24px/视角/跟车视角/常态" stroke="none" stroke-width="1" fill="none" fill-rule="evenodd">
        <path d="M16.5,6 C16.7761424,6 17,6.22385763 17,6.5 L17,10.069 L21.1717305,6.43966493 C21.2399915,6.38025021 21.32264,6.3408522 21.4106023,6.32486661 L21.5,6.31681094 C21.7454599,6.31681094 21.9496084,6.4936861 21.9919443,6.72693531 L22,6.81681094 L22,17.1831456 C22,17.303808 21.9563656,17.4204003 21.877146,17.5114151 C21.715992,17.6965635 21.448545,17.7344256 21.2448118,17.6132221 L21.1717305,17.5602916 L17,13.93 L17,17.5 C17,17.7761424 16.7761424,18 16.5,18 L2.5,18 C2.22385763,18 2,17.7761424 2,17.5 L2,6.5 C2,6.22385763 2.22385763,6 2.5,6 L16.5,6 Z M12.8320313,8.12597656 L6.23976363,8.12597656 L6.23976363,16 L8.26025391,16 L8.26025391,12.7827148 L12.3110352,12.7827148 L12.3110352,11.1928711 L8.26025391,11.1928711 L8.26025391,9.81787109 L12.8320313,9.81787109 L12.8320313,8.12597656 Z" id="形状结合" fill="#DCDCDC"></path>
    </g>
</svg>