<?xml version="1.0" encoding="UTF-8"?>
<svg width="24px" height="24px" viewBox="0 0 24 24" version="1.1" xmlns="http://www.w3.org/2000/svg" xmlns:xlink="http://www.w3.org/1999/xlink">
    <!-- Generator: Sketch 59.1 (86144) - https://sketch.com -->
    <title>icon/Tool/24px/视角/右视图/常态</title>
    <desc>Created with Sketch.</desc>
    <g id="icon/Tool/24px/视角/右视图/常态" stroke="none" stroke-width="1" fill="none" fill-rule="evenodd">
        <path d="M16.5,6 C16.7761424,6 17,6.22385763 17,6.5 L17,10.069 L21.1717305,6.43966493 C21.2399915,6.38025021 21.32264,6.3408522 21.4106023,6.32486661 L21.5,6.31681094 C21.7454599,6.31681094 21.9496084,6.4936861 21.9919443,6.72693531 L22,6.81681094 L22,17.1831456 C22,17.303808 21.9563656,17.4204003 21.877146,17.5114151 C21.715992,17.6965635 21.448545,17.7344256 21.2448118,17.6132221 L21.1717305,17.5602916 L17,13.93 L17,17.5 C17,17.7761424 16.7761424,18 16.5,18 L2.5,18 C2.22385763,18 2,17.7761424 2,17.5 L2,6.5 C2,6.22385763 2.22385763,6 2.5,6 L16.5,6 Z M10.4482422,8.84179688 L6.76171875,8.84179688 L6.76171875,16 L8.98339844,16 L8.98339844,13.0947266 L9.17871094,13.0947266 C9.38053486,13.0947266 9.56119712,13.1500646 9.72070312,13.2607422 C9.83789121,13.345378 9.97135342,13.5292955 10.1210938,13.8125 L10.1210938,13.8125 L11.3027344,16 L13.8027344,16 L12.7333984,13.9248047 C12.6813148,13.8206375 12.577963,13.672527 12.4233398,13.4804688 C12.2687167,13.2884105 12.1507166,13.1630862 12.0693359,13.1044922 C11.9488926,13.0166011 11.7568373,12.9287114 11.4931641,12.8408203 C11.8219417,12.7659501 12.0807282,12.67155 12.2695312,12.5576172 C12.5657567,12.3785798 12.7985018,12.145021 12.9677734,11.8569336 C13.1370451,11.5688462 13.2216797,11.226239 13.2216797,10.8291016 C13.2216797,10.3733701 13.1110037,9.98681799 12.8896484,9.66943359 C12.6682932,9.35204919 12.3769549,9.13476621 12.015625,9.01757812 C11.6542951,8.90039004 11.1318394,8.84179688 10.4482422,8.84179688 L10.4482422,8.84179688 Z M9.95507812,10.2871094 C10.358726,10.2871094 10.6337883,10.3489577 10.7802734,10.4726562 C10.9267585,10.5963548 11,10.7737619 11,11.0048828 C11,11.1611336 10.9536137,11.2994786 10.8608398,11.4199219 C10.7680659,11.5403652 10.6484382,11.6152342 10.5019531,11.6445312 C10.2122381,11.7096357 10.0169276,11.7421875 9.91601562,11.7421875 L9.91601562,11.7421875 L8.98339844,11.7421875 L8.98339844,10.2871094 Z" id="合并形状" fill="currentColor"></path>
    </g>
</svg>
