<?xml version="1.0" encoding="UTF-8"?>
<svg width="24px" height="24px" viewBox="0 0 24 24" version="1.1" xmlns="http://www.w3.org/2000/svg" xmlns:xlink="http://www.w3.org/1999/xlink">
    <!-- Generator: Sketch 59.1 (86144) - https://sketch.com -->
    <title>icon/Tool/24px/视角/顶视图/常态</title>
    <desc>Created with Sketch.</desc>
    <g id="icon/Tool/24px/视角/顶视图/常态" stroke="none" stroke-width="1" fill="none" fill-rule="evenodd">
        <path d="M16.5,6 C16.7761424,6 17,6.22385763 17,6.5 L17,10.069 L21.1717305,6.43966493 C21.2399915,6.38025021 21.32264,6.3408522 21.4106023,6.32486661 L21.5,6.31681094 C21.7454599,6.31681094 21.9496084,6.4936861 21.9919443,6.72693531 L22,6.81681094 L22,17.1831456 C22,17.303808 21.9563656,17.4204003 21.877146,17.5114151 C21.715992,17.6965635 21.448545,17.7344256 21.2448118,17.6132221 L21.1717305,17.5602916 L17,13.93 L17,17.5 C17,17.7761424 16.7761424,18 16.5,18 L2.5,18 C2.22385763,18 2,17.7761424 2,17.5 L2,6.5 C2,6.22385763 2.22385763,6 2.5,6 L16.5,6 Z M12.953125,8.84179688 L6.22949219,8.84179688 L6.22949219,10.609375 L8.48535156,10.609375 L8.48535156,16 L10.6972656,16 L10.6972656,10.609375 L12.953125,10.609375 L12.953125,8.84179688 Z" id="合并形状" fill="currentColor"></path>
    </g>
</svg>
