<?xml version="1.0" encoding="UTF-8"?>
<svg width="10px" height="12px" viewBox="0 0 10 12" version="1.1" xmlns="http://www.w3.org/2000/svg" xmlns:xlink="http://www.w3.org/1999/xlink">
    <title>icon/12px/导出/常态</title>
    <g id="Page-1" stroke="none" stroke-width="1" fill="none" fill-rule="evenodd">
        <g id="评测报告管理" transform="translate(-527.000000, -82.000000)" fill="#B9B9B9" fill-rule="nonzero">
            <g id="icon/12px/对比/常态" transform="translate(526.000000, 82.000000)">
                <path d="M6.71156593,0 L6.71156593,12 L5.71156593,12 L5.71156593,0 L6.71156593,0 Z M4.80771062,1.48072346 L4.80771062,2.43265112 L1.95192765,2.43265112 L1.95192765,9.09614469 L4.80771062,9.09614469 L4.80771062,10.0480723 L1,10.0480723 L1,1.48072346 L4.80771062,1.48072346 Z M8.1394574,9.09614469 L8.1394574,10.0480723 L7.18752975,10.0480723 L7.18752975,9.09614469 L8.1394574,9.09614469 Z M9.56734888,9.09614469 L9.56734888,10.0480723 L8.61542123,10.0480723 L8.61542123,9.09614469 L9.56734888,9.09614469 Z M10.9952404,9.09614469 L10.9952404,10.0480723 L10.0433127,10.0480723 L10.0433127,9.09614469 L10.9952404,9.09614469 Z M10.9952404,7.19228939 L10.9952404,8.14421704 L10.0433127,8.14421704 L10.0433127,7.19228939 L10.9952404,7.19228939 Z M10.9952404,5.76439791 L10.9952404,6.71632556 L10.0433127,6.71632556 L10.0433127,5.76439791 L10.9952404,5.76439791 Z M10.9952404,4.33650642 L10.9952404,5.28843407 L10.0433127,5.28843407 L10.0433127,4.33650642 L10.9952404,4.33650642 Z M10.9952404,2.90861495 L10.9952404,3.8605426 L10.0433127,3.8605426 L10.0433127,2.90861495 L10.9952404,2.90861495 Z M10.9952404,1.48072346 L10.9952404,2.43265112 L10.0433127,2.43265112 L10.0433127,1.48072346 L10.9952404,1.48072346 Z M9.56734888,1.48072346 L9.56734888,2.43265112 L8.61542123,2.43265112 L8.61542123,1.48072346 L9.56734888,1.48072346 Z M8.1394574,1.48072346 L8.1394574,2.43265112 L7.18752975,2.43265112 L7.18752975,1.48072346 L8.1394574,1.48072346 Z" id="形状结合" fill="currentColor"></path>
            </g>
        </g>
    </g>
</svg>