<?xml version="1.0" encoding="UTF-8"?>
<svg width="12px" height="12px" viewBox="0 0 12 12" version="1.1" xmlns="http://www.w3.org/2000/svg" xmlns:xlink="http://www.w3.org/1999/xlink">
    <!-- Generator: Sketch 59.1 (86144) - https://sketch.com -->
    <title>icon/12px/播放/常态</title>
    <desc>Created with Sketch.</desc>
    <g id="icon/12px/播放/常态" stroke="none" stroke-width="1" fill="none" fill-rule="evenodd">
        <path d="M6,0 C9.3137085,0 12,2.6862915 12,6 C12,9.3137085 9.3137085,12 6,12 C2.6862915,12 0,9.3137085 0,6 C0,2.6862915 2.6862915,0 6,0 Z M6,1 C3.23857625,1 1,3.23857625 1,6 C1,8.76142375 3.23857625,11 6,11 C8.76142375,11 11,8.76142375 11,6 C11,3.23857625 8.76142375,1 6,1 Z M4.02350634,3.06304498 C4.06972391,2.98726713 4.16862073,2.96330378 4.24439859,3.00952134 L4.24439859,3.00952134 L8.92259347,5.86279248 C8.94444148,5.87611777 8.96279153,5.89446777 8.97611688,5.91631575 C9.02233465,5.99209347 8.99837157,6.09099037 8.92259385,6.13720814 L8.92259385,6.13720814 L4.24439896,8.99049697 C4.21919279,9.00587053 4.19023881,9.01400355 4.16071429,9.01400355 C4.07195424,9.01400355 4,8.94204931 4,8.85328926 L4,8.85328926 L4,3.14672928 C4,3.11720491 4.00813294,3.08825107 4.02350634,3.06304498 Z" id="合并形状" fill="currentColor"></path>
    </g>
</svg>
