<?xml version="1.0" encoding="UTF-8"?>
<svg width="12px" height="12px" viewBox="0 0 12 12" version="1.1" xmlns="http://www.w3.org/2000/svg" xmlns:xlink="http://www.w3.org/1999/xlink">
    <title>合并形状</title>
    <g id="二期" stroke="none" stroke-width="1" fill="none" fill-rule="evenodd">
        <g id="场景库列表折叠-播放中" transform="translate(-207.000000, -154.000000)" fill="#16D1F3">
            <path d="M213,165 C215.761424,165 218,162.761424 218,160 C218,157.238576 215.761424,155 213,155 C210.238576,155 208,157.238576 208,160 C208,162.761424 210.238576,165 213,165 Z M213,166 C209.686292,166 207,163.313708 207,160 C207,156.686292 209.686292,154 213,154 C216.313708,154 219,156.686292 219,160 C219,163.313708 216.313708,166 213,166 Z M212.177083,158 C212.263378,158 212.333333,158.069956 212.333333,158.15625 L212.333333,162.34375 C212.333333,162.430044 212.263378,162.5 212.177083,162.5 L211.15625,162.5 C211.069956,162.5 211,162.430044 211,162.34375 L211,158.15625 C211,158.069956 211.069956,158 211.15625,158 L212.177083,158 Z M214.84375,158 C214.930044,158 215,158.069956 215,158.15625 L215,162.34375 C215,162.430044 214.930044,162.5 214.84375,162.5 L213.822917,162.5 C213.736622,162.5 213.666667,162.430044 213.666667,162.34375 L213.666667,158.15625 C213.666667,158.069956 213.736622,158 213.822917,158 L214.84375,158 Z" id="合并形状"></path>
        </g>
    </g>
</svg>