<?xml version="1.0" encoding="UTF-8"?>
<svg width="12px" height="12px" viewBox="0 0 12 12" version="1.1" xmlns="http://www.w3.org/2000/svg" xmlns:xlink="http://www.w3.org/1999/xlink">
    <!-- Generator: Sketch 59.1 (86144) - https://sketch.com -->
    <title>icon/12px/终点/常态</title>
    <desc>Created with Sketch.</desc>
    <g id="icon/12px/终点/常态" stroke="none" stroke-width="1" fill="none" fill-rule="evenodd">
        <path d="M6,1.0125234e-13 C8.48528137,1.0125234e-13 10.5,1.98372295 10.5,4.43076923 C10.5,4.81606161 10.4500528,5.18986767 10.356186,5.54625267 C10.0213228,6.8176303 8.56926079,8.96887941 6,12 C3.42987316,8.96818628 1.97762595,6.81623324 1.64325837,5.54414086 C1.54975007,5.18839107 1.5,4.81530064 1.5,4.43076923 C1.5,1.98372295 3.51471863,1.0125234e-13 6,1.0125234e-13 Z M6,2.76923077 C5.06801948,2.76923077 4.3125,3.51312688 4.3125,4.43076923 C4.3125,5.34841158 5.06801948,6.09230769 6,6.09230769 C6.93198052,6.09230769 7.6875,5.34841158 7.6875,4.43076923 C7.6875,3.51312688 6.93198052,2.76923077 6,2.76923077 Z" id="合并形状" fill="currentColor"></path>
    </g>
</svg>
