<?xml version="1.0" encoding="UTF-8"?>
<svg width="80px" height="80px" viewBox="0 0 80 80" version="1.1" xmlns="http://www.w3.org/2000/svg" xmlns:xlink="http://www.w3.org/1999/xlink">
    <!-- Generator: Sketch 59.1 (86144) - https://sketch.com -->
    <title>库/地图4</title>
    <desc>Created with Sketch.</desc>
    <g id="库/地图4" stroke="none" stroke-width="1" fill="none" fill-rule="evenodd">
        <rect id="矩形" fill="#242424" fill-rule="nonzero" x="0" y="0" width="80" height="80"></rect>
        <path d="M26.4529654,63.955015 L25.5470346,63.5315891 L25.795,63 L12,63 L12,62 L19.5,62 L19.5,54.3481315 L19.5459086,54.1388445 L23.7316608,45.056988 L23.731,36 L12,36 L12,35 L23.731,35 L23.7316608,29.4944764 L23.7760091,29.2886086 L26.1870257,23.952255 L26.1870257,14 L27.1870257,14 L27.187,23.522 L29,23.522 L29,19.12 L27.5,19.120856 L27.5,16.7928932 L29.7928932,14.5 L36.4499393,14.5 L36.4499393,18.120856 L44,18.12 L44,12 L45,12 L45,18.12 L48.0984229,18.120856 L48.0984229,19.120856 L45,19.12 L45,22.5 L48.3933989,22.5 L50.7320928,25.2777778 L52.8495852,25.2777778 L52.849,35 L68,35 L68,36 L52.849,36 L52.849,38.5 L58.1753132,38.5 L61.9654871,40.3895908 L61.519312,41.2845365 L57.9398579,39.5 L52.849,39.5 L52.849,44.5 L65.980799,44.5 L65.980799,45.5 L52.849,45.5 L52.849,53.5 L58.8000985,53.5 L58.8000985,54.5 L52.849,54.5 L52.849,58 L55.7768364,58 L55.7768364,59 L52.849,59 L52.849,62 L68,62 L68,63 L45,63 L45,67.4825125 L44,67.4825125 L44,63 L26.898,63 L26.4529654,63.955015 Z M20.5,55.599 L20.5,62 L26.263,62 L28.379,57.471 L26.0184827,57.4710278 L25.855669,57.4437769 L20.5,55.599 Z M44,54.571 L40.5559566,57.4710278 L36.387,57.471 L34.791,62 L44,62 L44,54.571 Z M51.849,59 L45,59 L45,62 L51.849,62 L51.849,59 Z M27.366,62 L33.731,62 L35.327,57.471 L29.483,57.471 L27.366,62 Z M51.849,54.5 L45,54.5 L45,58 L51.849,58 L51.849,54.5 Z M42.791,36 L24.731,36 L24.7316608,45.1666667 L24.6857521,45.3759536 L20.5,54.4578101 L20.5,54.541 L26.1021701,56.4710278 L28.846,56.471 L30.6568063,52.5991009 L39.916,45.369 L39.483,44.255 L39.0930725,44.3296325 L38.9069275,43.3471102 L39.114,43.308 L38.4305843,41.550078 L40.041,39.5 L40,39.5 L40,38.5 L40.827,38.5 L42.791,36 Z M44,50.5 L43.4963198,50.5 L39.2965748,53.3500745 L37.0188072,55.6817222 L36.74,56.471 L40.1910377,56.4710278 L43.7197513,53.5 L44,53.5 L44,50.5 Z M40.295,46.342 L31.4612056,53.2397561 L29.95,56.471 L35.68,56.471 L36.1123841,55.2451454 L36.2262927,55.0619457 L38.6164575,52.615242 L38.6933518,52.5509122 L42.312,50.095 L41.8283211,50.2838726 L40.295,46.342 Z M51.849,50.5 L45,50.5 L45,53.5 L51.849,53.5 L51.849,50.5 Z M44,45.5 L41.3745266,45.5 L41.118,45.7 L42.72,49.818 L43.1890426,49.5 L44,49.5 L44,45.5 Z M51.849,45.5 L45,45.5 L45,49.5 L51.849,49.5 L51.849,45.5 Z M23.7775694,44.9573797 L23.7316608,45.056988 L23.7316608,45.1666667 L23.7775694,44.9573797 Z M42.6651004,43.6528898 L40.482,44.066 L40.739,44.727 L41.0303875,44.5 L44,44.5 L44,43.653 L42.6651004,43.6528898 Z M45,43.654 L45,44.5 L51.849,44.5 L51.849,43.661 L45,43.654 Z M44,39.5 L41.312,39.5 L39.5694157,41.7192744 L40.114,43.121 L42.5720279,42.6616286 L44,42.661 L44,39.5 Z M51.849,39.5 L45,39.5 L45,42.661 L51.849,42.661 L51.849,39.5 Z M44,36.079 L42.098,38.5 L44,38.5 L44,36.079 Z M51.849,36 L45,36 L45,38.5 L51.849,38.5 L51.849,36 Z M29,24.522 L27.026,24.522 L24.7316608,29.6021872 L24.731,35 L29,35 L29,24.522 Z M34,24.522 L30,24.522 L30,35 L34,35 L34,24.522 Z M39,24.522 L35,24.522 L35,35 L39,35 L39,24.522 Z M44,23.5 L43.3554123,23.5 L40.338214,24.496942 L40.1813455,24.522187 L40,24.522 L40,35 L43.577,35 L43.8201327,34.6910774 L44,34.832 L44,23.5 Z M47.9281004,23.5 L45,23.5 L45,35 L51.849,35 L51.8495852,26.2777778 L50.2667943,26.2777778 L47.9281004,23.5 Z M34,19.12 L30,19.12 L30,23.522 L34,23.522 L34,19.12 Z M39,19.12 L35,19.12 L35,23.522 L39,23.522 L39,19.12 Z M44,19.12 L40,19.12 L40,23.522 L40.10088,23.522187 L43.1180783,22.525245 L43.2749467,22.5 L44,22.5 L44,19.12 Z M35.4499393,15.5 L30.2071068,15.5 L28.5,17.2071068 L28.5,18.120856 L35.4499393,18.120856 L35.4499393,15.5 Z" id="合并形状" fill="#808080" fill-rule="nonzero"></path>
    </g>
</svg>