<?xml version="1.0" encoding="UTF-8"?>
<svg width="12px" height="12px" viewBox="0 0 12 12" version="1.1" xmlns="http://www.w3.org/2000/svg" xmlns:xlink="http://www.w3.org/1999/xlink">
    <!-- Generator: Sketch 59.1 (86144) - https://sketch.com -->
    <title>icon/12px/删除/常态备份</title>
    <desc>Created with Sketch.</desc>
    <g id="icon/12px/删除/常态备份" stroke="none" stroke-width="1" fill="none" fill-rule="evenodd">
        <path d="M3.00227356,4 L3.00227356,10 L9,10 L9,4 L10,4 L10,10.75 C10,10.8880712 9.86941639,11 9.70833333,11 L2.29394023,11 C2.13285717,11 2.00227356,10.8880712 2.00227356,10.75 L2.00227356,4 L3.00227356,4 Z M5.33484904,4 L5.33484904,9 L4.33484904,9 L4.33484904,4 L5.33484904,4 Z M7.66742452,4 L7.66742452,9 L6.66742452,9 L6.66742452,4 L7.66742452,4 Z M4.5,1.25 C4.5,1.11192881 4.61192881,1 4.75,1 L7.25,1 C7.38807119,1 7.5,1.11192881 7.5,1.25 L7.5,2 L10.75,2 C10.8880712,2 11,2.11192881 11,2.25 L11,2.75 C11,2.88807119 10.8880712,3 10.75,3 L1.25,3 C1.11192881,3 1,2.88807119 1,2.75 L1,2.25 C1,2.11192881 1.11192881,2 1.25,2 L4.5,2 L4.5,1.25 Z" id="合并形状" fill="currentColor"></path>
    </g>
</svg>
