<?xml version="1.0" encoding="UTF-8"?>
<svg width="10px" height="10px" viewBox="0 0 10 10" version="1.1" xmlns="http://www.w3.org/2000/svg" xmlns:xlink="http://www.w3.org/1999/xlink">
    <title>jinyong</title>
    <g id="界面" stroke="none" stroke-width="1" fill="none" fill-rule="evenodd">
        <g id="TAD-SIM-选灯" transform="translate(-1290.000000, -257.000000)" fill="#B9B9B9" fill-rule="nonzero">
            <g id="jinyong" transform="translate(1290.000000, 257.000000)">
                <path d="M5,0 C2.23857625,0 0,2.23857625 0,5 C0,7.76142375 2.23857625,10 5,10 C7.76142375,10 10,7.76142375 10,5 C10,3.67391755 9.4732158,2.40214799 8.53553391,1.46446609 C7.59785201,0.526784202 6.32608245,0 5,0 Z M9.00000889,4.99999111 C9.00188387,5.88845743 8.7041859,6.75160541 8.155,7.45 L2.55,1.845 C3.24839459,1.2958141 4.11154257,0.998116126 5,0.999991114 C6.06086596,0.999991114 7.07828161,1.42142736 7.82842712,2.17157288 C8.57857264,2.92171839 9.00000889,3.93913404 9.00000889,4.99999111 Z M0.999991114,5 C0.998116126,4.11154257 1.2958141,3.24839459 1.845,2.55 L7.45,8.155 C6.75160541,8.7041859 5.88845743,9.00188387 4.99999111,9.00000889 C2.790861,9.00000889 0.999991114,7.209139 0.999991114,5 Z" id="形状"></path>
            </g>
        </g>
    </g>
</svg>