<?xml version="1.0" encoding="UTF-8"?>
<svg width="12px" height="12px" viewBox="0 0 12 12" version="1.1" xmlns="http://www.w3.org/2000/svg" xmlns:xlink="http://www.w3.org/1999/xlink">
    <!-- Generator: Sketch 59.1 (86144) - https://sketch.com -->
    <title>icon/12px/文件夹/常态</title>
    <desc>Created with Sketch.</desc>
    <g id="icon/12px/文件夹/常态" stroke="none" stroke-width="1" fill="none" fill-rule="evenodd">
        <g id="icon/文件夹-copy-3" transform="translate(0.000000, 1.000000)" fill="currentColor">
            <path d="M5.68042115,2.00141907 L11.4666667,2.00141907 C11.7612185,2.00141907 12,2.24020053 12,2.5347524 L12,9.46666667 C12,9.76121853 11.7612185,10 11.4666667,10 L0.533333333,10 C0.238781467,10 -5.89825421e-13,9.76121853 -5.89750471e-13,9.46666667 L0,2 L5.67114664,2.00126081 C5.67422519,2.00136603 5.67731698,2.00141907 5.68042115,2.00141907 Z M-5.89750471e-13,0.533333333 C-5.89897565e-13,0.238781467 0.238781467,-3.18912967e-13 0.533333333,-3.18856053e-13 L4.88042115,-3.18856053e-13 C5.17497302,-3.46443692e-13 5.41375449,0.238781467 5.41375449,0.533333333 L5.413,1 L0,1 L-5.89750471e-13,0.533333333 Z" id="Combined-Shape"></path>
        </g>
    </g>
</svg>
