<?xml version="1.0" encoding="UTF-8"?>
<svg width="14px" height="12px" viewBox="0 0 14 12" version="1.1" xmlns="http://www.w3.org/2000/svg" xmlns:xlink="http://www.w3.org/1999/xlink">
    <title>changjing</title>
    <g id="环境传感器配置" stroke="none" stroke-width="1" fill="none" fill-rule="evenodd">
        <g id="场景元素" transform="translate(-20.000000, -36.000000)" fill="currentColor" fill-rule="nonzero">
            <g id="changjing" transform="translate(20.000000, 36.000000)">
                <path d="M0.232566964,5.26891071 L13.7142857,5.26891071 L13.7142857,11.9653393 L0.232566964,11.9653393 L0.232566964,5.26891071 Z M5.20678125,5.00105357 L3.86749554,3.66175446 L2.34433929,3.66175446 L3.683625,5.00105357 L5.20678125,5.00105357 Z M8.25306696,5.00105357 L6.91378125,3.66175446 L5.390625,3.66175446 L6.72991071,5.00105357 L8.25306696,5.00105357 Z M11.2993661,5.00105357 L9.96008036,3.66175446 L8.43692411,3.66175446 L9.77620982,5.00105357 L11.2993661,5.00105357 Z M11.4832232,3.66175446 L12.8225089,5.00105357 L13.7142857,5.00105357 L13.7142857,3.66175446 L11.4832232,3.66175446 Z M2.16048214,5.00105357 L0.821196429,3.66175446 L0.232566964,3.66175446 L0.232566964,5.00105357 L2.16048214,5.00105357 Z M11.1624509,0.374584821 L9.66245089,0.639080357 L8.5760625,2.19057589 L10.0760893,1.92608036 L11.1624509,0.374584821 Z M8.16245089,0.9035625 L6.66245089,1.16805804 L5.57608929,2.71956696 L7.0760625,2.45507143 L8.16245089,0.9035625 Z M5.16245089,1.43255357 L3.66242411,1.69703571 L2.57604911,3.24854464 L4.0760625,2.98404911 L5.16245089,1.43255357 Z" id="形状"></path>
                <path d="M1.07603571,3.51304018 L2.16241071,1.96153125 L0,2.34282589 L0.232566964,3.66175446 L1.07603571,3.51304018 Z M13.2421607,0.007875 L12.6624509,0.110089286 L11.5760893,1.66158482 L13.4747009,1.32680357 L13.2421607,0.007875 Z" id="形状"></path>
            </g>
        </g>
    </g>
</svg>
