<?xml version="1.0" encoding="UTF-8"?>
<svg width="24px" height="24px" viewBox="0 0 24 24" version="1.1" xmlns="http://www.w3.org/2000/svg" xmlns:xlink="http://www.w3.org/1999/xlink">
    <!-- Generator: Sketch 59.1 (86144) - https://sketch.com -->
    <title>icon/Tool/24px/新建/常态</title>
    <desc>Created with Sketch.</desc>
    <g id="icon/Tool/24px/新建/常态" stroke="none" stroke-width="1" fill="none" fill-rule="evenodd">
        <path d="M16.8284199,2 C17.0377789,2 17.2387956,2.08207038 17.3883307,2.22859833 L20.7599108,5.53237617 C20.9134681,5.68284538 21,5.88878759 21,6.10377784 L21,21.2 C21,21.6418278 20.6418278,22 20.2,22 L3.8,22 C3.3581722,22 3,21.6418278 3,21.2 L3,2.8 C3,2.3581722 3.3581722,2 3.8,2 L16.8284199,2 Z M13,8 L11,8 L11,12 L7,12 L7,14 L11,14 L11,18 L13,18 L13,14 L17,14 L17,12 L13,12 L13,8 Z" id="Combined-Shape" fill="currentColor"></path>
    </g>
</svg>
