<?xml version="1.0" encoding="UTF-8"?>
<svg width="1em" height="1em" viewBox="0 0 24 24" version="1.1" xmlns="http://www.w3.org/2000/svg" xmlns:xlink="http://www.w3.org/1999/xlink">
    <!-- Generator: Sketch 59.1 (86144) - https://sketch.com -->
    <title>icon/Tool/24px/打开/常态</title>
    <desc>Created with Sketch.</desc>
    <g id="icon/Tool/24px/打开/常态" stroke="none" stroke-width="1" fill="none" fill-rule="evenodd">
        <path d="M20.8591648,11 C21.3009926,11 21.6591648,11.3581722 21.6591648,11.8 C21.6591648,11.8923781 21.643165,11.9840582 21.6118747,12.0709756 L18.5878747,20.4709756 C18.4736084,20.7883822 18.1725129,21 17.8351648,21 L5.13568708,21 C4.69385928,21 4.33568708,20.6418278 4.33568708,20.2 C4.33568708,20.1076219 4.3516869,20.0159418 4.38297715,19.9290244 L7.40697715,11.5290244 C7.52124353,11.2116178 7.82233896,11 8.15968708,11 L20.8591648,11 Z M7.29073129,3 C7.68346711,3 8.0018424,3.31837529 8.0018424,3.71111111 L8.0018424,5.55731753 C8.0018424,5.80277742 8.20082695,6.00176197 8.44628684,6.00176197 L18.2888889,6.00176197 C18.6816247,6.00176197 19,6.32013726 19,6.71287308 L18.999,8.999 L6.64860265,9 C6.3044427,9 5.99499501,9.19810082 5.84822681,9.50212976 L5.80550478,9.60726957 L2.668,18.996 L2.61461755,18.9935084 C2.26752368,18.9464211 2,18.6488967 2,18.2888889 L2,3.71111111 C2,3.31837529 2.31837529,3 2.71111111,3 L7.29073129,3 Z" id="Combined-Shape" fill="currentColor"></path>
    </g>
</svg>
