<?xml version="1.0" encoding="UTF-8"?>
<svg width="9" height="8" viewBox="0 0 9 8" fill="none" xmlns="http://www.w3.org/2000/svg">
    <path fill-rule="evenodd" clip-rule="evenodd" d="M2.6789 7.52017H1.34719C0.3862 7.52017 0.393425 7.1867 0.413543 6.25818C0.416746 6.11033 0.420276 5.94739 0.420276 5.7683V2.41691C0.420276 1.35785 0.420276 0.939022 0.625061 0.773391C0.759025 0.665039 0.980625 0.665039 1.34719 0.665039H7.11018C7.47674 0.665039 7.69834 0.665039 7.8323 0.773391C8.03709 0.939022 8.03709 1.35784 8.03709 2.4169V2.41691V4.10861C8.0371 4.11175 8.03711 4.11489 8.03711 4.11803V6.3523C8.03711 6.39316 8.03588 6.43344 8.03346 6.47306C8.01605 7.41276 7.91513 7.50915 7.33029 7.51904C7.31879 7.51982 7.30722 7.52021 7.29558 7.52021H2.68519C2.68309 7.52021 2.681 7.5202 2.6789 7.52017ZM7.27547 2.95012V1.74657C7.27547 1.5333 7.23457 1.42666 7.15278 1.42666H1.30471C1.22291 1.42666 1.18202 1.5333 1.18202 1.74657V6.43852C1.18202 6.65179 1.22291 6.75843 1.30471 6.75843H1.98725C1.95897 6.63274 1.94366 6.49613 1.94366 6.3523V4.11803C1.94366 3.45791 1.94366 2.95012 2.68519 2.95012H7.27547ZM7.27539 6.45418V3.89478C7.27539 3.77292 7.24472 3.71199 7.18338 3.71199H2.79731C2.73597 3.71199 2.7053 3.77292 2.7053 3.89478V6.57581C2.7053 6.69388 2.73409 6.75476 2.79168 6.75843H7.15278C7.23255 6.75843 7.27342 6.65701 7.27539 6.45418Z" fill="currentColor"/>
</svg>

