<?xml version="1.0" encoding="UTF-8"?>
<svg width="8" height="8" viewBox="0 0 8 8" fill="none" xmlns="http://www.w3.org/2000/svg">
    <path fill-rule="evenodd" clip-rule="evenodd" d="M6.69504 3.59788H1.42397C0.944779 3.59788 0.576172 3.27196 0.576172 2.84825V1.41418C0.576172 0.990477 0.944779 0.664551 1.42397 0.664551H6.69504C7.17423 0.664551 7.54284 0.990477 7.54284 1.41418V2.84825C7.54284 3.27196 7.17423 3.59788 6.69504 3.59788ZM1.42394 1.36306C1.35022 1.36306 1.31335 1.39239 1.31335 1.45106V2.74173C1.31335 2.80039 1.35022 2.82973 1.42394 2.82973H6.69501C6.76873 2.82973 6.8056 2.80039 6.8056 2.74173V1.45106C6.8056 1.39239 6.76873 1.36306 6.69501 1.36306H1.42394ZM6.69504 7.26453H1.42397C0.944779 7.26453 0.576172 6.93861 0.576172 6.51491V5.08083C0.576172 4.65713 0.944779 4.3312 1.42397 4.3312H6.69504C7.17423 4.3312 7.54284 4.65713 7.54284 5.08083V6.51491C7.54284 6.93861 7.17423 7.26453 6.69504 7.26453ZM1.42394 5.02971C1.35022 5.02971 1.31335 5.05905 1.31335 5.11771V6.40838C1.31335 6.46705 1.35022 6.49638 1.42394 6.49638H6.69501C6.76873 6.49638 6.8056 6.46705 6.8056 6.40838V5.11771C6.8056 5.05905 6.76873 5.02971 6.69501 5.02971H1.42394Z" fill="currentColor"/>
</svg>
