<?xml version="1.0" encoding="UTF-8"?>
<svg width="24px" height="24px" viewBox="0 0 24 24" version="1.1" xmlns="http://www.w3.org/2000/svg" xmlns:xlink="http://www.w3.org/1999/xlink">
    <!-- Generator: Sketch 59.1 (86144) - https://sketch.com -->
    <title>icon/Tool/24px/返回车主/常态</title>
    <desc>Created with Sketch.</desc>
    <g id="icon/Tool/24px/返回车主/常态" stroke="none" stroke-width="1" fill="none" fill-rule="evenodd">
        <path d="M13,2 L13.0009551,4.06201291 C16.6192382,4.51364811 19.486924,7.38162677 19.9381123,11.0000487 L22,11 L22,13 L19.9379871,13.0009551 C19.4863937,16.6189036 16.6189036,19.4863937 13.0009551,19.9379871 L13,22 L11,22 L11.0000487,19.9381123 C7.38162677,19.486924 4.51364811,16.6192382 4.06201291,13.0009551 L2,13 L2,11 L4.06188768,11.0000487 C4.5131177,7.38129217 7.38129217,4.5131177 11.0000487,4.06188768 L11,2 L13,2 Z M12,6 C8.6862915,6 6,8.6862915 6,12 C6,15.3137085 8.6862915,18 12,18 C15.3137085,18 18,15.3137085 18,12 C18,8.6862915 15.3137085,6 12,6 Z M12,8 C14.209139,8 16,9.790861 16,12 C16,14.209139 14.209139,16 12,16 C9.790861,16 8,14.209139 8,12 C8,9.790861 9.790861,8 12,8 Z" id="合并形状" fill="currentColor"></path>
    </g>
</svg>
