<svg class="icon" viewBox="0 0 24 24" width="24px" height="24px" version="1.1" xmlns="http://www.w3.org/2000/svg">
    <path fill="currentColor" d="M6.75019907,20 C4.1262335,20 2,18.1519285 2,15.8740231 C2,13.5953906 4.12625392,12.2388019 6.75019907,12.2388019 C7.25487301,12.2388019 7.75542266,12.3089601 8.23479962,12.4480172 C9.27091453,10.3126272 11.6828876,8.92916728 14.3503012,8.93761954 C18.0166089,8.93761954 21,11.0382358 21,14.2228237 C21,17.4086884 18.0166293,20 14.3503012,20 L6.75019907,20 Z M5.48627584,10.4571884 C4.55156634,10.5589841 4.42272173,10.5512433 4.37134654,10.0970023 C4.03328436,7.10797794 6.23205172,5.00813926 9.21179338,5.14537199 C10.7624877,5.21678959 11.8410922,5.93203285 12.4476069,7.29110178 C11.1338958,7.35295541 10.0552912,7.67543896 9.21179338,8.25855243 C8.36829551,8.8416659 7.72494546,9.57454457 7.28174325,10.4571884 C6.70790463,10.3893247 6.1094155,10.3893247 5.48627584,10.4571884 Z M2.05990613,10.3132588 C2.18463954,10.6192053 2.07592455,10.9518627 1.81593967,11.0583236 L0.756093104,11.4175515 C0.496632731,11.5237536 0.185622973,11.3617637 0.0612079865,11.0577369 C-0.0629259629,10.7529179 0.0462698599,10.4185987 0.305506466,10.3132588 L1.36558513,9.95318441 C1.62454698,9.84732779 1.93606358,10.0089879 2.05990613,10.3132588 Z M2.6905364,7.25074773 C2.56647975,7.54625975 2.25314615,7.69548325 1.99127775,7.58545345 L0.716416843,7.11294991 C0.454068756,7.00325849 0.343544612,6.67417538 0.466452444,6.37791364 C0.590313161,6.08323148 0.903858029,5.93316926 1.16577709,6.04456233 L2.44005037,6.51601262 C2.70302803,6.6267945 2.81430043,6.95472887 2.6905364,7.25074773 Z M4.45837832,3.91818351 C4.19028247,4.09380248 3.84707243,4.04230045 3.69150157,3.80464666 L3.10481363,2.83581906 C2.94865587,2.59817756 3.04104814,2.26355098 3.30861082,2.08666805 C3.57608018,1.9116275 3.91993438,1.96255235 4.07478491,2.20136467 L4.66157465,3.16899049 C4.81764457,3.40788808 4.726515,3.74198072 4.45837832,3.91818351 Z M8.82641178,3.13294736 C8.50661078,3.1118588 8.26350575,2.86417848 8.28228496,2.58075485 L8.38179827,1.38783871 C8.40010136,1.10407169 8.67527241,0.892430074 8.99540827,0.912188323 C9.31436083,0.933361804 9.55832766,1.18096882 9.53827596,1.4648842 L9.4395672,2.65690181 C9.42043802,2.94161914 9.14659673,3.15359424 8.82641178,3.13294736 Z M12.9498042,4.09747134 C12.7914628,4.30480678 12.4704928,4.32491783 12.2323252,4.14015857 C11.9935907,3.95786442 11.927813,3.64323454 12.0867567,3.43471089 L13.0557963,2.16892018 C13.2141731,1.96160248 13.53571,1.94269738 13.773913,2.12561224 C14.0126475,2.30854484 14.0778229,2.62436293 13.9194638,2.83109539 L12.9498042,4.09747134 Z" id="Shape"></path>
</svg>
