<?xml version="1.0" encoding="UTF-8"?>
<svg width="24px" height="24px" viewBox="0 0 24 24" version="1.1" xmlns="http://www.w3.org/2000/svg" xmlns:xlink="http://www.w3.org/1999/xlink">
    <!-- Generator: Sketch 59.1 (86144) - https://sketch.com -->
    <title>icon/Tool/24px/地图编辑/常态</title>
    <desc>Created with Sketch.</desc>
    <g id="icon/Tool/24px/地图编辑/常态" stroke="none" stroke-width="1" fill="none" fill-rule="evenodd">
        <path d="M15.9512671,14.2653726 L17.7552857,15.67565 L14.1099482,20.4992581 L11.5,21.6686148 L12.4048485,18.8677508 L15.9512671,14.2653726 Z M2.5,2.40399351 C2.59400811,2.40399351 2.6861119,2.43049601 2.76574307,2.48046001 L6.69243413,4.94423425 C6.83819999,5.035694 6.92669106,5.19568471 6.92669106,5.36776775 L6.92669106,19.1003966 C6.92669106,19.376539 6.70283343,19.6003966 6.42669106,19.6003966 C6.3333847,19.6003966 6.24193986,19.574288 6.16269903,19.5250238 L2.23600797,17.0837876 C2.08924218,16.9925429 2,16.8319777 2,16.6591605 L2,2.90399351 C2,2.62785113 2.22385763,2.40399351 2.5,2.40399351 Z M14.0138791,2.62351976 C14.0598623,2.70083997 14.0841331,2.78913399 14.0841331,2.87909434 L14.0841331,14.2012175 C14.0841331,14.3096726 14.0488691,14.4151871 13.9836593,14.5018483 L11.2867334,18.0859537 L9.84422028,19.4551726 C9.64393621,19.6452802 9.32746123,19.6370306 9.13735362,19.4367465 C9.04916534,19.3438375 9,19.2206249 9,19.0925263 L9,5.30797225 C9,5.13164585 9.09287429,4.96835533 9.24442542,4.87822624 L13.3285586,2.44934833 C13.5659007,2.30819839 13.8727292,2.38617759 14.0138791,2.62351976 Z M16.474615,2.37791426 C16.5659891,2.37791426 16.6556162,2.40295343 16.7337599,2.45031168 L20.7591448,4.88986123 C20.9086706,4.98048004 21,5.14262177 21,5.3174638 L21,18.7319537 C21,19.0080961 20.7761424,19.2319537 20.5,19.2319537 C20.3614526,19.2319537 20.2291162,19.1744663 20.1345575,19.073204 L18.2111678,17.0134602 L20.520989,13.6847748 C20.7906964,13.2960992 20.7134464,12.7649629 20.344195,12.4692193 L18.2907788,10.8245816 C17.9028187,10.5138536 17.3364201,10.5764627 17.0256921,10.9644228 C17.0185034,10.9733983 17.0114873,10.9825108 17.0046478,10.9917552 L15.974615,12.3839665 L15.974615,2.87791426 C15.974615,2.60177188 16.1984727,2.37791426 16.474615,2.37791426 Z M18.0311146,12.2523889 L18.1064375,12.3020778 L19.0977296,13.0915427 C19.2863056,13.2417246 19.337897,13.5011991 19.232186,13.7089642 L19.1851312,13.7841377 L18.3584813,14.8767808 L16.5620248,13.4730469 L17.3989219,12.3879731 C17.3997314,12.3869228 17.4005451,12.3858756 17.401363,12.3848318 L17.403829,12.3817099 C17.5567447,12.1897012 17.8222833,12.140197 18.0311146,12.2523889 Z" id="形状结合" fill="currentColor"></path>
    </g>
</svg>
