<?xml version="1.0" encoding="UTF-8"?>
<svg width="24px" height="24px" viewBox="0 0 24 24" version="1.1" xmlns="http://www.w3.org/2000/svg" xmlns:xlink="http://www.w3.org/1999/xlink">
    <!-- Generator: Sketch 59.1 (86144) - https://sketch.com -->
    <title>icon/Tool/24px/移动/常态</title>
    <desc>Created with Sketch.</desc>
    <g id="icon/Tool/24px/移动/常态" stroke="none" stroke-width="1" fill="none" fill-rule="evenodd">
        <path d="M10.5714286,14.8571429 L13.4285714,14.8571429 L13.4285714,17.7142857 L15.5714286,17.7142857 L12,22 L8.42857143,17.7142857 L10.5714286,17.7142857 L10.5714286,14.8571429 Z M6.28571429,8.42857143 L6.28571429,10.5714286 L9.14285714,10.5714286 L9.14285714,13.4285714 L6.28571429,13.4285714 L6.28571429,15.5714286 L2,12 L6.28571429,8.42857143 Z M17.7142857,8.42857143 L22,12 L17.7142857,15.5714286 L17.7142857,13.4285714 L14.8571429,13.4285714 L14.8571429,10.5714286 L17.7142857,10.5714286 L17.7142857,8.42857143 Z M12,2 L15.5714286,6.28571429 L13.4285714,6.28571429 L13.4285714,9.14285714 L10.5714286,9.14285714 L10.5714286,6.28571429 L8.42857143,6.28571429 L12,2 Z" id="Combined-Shape" fill="currentColor"></path>
    </g>
</svg>
