<?xml version="1.0" encoding="UTF-8"?>
<svg width="24" height="24" viewBox="-3 -2 24 24" fill="none" xmlns="http://www.w3.org/2000/svg">
    <path d="M8.08323 6.42773V7.64995H3.49989L1.97211 11.3166H14.4999V18.65H13.2777V18.0388H1.66656L1.66654 18.65H0.444336V11.9277L2.58323 6.42773H8.08323ZM13.2777 12.5388H1.66654V16.8166H13.2777V12.5388ZM4.72211 14.0666V15.2888H2.88878V14.0666H4.72211ZM11.4443 14.0666V15.2888H9.611V14.0666H11.4443ZM13.2777 0.833191L17.5934 3.32491V8.30833L13.2777 10.8L8.96189 8.30833V3.32491L13.2777 0.833191ZM13.2777 2.24529L10.1836 4.03095V7.6029L13.2777 9.38856L16.3711 7.6029V4.03095L13.2777 2.24529ZM13.2777 4.89995C13.7839 4.89995 14.1943 5.31036 14.1943 5.81662C14.1943 6.32288 13.7839 6.73329 13.2777 6.73329C12.7714 6.73329 12.361 6.32288 12.361 5.81662C12.361 5.31036 12.7714 4.89995 13.2777 4.89995Z" fill="currentColor"/>
</svg>

