<?xml version="1.0" encoding="UTF-8"?>
<svg width="24px" height="24px" viewBox="0 0 24 24" version="1.1" xmlns="http://www.w3.org/2000/svg" xmlns:xlink="http://www.w3.org/1999/xlink">
    <!-- Generator: Sketch 59.1 (86144) - https://sketch.com -->
    <title>icon/Tool/24px/播放/常态</title>
    <desc>Created with Sketch.</desc>
    <g id="icon/Tool/24px/播放/常态" stroke="none" stroke-width="1" fill="none" fill-rule="evenodd">
        <path d="M19,4 C20.1045695,4 21,4.8954305 21,6 L21,18 C21,19.1045695 20.1045695,20 19,20 L5,20 C3.8954305,20 3,19.1045695 3,18 L3,6 C3,4.8954305 3.8954305,4 5,4 L19,4 Z M8.32467532,6.96931746 C8.14536209,6.96931746 8,7.11467956 8,7.29399279 L8,7.29399279 L8,16.7059454 C8,16.7615993 8.01430598,16.8163188 8.04154466,16.8648513 C8.12930598,17.0212201 8.3272125,17.0768374 8.48358125,16.9890761 L8.48358125,16.9890761 L16.8684555,12.2830998 C16.9204927,12.2538941 16.9634746,12.2109122 16.9926803,12.158875 C17.0804416,12.0025063 17.0248243,11.8045997 16.8684555,11.7168384 L16.8684555,11.7168384 L8.48358125,7.01086212 C8.43504873,6.98362344 8.38032918,6.96931746 8.32467532,6.96931746 Z" id="合并形状" fill="currentColor"></path>
    </g>
</svg>
