<?xml version="1.0" encoding="UTF-8"?>
<svg width="24px" height="24px" viewBox="0 0 24 24" version="1.1" xmlns="http://www.w3.org/2000/svg" xmlns:xlink="http://www.w3.org/1999/xlink">
    <!-- Generator: Sketch 59.1 (86144) - https://sketch.com -->
    <title>icon/Tool/24px/3D播放/常态</title>
    <desc>Created with Sketch.</desc>
    <g id="icon/Tool/24px/3D播放/常态" stroke="none" stroke-width="1" fill="none" fill-rule="evenodd">
        <path d="M10.8425199,8.9510651 L10.939182,8.96484538 L20.2455616,11.0666832 C20.3219396,11.0839331 20.3915752,11.1232207 20.4458346,11.1796749 C20.5989175,11.33895 20.5938977,11.5921663 20.4346226,11.7452492 L20.4346226,11.7452492 L10.6660618,21.1340312 C10.5896268,21.2074946 10.4871545,21.24761 10.3811593,21.2455635 C10.1602865,21.2412991 9.98469079,21.0587894 9.98895519,20.8379167 L9.98895519,20.8379167 L10.2071135,9.53852252 C10.2078972,9.49793172 10.2127987,9.45752526 10.2217425,9.41792432 C10.2947436,9.09469457 10.6159523,8.89184422 10.939182,8.96484538 Z M5.04502393,5.09810391 C5.09115717,5.06774096 5.15316958,5.0805253 5.18353254,5.12665853 L5.18353254,5.12665853 L7.43985325,8.55489443 C7.54090585,8.70843296 7.59768563,8.88685305 7.60395524,9.07055499 L7.60395524,9.07055499 L7.95539318,19.3678245 C7.95670306,19.4062046 7.93591862,19.4419445 7.90191275,19.4597868 C7.85300719,19.4854467 7.79255994,19.4666024 7.76690003,19.4176968 L7.76690003,19.4176968 L5.91045095,15.8794665 C5.84738226,15.7592631 5.80944667,15.6274776 5.79895545,15.4921393 L5.79895545,15.4921393 L5.00030003,5.18936419 C4.99748667,5.15307135 5.01461699,5.11811648 5.04502393,5.09810391 Z M7.37913397,3.00005174 L7.41776901,3.00922818 L18.8957836,8.30677339 C18.94005,8.32720402 18.9631313,8.37657884 18.9504181,8.42364577 C18.9360164,8.47696347 18.8811191,8.50851119 18.8278014,8.49410958 L18.8278014,8.49410958 L10.2526442,6.17787801 C10.0682937,6.12808319 9.90205464,6.02654619 9.77357962,5.88527057 L9.77357962,5.88527057 L7.3018803,3.16730362 C7.27485697,3.13758782 7.26823546,3.09458718 7.28506726,3.0581183 C7.3082112,3.00797309 7.3676238,2.98608423 7.41776901,3.00922818 Z" id="合并形状" fill="currentColor"></path>
    </g>
</svg>
