<?xml version="1.0" encoding="UTF-8"?>
<svg width="24px" height="24px" viewBox="0 0 24 24" version="1.1" xmlns="http://www.w3.org/2000/svg" xmlns:xlink="http://www.w3.org/1999/xlink">
    <!-- Generator: Sketch 59.1 (86144) - https://sketch.com -->
    <title>icon/Tool/24px/回放/常态</title>
    <desc>Created with Sketch.</desc>
    <g id="icon/Tool/24px/回放/常态" stroke="none" stroke-width="1" fill="none" fill-rule="evenodd">
        <path d="M11.7128765,3 C16.6834392,3 20.7128765,7.02943725 20.7128765,12 C20.7128765,16.9705627 16.6834392,21 11.7128765,21 C8.9127305,21 6.41125877,19.7212236 4.76059778,17.7158073 L6.36256929,16.5140168 C7.64662202,18.0344102 9.56698645,19 11.7128765,19 C15.5788697,19 18.7128765,15.8659932 18.7128765,12 C18.7128765,8.13400675 15.5788697,5 11.7128765,5 C9.29173983,5 7.15769413,6.22918244 5.90073839,8.09754829 L6.97956269,8.9096539 C7.00961472,8.93229974 7.03048372,8.96503117 7.03833411,9.0018324 C7.05273498,9.06934109 7.02117323,9.13596348 6.96476693,9.16912864 L6.91813383,9.18722036 L3.43469497,9.93030295 C3.42750637,9.93183641 3.4202185,9.93286065 3.41288569,9.93336804 C3.34402276,9.93813296 3.28250043,9.89751658 3.25759648,9.83700715 L3.24624192,9.78829338 L3.00037287,6.23497572 C2.99777535,6.19743625 3.00881392,6.16022051 3.03145975,6.13016847 C3.0730016,6.07504058 3.144003,6.05520407 3.20602374,6.07606136 L3.25025478,6.09941883 L4.302,6.892 L4.45087718,6.6826401 C6.08864481,4.44969849 8.73146303,3 11.7128765,3 Z M9.92716218,8.47833944 C9.96542571,8.47833944 10.0029913,8.48858494 10.0359565,8.50801158 L15.6482205,11.8153648 C15.7501798,11.8754502 15.7841252,12.0068134 15.7240398,12.1087727 C15.7056004,12.1400626 15.6795105,12.1661525 15.6482205,12.1845919 L10.0359565,15.4919451 C9.93399721,15.5520306 9.80263404,15.5180851 9.74254861,15.4161259 C9.72312197,15.3831607 9.71287647,15.3455951 9.71287647,15.3073316 L9.71287647,8.69262515 C9.71287647,8.57427842 9.80881545,8.47833944 9.92716218,8.47833944 Z" id="合并形状" fill="currentColor"></path>
    </g>
</svg>
