<?xml version="1.0" encoding="UTF-8"?>
<svg width="24px" height="24px" viewBox="0 0 24 24" version="1.1" xmlns="http://www.w3.org/2000/svg" xmlns:xlink="http://www.w3.org/1999/xlink">
    <!-- Generator: Sketch 59.1 (86144) - https://sketch.com -->
    <title>icon/Tool/24px/旋转/常态</title>
    <desc>Created with Sketch.</desc>
    <g id="icon/Tool/24px/旋转/常态" stroke="none" stroke-width="1" fill="none" fill-rule="evenodd">
        <path d="M12,3 C14.5008243,3 16.7634151,4.01999871 18.3944452,5.66666895 L20.0593612,4.16729273 C20.1619562,4.07491578 20.3200122,4.08319914 20.4123891,4.18579414 C20.4515166,4.22924954 20.4741713,4.28504699 20.4764119,4.34347905 L20.7008719,10.197027 C20.7061619,10.3349808 20.5986166,10.4511028 20.4606628,10.4563928 C20.4455508,10.4569723 20.4304174,10.4561792 20.4154487,10.4540232 L14.6174296,9.61893043 C14.4807845,9.59924934 14.3859664,9.4725219 14.4056475,9.33587679 C14.4139837,9.27799903 14.4423467,9.22487531 14.4858021,9.18574789 L16.1610427,7.67729191 C15.0823078,6.63865414 13.6157367,6 12,6 C8.6862915,6 6,8.6862915 6,12 C6,15.3137085 8.6862915,18 12,18 C13.7838218,18 15.3858282,17.2215558 16.4848446,15.9858422 L18.7262984,17.9798521 C17.0778013,19.832791 14.6752088,21 12,21 C7.02943725,21 3,16.9705627 3,12 C3,7.02943725 7.02943725,3 12,3 Z" id="合并形状" fill="currentColor"></path>
    </g>
</svg>
