<?xml version="1.0" encoding="UTF-8"?>
<svg width="24px" height="24px" viewBox="0 0 24 24" version="1.1" xmlns="http://www.w3.org/2000/svg" xmlns:xlink="http://www.w3.org/1999/xlink">
    <title>icon/Tool/24px/测量/常态</title>
    <g id="icon/Tool/24px/测量/常态" stroke="none" stroke-width="1" fill="none" fill-rule="evenodd">
        <path d="M16.2382022,3 L21,7.76210192 L7.76193973,21 L3,16.2385266 L4.34464524,14.8935772 L5.80562029,16.3542887 L6.64953414,15.5399243 L5.18855909,14.0789492 L6.03730677,13.200936 L8.99033626,16.1539857 L9.86344667,15.2603724 L6.91041718,12.307647 L7.73013048,11.5081528 L9.19094334,12.9690265 L9.99994608,12.1671303 L8.53913323,10.7064593 L9.42230544,9.81583592 L12.3759026,12.7687032 L13.2313134,11.905212 L10.2777163,8.95248658 L11.1152508,8.12285001 L12.5762258,9.58396698 L13.3156301,8.83834513 L11.8546956,7.37706598 L12.8079731,6.43037095 L15.7610026,9.38340044 L16.5595109,8.58959431 L13.6064814,5.63656482 L14.5006144,4.7377297 L15.9615489,6.19870474 L16.7644088,5.43102785 L15.3031702,3.9700528 L16.2382022,3 Z" id="形状" fill="currentColor"></path>
    </g>
</svg>