<?xml version="1.0" encoding="UTF-8"?>
<svg width="24px" height="24px" viewBox="0 0 24 24" version="1.1" xmlns="http://www.w3.org/2000/svg" xmlns:xlink="http://www.w3.org/1999/xlink">
    <title>icon/Tool/24px/场景生成/常态</title>
    <g id="icon/Tool/24px/场景生成/常态" stroke="none" stroke-width="1" fill="none" fill-rule="evenodd">
        <path d="M19.5403396,15.961966 L21.2844582,16.833932 C21.3618692,16.8726375 21.4246382,16.9354064 21.4633437,17.0128174 C21.5497899,17.1857099 21.499277,17.3912776 21.3529272,17.5061534 L21.2844582,17.5494737 L12.4472136,21.9680961 C12.2059043,22.0887507 11.9279744,22.1059871 11.6762021,22.0198052 L11.5527864,21.9680961 L2.71554175,17.5494737 C2.63813079,17.5107682 2.5753618,17.4479992 2.53665631,17.3705883 C2.45021008,17.1976958 2.500723,16.9921281 2.64707276,16.8772523 L2.71554175,16.833932 L4.45933957,15.961966 L11.5527864,19.5079206 C11.8343139,19.6486844 12.1656861,19.6486844 12.4472136,19.5079206 L19.5403396,15.961966 Z M19.5403396,10.9617368 L21.2844582,11.833932 C21.3618692,11.8726375 21.4246382,11.9354064 21.4633437,12.0128174 C21.5497899,12.1857099 21.499277,12.3912776 21.3529272,12.5061534 L21.2844582,12.5494737 L12.4472136,16.9680961 C12.2059043,17.0887507 11.9279744,17.1059871 11.6762021,17.0198052 L11.5527864,16.9680961 L2.71554175,12.5494737 C2.63813079,12.5107682 2.5753618,12.4479992 2.53665631,12.3705883 C2.45021008,12.1976958 2.500723,11.9921281 2.64707276,11.8772523 L2.71554175,11.833932 L4.45933957,10.9617368 L11.5527864,14.5079206 C11.8343139,14.6486844 12.1656861,14.6486844 12.4472136,14.5079206 L19.5403396,10.9617368 Z M11.5527864,2.10557281 C11.8343139,1.96480906 12.1656861,1.96480906 12.4472136,2.10557281 L12.4472136,2.10557281 L21.2844582,6.52419513 C21.3618692,6.56290062 21.4246382,6.62566961 21.4633437,6.70308057 C21.5621394,6.90067197 21.4820496,7.14094119 21.2844582,7.23973689 L21.2844582,7.23973689 L12.4472136,11.6583592 C12.1656861,11.799123 11.8343139,11.799123 11.5527864,11.6583592 L11.5527864,11.6583592 L2.71554175,7.23973689 C2.63813079,7.20103141 2.5753618,7.13826241 2.53665631,7.06085145 C2.43786062,6.86326005 2.51795035,6.62299083 2.71554175,6.52419513 L2.71554175,6.52419513 Z" id="合并形状" fill="currentColor"></path>
    </g>
</svg>
