<?xml version="1.0" encoding="UTF-8"?>
<svg width="24px" height="24px" viewBox="0 0 24 24" version="1.1" xmlns="http://www.w3.org/2000/svg" xmlns:xlink="http://www.w3.org/1999/xlink">
    <!-- Generator: Sketch 59.1 (86144) - https://sketch.com -->
    <title>icon/Tool/24px/场景/常态</title>
    <desc>Created with Sketch.</desc>
    <g id="icon/Tool/24px/场景/常态" stroke="none" stroke-width="1" fill="none" fill-rule="evenodd">
        <path d="M10.5,13 C10.7761424,13 11,13.2238576 11,13.5 L11,20.5 C11,20.7761424 10.7761424,21 10.5,21 L3.5,21 C3.22385763,21 3,20.7761424 3,20.5 L3,13.5 C3,13.2238576 3.22385763,13 3.5,13 L10.5,13 Z M20.5,13 C20.7761424,13 21,13.2238576 21,13.5 L21,20.5 C21,20.7761424 20.7761424,21 20.5,21 L13.5,21 C13.2238576,21 13,20.7761424 13,20.5 L13,13.5 C13,13.2238576 13.2238576,13 13.5,13 L20.5,13 Z M10.5,3 C10.7761424,3 11,3.22385763 11,3.5 L11,10.5 C11,10.7761424 10.7761424,11 10.5,11 L3.5,11 C3.22385763,11 3,10.7761424 3,10.5 L3,3.5 C3,3.22385763 3.22385763,3 3.5,3 L10.5,3 Z M20.4285714,3 C20.7441627,3 21,3.25583729 21,3.57142857 L21,10.4285714 C21,10.7441627 20.7441627,11 20.4285714,11 L13.5714286,11 C13.2558373,11 13,10.7441627 13,10.4285714 L13,3.57142857 C13,3.25583729 13.2558373,3 13.5714286,3 L20.4285714,3 Z M19.8571429,4.14285714 L14.1428571,4.14285714 L14.1428571,9.85714286 L19.8571429,9.85714286 L19.8571429,4.14285714 Z" id="合并形状" fill="currentColor"></path>
    </g>
</svg>
