<?xml version="1.0" encoding="UTF-8"?>
<svg width="22px" height="23px" viewBox="0 0 22 23" version="1.1" xmlns="http://www.w3.org/2000/svg" xmlns:xlink="http://www.w3.org/1999/xlink">
    <!-- Generator: Sketch 63.1 (92452) - https://sketch.com -->
    <title>编组</title>
    <desc>Created with Sketch.</desc>
    <g id="页面-1" stroke="none" stroke-width="1" fill="none" fill-rule="evenodd">
        <g id="编组" transform="translate(-5.000000, -1.000000)" fill="currentColor" fill-rule="nonzero">
            <g id="sensor">
                <path d="M7,16 C7,20.9705627 11.0294373,25 16,25 L16,27 C9.92486775,27 5,22.0751322 5,16 L7,16 Z M11,16 C11,18.7614237 13.2385762,21 16,21 L16,23 C12.1340067,23 9,19.8659932 9,16 L11,16 Z M16,13 C17.6568542,13 19,14.3431458 19,16 C19,17.6568542 17.6568542,19 16,19 C14.3431458,19 13,17.6568542 13,16 C13,14.3431458 14.3431458,13 16,13 Z M16,9 C19.8659932,9 23,12.1340067 23,16 L21,16 C21,13.2385762 18.7614237,11 16,11 L16,9 Z M16,5 C22.0751322,5 27,9.92486775 27,16 L25,16 C25,11.0294373 20.9705627,7 16,7 L16,5 Z" id="形状结合" transform="translate(16.000000, 16.000000) rotate(45.000000) translate(-16.000000, -16.000000) "></path>
                <path d="M16.25,10.1699219 C16.7773438,10.1699219 17.3232422,10.0888672 17.8876953,9.92675781 C18.4521484,9.76464844 18.9726562,9.57421875 19.4492188,9.35546875 L19.4492188,9.35546875 L19.4492188,5.61132812 L15.9628906,5.61132812 L15.9628906,6.63085938 L18.3007812,6.63085938 L18.3007812,8.76953125 C18.0195312,8.88671875 17.6923828,8.98242188 17.3193359,9.05664062 C16.9462891,9.13085938 16.5722656,9.16796875 16.1972656,9.16796875 C15.1738281,9.16796875 14.3652344,8.85449219 13.7714844,8.22753906 C13.1777344,7.60058594 12.8808594,6.72265625 12.8808594,5.59375 C12.8808594,4.5234375 13.1650391,3.67480469 13.7333984,3.04785156 C14.3017578,2.42089844 15.0742188,2.10742188 16.0507812,2.10742188 C16.484375,2.10742188 16.8720703,2.14746094 17.2138672,2.22753906 C17.5556641,2.30761719 17.8613281,2.40820312 18.1308594,2.52929688 C18.3535156,2.63085938 18.5800781,2.7578125 18.8105469,2.91015625 C19.0410156,3.0625 19.2167969,3.18554688 19.3378906,3.27929688 L19.3378906,3.27929688 L19.4433594,3.27929688 L19.4433594,1.90234375 C18.8457031,1.6171875 18.2880859,1.41503906 17.7705078,1.29589844 C17.2529297,1.17675781 16.7460938,1.1171875 16.25,1.1171875 C14.828125,1.1171875 13.7099609,1.52050781 12.8955078,2.32714844 C12.0810547,3.13378906 11.6738281,4.234375 11.6738281,5.62890625 C11.6738281,6.390625 11.7832031,7.05566406 12.0019531,7.62402344 C12.2207031,8.19238281 12.53125,8.66601562 12.9335938,9.04492188 C13.3320312,9.41992188 13.8144531,9.70117188 14.3808594,9.88867188 C14.9472656,10.0761719 15.5703125,10.1699219 16.25,10.1699219 Z" id="G"></path>
            </g>
        </g>
    </g>
</svg>
