<?xml version="1.0" encoding="UTF-8"?>
<svg width="24px" height="24px" viewBox="0 0 24 24" version="1.1" xmlns="http://www.w3.org/2000/svg" xmlns:xlink="http://www.w3.org/1999/xlink">
    <!-- Generator: Sketch 59.1 (86144) - https://sketch.com -->
    <title>icon/Tool/24px/返回终点/不可操作态</title>
    <desc>Created with Sketch.</desc>
    <g id="icon/Tool/24px/返回终点/不可操作态" stroke="none" stroke-width="1" fill="none" fill-rule="evenodd">
        <path d="M12,2 C16.418278,2 20,5.30620492 20,9.38461538 C20,10.0267693 19.911205,10.6497794 19.7443306,11.2437544 C19.1490183,13.3627172 16.5675747,16.9481324 12,22 C7.43088562,16.9469771 4.8491128,13.3603887 4.25468154,11.2402348 C4.08844457,10.6473185 4,10.0255011 4,9.38461538 C4,5.30620492 7.581722,2 12,2 Z M12,6 C10.3431458,6 9,7.34314575 9,9 C9,10.6568542 10.3431458,12 12,12 C13.6568542,12 15,10.6568542 15,9 C15,7.34314575 13.6568542,6 12,6 Z" id="合并形状" fill="currentColor"></path>
    </g>
</svg>
