<?xml version="1.0" encoding="UTF-8"?>
<svg width="9px" height="22px" viewBox="0 0 9 22" version="1.1" xmlns="http://www.w3.org/2000/svg" xmlns:xlink="http://www.w3.org/1999/xlink">
    <title>icon/Tool/24/打开/常态</title>
    <g id="界面" stroke="none" stroke-width="1" fill="none" fill-rule="evenodd">
        <g id="工具/快捷工具1" transform="translate(-22.000000, -9.000000)" fill="currentColor">
            <g id="形状结合" transform="translate(14.000000, 8.000000)">
                <path d="M12.5,1 C14.9852814,1 17,3.01471863 17,5.5 L17,18.5 C17,20.9852814 14.9852814,23 12.5,23 C10.0147186,23 8,20.9852814 8,18.5 L8,5.5 C8,3.01471863 10.0147186,1 12.5,1 Z M12.5,15.6666667 C11.0088312,15.6666667 9.8,16.8978836 9.8,18.4166667 C9.8,19.9354497 11.0088312,21.1666667 12.5,21.1666667 C13.9911688,21.1666667 15.2,19.9354497 15.2,18.4166667 C15.2,16.8978836 13.9911688,15.6666667 12.5,15.6666667 Z M12.5,9.25 C11.0088312,9.25 9.8,10.4812169 9.8,12 C9.8,13.5187831 11.0088312,14.75 12.5,14.75 C13.9911688,14.75 15.2,13.5187831 15.2,12 C15.2,10.4812169 13.9911688,9.25 12.5,9.25 Z M12.5,2.83333333 C11.0088312,2.83333333 9.8,4.06455027 9.8,5.58333333 C9.8,7.1021164 11.0088312,8.33333333 12.5,8.33333333 C13.9911688,8.33333333 15.2,7.1021164 15.2,5.58333333 C15.2,4.06455027 13.9911688,2.83333333 12.5,2.83333333 Z"></path>
            </g>
        </g>
    </g>
</svg>
