<?xml version="1.0" encoding="UTF-8"?>
<svg width="24px" height="24px" viewBox="0 0 24 24" version="1.1" xmlns="http://www.w3.org/2000/svg" xmlns:xlink="http://www.w3.org/1999/xlink">
    <!-- Generator: Sketch 59.1 (86144) - https://sketch.com -->
    <title>icon/Tool/24px/交通流/常态</title>
    <desc>Created with Sketch.</desc>
    <g id="icon/Tool/24px/交通流/常态" stroke="none" stroke-width="1" fill="none" fill-rule="evenodd">
        <path d="M17.5917107,4 C17.8981564,4 18.1819785,4.16130217 18.3387954,4.4245841 L21.7550389,10.1601601 C21.9153651,10.4293339 22,10.736819 22,11.0501223 L22,19.1304348 C22,19.6106824 21.6106824,20 21.1304348,20 L19.3913043,20 C18.9110567,20 18.5217391,19.6106824 18.5217391,19.1304348 L18.5217391,17.4285714 L5.47826087,17.4285714 L5.47826087,19.1304348 C5.47826087,19.6106824 5.08894326,20 4.60869565,20 L2.86956522,20 C2.38931761,20 2,19.6106824 2,19.1304348 L2,11.0479618 C2,10.7360221 2.08390023,10.4298243 2.242909,10.161454 L5.640968,4.42631132 C5.79754145,4.16205131 6.08191655,4 6.38907872,4 L17.5917107,4 Z M5.47826087,12.2857143 C4.51776565,12.2857143 3.73913043,13.0532261 3.73913043,14 C3.73913043,14.9467739 4.51776565,15.7142857 5.47826087,15.7142857 C6.43875609,15.7142857 7.2173913,14.9467739 7.2173913,14 C7.2173913,13.0532261 6.43875609,12.2857143 5.47826087,12.2857143 Z M18.5217391,12.2857143 C17.5612439,12.2857143 16.7826087,13.0532261 16.7826087,14 C16.7826087,14.9467739 17.5612439,15.7142857 18.5217391,15.7142857 C19.4822343,15.7142857 20.2608696,14.9467739 20.2608696,14 C20.2608696,13.0532261 19.4822343,12.2857143 18.5217391,12.2857143 Z M17.1910349,4.85714286 L6.79186669,4.85714286 C6.62549867,4.85714286 6.47371674,4.95208014 6.40091815,5.10167521 L6.40091815,5.10167521 L3.89121269,10.2589121 C3.87679026,10.288549 3.86929565,10.3210774 3.86929565,10.3540373 C3.86929565,10.4740992 3.96662505,10.5714286 4.08668695,10.5714286 L4.08668695,10.5714286 L19.9123354,10.5714286 C19.9454806,10.5714286 19.9781869,10.5638495 20.0079537,10.5492708 C20.1157782,10.4964623 20.1603775,10.3662435 20.107569,10.258419 L20.107569,10.258419 L17.581502,5.10068901 C17.5085002,4.9516337 17.3570071,4.85714286 17.1910349,4.85714286 L17.1910349,4.85714286 Z" id="Combined-Shape" fill="currentColor"></path>
    </g>
</svg>
