<?xml version="1.0" encoding="UTF-8"?>
<svg width="24px" height="24px" viewBox="0 0 24 24" version="1.1" xmlns="http://www.w3.org/2000/svg" xmlns:xlink="http://www.w3.org/1999/xlink">
    <!-- Generator: Sketch 59.1 (86144) - https://sketch.com -->
    <title>icon/Tool/24px/监视/常态</title>
    <desc>Created with Sketch.</desc>
    <g id="icon/Tool/24px/监视/常态" stroke="none" stroke-width="1" fill="none" fill-rule="evenodd">
        <path d="M12,3 C16.418278,3 20,6.581722 20,11 C20,13.2320132 19.0859303,15.250534 17.6117065,16.7016467 L19,21 L5,21 L6.38829345,16.7016467 C4.9140697,15.250534 4,13.2320132 4,11 C4,6.581722 7.581722,3 12,3 Z M12,8 C10.3431458,8 9,9.34314575 9,11 C9,12.6568542 10.3431458,14 12,14 C13.6568542,14 15,12.6568542 15,11 C15,9.34314575 13.6568542,8 12,8 Z" id="合并形状" fill="currentColor"></path>
    </g>
</svg>
