<svg width="103" height="97" viewBox="0 0 103 97" fill="none" xmlns="http://www.w3.org/2000/svg">
<path opacity="0.35" d="M27.3395 87.4784C14.0422 77.1756 8.75963 59.5627 14.1918 43.6424C19.624 27.7222 34.5709 17.0118 51.3924 16.9859C68.2139 16.9601 83.1936 27.6244 88.6748 43.5279C94.1559 59.4313 88.9275 77.0604 75.6621 87.404" stroke="white" stroke-width="0.61952"/>
<path d="M19.9044 95.7427C3.18707 82.3388 -3.24616 59.8411 3.85757 39.6254C10.9613 19.4098 30.0539 5.88184 51.4813 5.88184C72.9088 5.88184 92.0013 19.4098 99.1051 39.6254C106.209 59.8411 99.7756 82.3388 83.0583 95.7427" stroke="white" stroke-opacity="0.2" stroke-width="1.23904"/>
<g opacity="0.200385">
<path d="M74.5952 17.6151L71.541 22.72" stroke="white" stroke-width="0.61952"/>
<path d="M59.4608 11.8536L58.3457 17.6957" stroke="white" stroke-width="0.61952"/>
<path d="M43.4648 11.835L44.4127 17.7142" stroke="white" stroke-width="0.61952"/>
<path d="M28.416 17.5717L31.3154 22.7695" stroke="white" stroke-width="0.61952"/>
<path d="M16.1445 27.8558L20.6484 31.7464" stroke="white" stroke-width="0.61952"/>
<path d="M8.28906 42.3154L13.8524 44.4341" stroke="white" stroke-width="0.61952"/>
<path d="M5.74219 57.8033L11.6896 57.8901" stroke="white" stroke-width="0.61952"/>
<path d="M9.29883 72.5851L14.9179 70.6336" stroke="white" stroke-width="0.61952"/>
<path d="M17.0664 85.8304L21.6818 82.0699" stroke="white" stroke-width="0.61952"/>
<path d="M86.2868 27.6141L81.7891 31.5109" stroke="white" stroke-width="0.61952"/>
<path d="M94.1411 42.0737L88.584 44.1925" stroke="white" stroke-width="0.61952"/>
<path d="M96.6935 57.5617L90.7461 57.6485" stroke="white" stroke-width="0.61952"/>
<path d="M93.6643 72.5293L88.0391 70.5778" stroke="white" stroke-width="0.61952"/>
<path d="M85.8576 85.9915L81.2422 82.231" stroke="white" stroke-width="0.61952"/>
</g>
<path d="M22.9526 92.9363C5.73147 79.5772 0.0867558 56.0567 9.36919 36.337C18.6516 16.6173 40.3752 5.97955 61.6445 10.7386C82.9138 15.4976 98.0325 34.3787 98.026 56.174C98.0668 70.519 91.4538 84.0722 80.1219 92.8681L76.2808 87.9801C89.8668 77.3745 95.2163 59.3103 89.5961 43.017C83.976 26.7237 68.6271 15.7991 51.3918 15.825C34.1564 15.8509 18.8404 26.8214 13.2691 43.1315C7.69782 59.4416 13.1015 77.4897 26.7192 88.0545L22.9526 92.9363Z" fill="#4294FF" fill-opacity="0.1" stroke="#4294FF" stroke-opacity="0.2" stroke-width="0.61952"/>
<g opacity="0.1">
<path d="M24.9346 90.7804C10.2761 79.3972 4.46681 59.9597 10.4752 42.3998C16.4835 24.8399 32.9826 13.0355 51.542 13.0183C70.1014 13.001 86.6224 24.7747 92.6633 42.3234C98.7043 59.8721 92.9312 79.3204 78.2938 90.7308" stroke="#4294FF" stroke-width="4.95616"/>
</g>
<g clip-path="url(#clip0_252_46300)">
<g opacity="0.85">
<path d="M39.4121 88.1095H40.4473V88.8175C40.6328 88.5408 40.8363 88.3341 41.0576 88.1974C41.279 88.0607 41.5182 87.9923 41.7754 87.9923C42.0488 87.9923 42.2848 88.0607 42.4834 88.1974C42.6852 88.3341 42.8496 88.5408 42.9766 88.8175C43.1654 88.5408 43.3672 88.3341 43.582 88.1974C43.8001 88.0607 44.0312 87.9923 44.2754 87.9923C44.5651 87.9923 44.8141 88.0623 45.0225 88.2023C45.234 88.339 45.3936 88.536 45.501 88.7931C45.6117 89.0503 45.667 89.4458 45.667 89.9796V93.2951H44.5391V90.3312C44.5391 89.8136 44.4935 89.4702 44.4023 89.3009C44.3112 89.1284 44.1582 89.0421 43.9434 89.0421C43.6927 89.0421 43.4909 89.1626 43.3379 89.4035C43.1849 89.6411 43.1084 90.1082 43.1084 90.8048V93.2951H41.9805V90.4533C41.9805 89.8901 41.9495 89.5272 41.8877 89.3644C41.8063 89.1496 41.6419 89.0421 41.3945 89.0421C41.2285 89.0421 41.0755 89.0975 40.9355 89.2082C40.7956 89.3188 40.6947 89.4816 40.6328 89.6964C40.571 89.908 40.54 90.2677 40.54 90.7755V93.2951H39.4121V88.1095Z" fill="white"/>
<path d="M52.2393 85.0951L48.7593 94.2951H49.7493L53.2193 85.0951H52.2393Z" fill="white"/>
<path d="M59.3693 87.9851C58.7293 87.9851 58.2193 88.1151 57.8293 88.3951C57.4293 88.6551 57.2393 89.0251 57.2393 89.5051C57.2393 89.9551 57.4393 90.3051 57.8393 90.5551C58.0893 90.7151 58.5193 90.8651 59.1293 91.0051C59.6493 91.1251 59.9893 91.2151 60.1493 91.2951C60.4493 91.4351 60.5993 91.6251 60.5993 91.8651C60.5993 92.2851 60.1993 92.5051 59.3993 92.5051C59.0193 92.5051 58.7493 92.4351 58.5793 92.3151C58.4093 92.1751 58.2893 91.9451 58.2293 91.6151H57.1193C57.2293 92.8251 57.9993 93.4351 59.4393 93.4351C60.9893 93.4351 61.7693 92.8851 61.7693 91.7851C61.7693 91.3251 61.5593 90.9551 61.1493 90.6951C60.8693 90.5051 60.4293 90.3451 59.8493 90.2051C59.3293 90.0751 58.9893 89.9751 58.8193 89.9051C58.5393 89.7851 58.4093 89.6351 58.4093 89.4751C58.4093 89.2751 58.4893 89.1351 58.6693 89.0451C58.8193 88.9551 59.0493 88.9151 59.3493 88.9151C59.6993 88.9151 59.9593 88.9651 60.1293 89.0751C60.2893 89.1751 60.4093 89.3651 60.4893 89.6251H61.5993C61.4793 88.5251 60.7293 87.9851 59.3693 87.9851Z" fill="white"/>
<path d="M67.9733 85.0051C67.4733 85.0051 67.0833 85.1551 66.8033 85.4751C66.5033 85.7951 66.3533 86.2051 66.3433 86.7251H67.1833C67.1933 86.3851 67.2633 86.1351 67.3933 85.9751C67.5133 85.7951 67.7033 85.7051 67.9433 85.7051C68.1733 85.7051 68.3433 85.7551 68.4633 85.8651C68.5833 85.9651 68.6433 86.1151 68.6433 86.3351C68.6433 86.5751 68.5533 86.7851 68.3733 86.9851C68.2733 87.0851 68.0733 87.2351 67.7833 87.4351C67.2633 87.7851 66.9233 88.0551 66.7633 88.2351C66.4633 88.5651 66.3233 88.9651 66.3233 89.4451H69.4833V88.7151H67.3733C67.4833 88.5351 67.7333 88.3151 68.1233 88.0751C68.5733 87.7751 68.8833 87.5451 69.0433 87.3851C69.3233 87.0851 69.4733 86.7351 69.4733 86.3351C69.4733 85.9351 69.3333 85.6151 69.0633 85.3751C68.7833 85.1251 68.4233 85.0051 67.9733 85.0051Z" fill="white"/>
</g>
<path d="M38.3779 69.303L35.0059 77.871H36.0619L36.9739 75.471H40.9099L41.8219 77.871H42.8899L39.5179 69.303H38.3779ZM37.2859 74.643L38.9299 70.359H38.9779L40.5979 74.643H37.2859Z" fill="#A5A8B6"/>
<path d="M46.3126 71.499C45.3886 71.499 44.6566 71.823 44.1286 72.483C43.6366 73.083 43.3966 73.851 43.3966 74.799C43.3966 75.747 43.6366 76.515 44.1286 77.103C44.6446 77.727 45.3646 78.039 46.3006 78.039C47.0686 78.039 47.6806 77.835 48.1486 77.439C48.6286 77.031 48.9286 76.419 49.0726 75.627H48.1126C47.9686 76.695 47.3566 77.235 46.3006 77.235C45.6766 77.235 45.1966 77.007 44.8726 76.575C44.5366 76.143 44.3806 75.543 44.3806 74.787C44.3806 74.031 44.5486 73.431 44.8846 72.987C45.2326 72.531 45.7126 72.303 46.3126 72.303C46.8046 72.303 47.2006 72.411 47.5126 72.651C47.8126 72.891 48.0046 73.251 48.0886 73.731H49.0366C48.9286 72.975 48.6406 72.411 48.1606 72.039C47.6926 71.679 47.0806 71.499 46.3126 71.499Z" fill="#A5A8B6"/>
<path d="M52.8751 71.499C51.9511 71.499 51.2191 71.823 50.6911 72.483C50.1991 73.083 49.9591 73.851 49.9591 74.799C49.9591 75.747 50.1991 76.515 50.6911 77.103C51.2071 77.727 51.9271 78.039 52.8631 78.039C53.6311 78.039 54.2431 77.835 54.7111 77.439C55.1911 77.031 55.4911 76.419 55.6351 75.627H54.6751C54.5311 76.695 53.9191 77.235 52.8631 77.235C52.2391 77.235 51.7591 77.007 51.4351 76.575C51.0991 76.143 50.9431 75.543 50.9431 74.787C50.9431 74.031 51.1111 73.431 51.4471 72.987C51.7951 72.531 52.2751 72.303 52.8751 72.303C53.3671 72.303 53.7631 72.411 54.0751 72.651C54.3751 72.891 54.5671 73.251 54.6511 73.731H55.5991C55.4911 72.975 55.2031 72.411 54.7231 72.039C54.2551 71.679 53.6431 71.499 52.8751 71.499Z" fill="#A5A8B6"/>
<path d="M59.3176 71.499C58.4176 71.499 57.7096 71.823 57.1816 72.471C56.6536 73.083 56.4016 73.851 56.4016 74.763C56.4016 75.771 56.6656 76.563 57.2176 77.163C57.7456 77.739 58.4656 78.039 59.3536 78.039C60.1576 78.039 60.8176 77.799 61.3336 77.343C61.7536 76.959 62.0296 76.479 62.1736 75.879H61.2136C61.0576 76.311 60.8536 76.635 60.5896 76.851C60.2776 77.103 59.8576 77.235 59.3536 77.235C58.7656 77.235 58.2976 77.043 57.9616 76.659C57.6256 76.275 57.4456 75.735 57.3976 75.039H62.2936C62.2696 73.959 62.0296 73.107 61.5736 72.507C61.0696 71.835 60.3136 71.499 59.3176 71.499ZM59.3416 72.303C60.5176 72.303 61.1776 72.963 61.2976 74.295H57.4216C57.4816 73.683 57.6736 73.203 58.0096 72.843C58.3456 72.483 58.7896 72.303 59.3416 72.303Z" fill="#A5A8B6"/>
<path d="M63.6098 69.135V77.871H64.5578V69.135H63.6098Z" fill="#A5A8B6"/>
<path d="M67.082 76.443C66.866 76.443 66.698 76.515 66.566 76.659C66.422 76.803 66.35 76.971 66.35 77.187C66.35 77.391 66.422 77.559 66.566 77.703C66.698 77.847 66.866 77.919 67.082 77.919C67.274 77.919 67.454 77.847 67.598 77.703C67.742 77.559 67.814 77.391 67.814 77.187C67.814 76.971 67.742 76.803 67.598 76.659C67.454 76.515 67.274 76.443 67.082 76.443Z" fill="#A5A8B6"/>
</g>
<path fill-rule="evenodd" clip-rule="evenodd" d="M49.584 0.744028H53.3844L51.4842 4.61603L49.584 0.744028Z" fill="white"/>
<defs>
<clipPath id="clip0_252_46300">
<rect width="36" height="32" fill="white" transform="translate(35.0059 64.5613)"/>
</clipPath>
</defs>
</svg>
