<svg width="9" height="9" viewBox="0 0 9 9" fill="none" xmlns="http://www.w3.org/2000/svg">
    <path fill-rule="evenodd" clip-rule="evenodd" d="M8.23166 3.3837C8.18649 1.5071 6.68176 0 4.83214 0C2.95406 0 1.43157 1.55383 1.43157 3.47057V3.52105L1.433 3.57155C1.45071 3.88346 1.56966 5.17821 1.64141 5.94787L1.00937 5.30279C0.779253 5.06792 0.402697 5.06792 0.172573 5.30279C-0.0575242 5.53764 -0.0575242 5.92193 0.172573 6.15679L1.92301 7.94337C1.93112 7.9528 1.93951 7.96198 1.94817 7.97088C2.06345 8.08855 2.2155 8.14724 2.36747 8.14701C2.51944 8.14724 2.67148 8.08855 2.78677 7.97088C2.79543 7.96198 2.80382 7.9528 2.81192 7.94337L4.56237 6.15679C4.79246 5.92193 4.79246 5.53764 4.56237 5.30279C4.33225 5.06792 3.95568 5.06792 3.72557 5.30279L3.11693 5.92399C3.11665 5.07742 3.1159 3.47057 3.1159 3.47057L3.11703 3.40636C3.15014 2.46874 3.90535 1.719 4.83214 1.719C5.77999 1.719 6.54837 2.50321 6.54837 3.47057V7.28756L6.5498 7.33807C6.57542 7.78925 6.94204 8.14706 7.39054 8.14706C7.85565 8.14706 8.2327 7.76225 8.2327 7.28756V3.47057L8.23166 3.3837Z" fill="currentColor">
    </path>
</svg>
