<svg width="9" height="9" viewBox="0 0 9 9" fill="none" xmlns="http://www.w3.org/2000/svg">
    <path d="M4.47838 6.47961L5.62659 5.27585H1.65189C1.16411 5.27585 0.765018 4.85742 0.765018 4.34602C0.765018 3.83462 1.16411 3.4162 1.65189 3.4162L5.62659 3.4162L4.47838 2.21243C4.13354 1.85092 4.13354 1.25934 4.47838 0.897822C4.82318 0.536338 5.38741 0.536338 5.73222 0.897822L8.35531 3.64778C8.36916 3.66051 8.38263 3.67369 8.3957 3.6873C8.56846 3.86841 8.65464 4.10727 8.6543 4.34602C8.65464 4.58477 8.56846 4.82363 8.3957 5.00474C8.38263 5.01835 8.36916 5.03153 8.35531 5.04426L5.73222 7.79422C5.38741 8.1557 4.82318 8.1557 4.47838 7.79422C4.13354 7.43269 4.13354 6.84112 4.47838 6.47961Z" fill="currentColor">
    </path>
</svg>
