<svg width="9" height="8" viewBox="0 0 9 8" fill="none" xmlns="http://www.w3.org/2000/svg">
    <path d="M4.94057 2.1305L3.79236 3.33426H7.76705C8.25483 3.33426 8.65393 3.75268 8.65393 4.26409C8.65393 4.77549 8.25483 5.19391 7.76705 5.19391H3.79236L4.94057 6.39767C5.28541 6.75919 5.28541 7.35077 4.94057 7.71229C4.59577 8.07377 4.03154 8.07377 3.68672 7.71229L1.06364 4.96233C1.04978 4.9496 1.03631 4.93642 1.02324 4.92281C0.850482 4.7417 0.764303 4.50283 0.764649 4.26409C0.764303 4.02534 0.850482 3.78648 1.02324 3.60536C1.03631 3.59176 1.04978 3.57858 1.06364 3.56585L3.68672 0.815888C4.03154 0.454404 4.59577 0.454404 4.94057 0.815888C5.28541 1.17742 5.28541 1.76899 4.94057 2.1305Z" fill="currentColor">
    </path>
</svg>
