<svg width="8" height="9" viewBox="0 0 8 9" fill="none" xmlns="http://www.w3.org/2000/svg">
    <path d="M5.7759 4.3124L4.61022 3.12668V7.23122C4.61022 7.73493 4.20504 8.14707 3.70981 8.14707C3.21459 8.14707 2.8094 7.73493 2.8094 7.23122V3.12668L1.64372 4.3124C1.29364 4.66851 0.720768 4.66851 0.370691 4.3124C0.020642 3.95634 0.020642 3.37367 0.370691 3.0176L3.03366 0.308823C3.04599 0.294519 3.05875 0.280607 3.07193 0.267109C3.24731 0.0887055 3.47862 -0.000288984 3.70981 6.87685e-05C3.94101 -0.000288984 4.17231 0.0887055 4.3477 0.267109C4.36087 0.280607 4.37364 0.294519 4.38596 0.308823L7.04893 3.0176C7.39898 3.37367 7.39898 3.95634 7.04893 4.3124C6.69884 4.66851 6.12598 4.66851 5.7759 4.3124Z" fill="currentColor">
    </path>
</svg>
