<svg width="145" height="12" viewBox="0 0 145 12" fill="none" xmlns="http://www.w3.org/2000/svg">
<path fill-rule="evenodd" clip-rule="evenodd" d="M0.964309 10.9828C0.964094 10.9829 0.964015 10.9829 0.83656 10.516C0.709104 10.0491 0.709299 10.049 0.70963 10.0489L0.736135 10.0417L0.814827 10.0205C0.884326 10.0018 0.987721 9.97422 1.12392 9.93824C1.39631 9.86629 1.79992 9.7609 2.32599 9.62687C3.37812 9.35882 4.92017 8.97615 6.88217 8.51709C10.806 7.599 16.4102 6.37517 23.1349 5.15141C36.5813 2.70441 54.5206 0.255188 72.4686 0.255188C90.4165 0.255188 108.356 2.70441 121.802 5.15141C128.527 6.37517 134.131 7.599 138.055 8.51709C140.017 8.97615 141.559 9.35882 142.611 9.62687C143.137 9.7609 143.541 9.86629 143.813 9.93824C143.949 9.97422 144.053 10.0018 144.122 10.0205L144.201 10.0417L144.221 10.0472L144.227 10.0489C144.228 10.049 144.228 10.0491 144.101 10.516C143.973 10.9829 143.973 10.9829 143.973 10.9828L143.948 10.9761L143.871 10.9554C143.803 10.937 143.701 10.9098 143.566 10.8741C143.296 10.8029 142.895 10.6982 142.372 10.5649C141.326 10.2983 139.79 9.91715 137.834 9.45964C133.924 8.54458 128.335 7.3242 121.629 6.10377C108.213 3.66237 90.3366 1.22319 72.4686 1.22319C54.6005 1.22319 36.7238 3.66237 23.3082 6.10377C16.6019 7.3242 11.0136 8.54458 7.1027 9.45964C5.14732 9.91715 3.61143 10.2983 2.56498 10.5649C2.04175 10.6982 1.6409 10.8029 1.37115 10.8741C1.23628 10.9098 1.13419 10.937 1.06597 10.9554L0.989176 10.9761L0.964309 10.9828ZM144.101 10.516L143.973 10.9828L144.44 11.1104L144.695 10.1765L144.227 10.0489L144.101 10.516ZM0.242188 10.1765L0.70963 10.0489L0.83656 10.516L0.964309 10.9828L0.497099 11.1104L0.242188 10.1765Z" fill="url(#paint0_linear_1931_66713)"/>
<defs>
<linearGradient id="paint0_linear_1931_66713" x1="142.539" y1="0.792482" x2="0.836557" y2="0.792482" gradientUnits="userSpaceOnUse">
<stop stop-color="#A3C0D5" stop-opacity="0.01"/>
<stop offset="0.487988" stop-color="#A3C0D5" stop-opacity="0.486244"/>
<stop offset="1" stop-color="#A3C0D5" stop-opacity="0.01"/>
</linearGradient>
</defs>
</svg>
