<svg width="18" height="10" viewBox="0 0 18 10" fill="none" xmlns="http://www.w3.org/2000/svg">
<g opacity="0.495794">
<path fill-rule="evenodd" clip-rule="evenodd" d="M7.91501 0H12.5085C15.2324 0 17.4404 2.14905 17.4404 4.80001C17.4404 7.45097 15.2324 9.60002 12.5085 9.60002H7.91338C7.70818 9.60002 7.52442 9.47636 7.45196 9.2895C6.8775 7.80806 6.59026 6.31709 6.59026 4.81663C6.59026 3.31535 6.87779 1.81393 7.45287 0.312363C7.52479 0.124542 7.70906 0 7.91501 0ZM8.26227 0.959991C7.80461 2.25079 7.57697 3.53512 7.57697 4.8166C7.57697 6.09552 7.80369 7.36867 8.25929 8.64001H12.5089C14.6879 8.64001 16.4544 6.92078 16.4544 4.8C16.4544 2.67921 14.6879 0.959991 12.5089 0.959991H8.26227ZM5.87697 1.54681C5.8014 1.29211 5.52799 1.14529 5.26631 1.21883L0.997092 2.41883C0.735413 2.49239 0.584538 2.75849 0.660119 3.01317C0.73568 3.26787 1.00911 3.41469 1.27079 3.34115L5.53999 2.14114C5.80167 2.06759 5.95255 1.80148 5.87697 1.54681ZM5.26631 4.09886C5.52799 4.02532 5.8014 4.17214 5.87697 4.42684C5.95255 4.68152 5.80167 4.94762 5.53999 5.02118L1.27079 6.22118C1.00911 6.29472 0.73568 6.1479 0.660119 5.8932C0.584538 5.63853 0.735413 5.37242 0.997092 5.29887L5.26631 4.09886ZM5.87697 7.30685C5.8014 7.05215 5.52799 6.90533 5.26631 6.97887L0.997092 8.17887C0.735413 8.25243 0.584538 8.51853 0.660119 8.77321C0.73568 9.02791 1.00911 9.17473 1.27079 9.10119L5.53999 7.90118C5.80167 7.82763 5.95255 7.56152 5.87697 7.30685Z" fill="#A5A8B6"/>
</g>
</svg>
