<svg width="13" height="10" viewBox="0 0 13 10" fill="none" xmlns="http://www.w3.org/2000/svg">
<g opacity="0.495794">
<path fill-rule="evenodd" clip-rule="evenodd" d="M11.3765 1.43674C11.0167 0.979591 10.5934 0.631294 10.1066 0.391838C9.5987 0.130615 9.0696 0 8.51933 0C7.82092 0 7.27065 0.54422 6.86853 1.61089C6.57224 2.4381 6.40292 3.483 6.40292 4.70205V4.78912C6.40292 6.09525 6.57224 7.20546 6.93203 8.09798C7.31298 9.09934 7.84208 9.60002 8.51933 9.60002C9.0696 9.60002 9.5987 9.46941 10.1066 9.20818C10.5934 8.96873 11.0167 8.59866 11.3765 8.16328C11.7363 7.72791 12.0114 7.22723 12.2019 6.63947C12.4135 6.05171 12.5193 5.44219 12.5193 4.78912C12.5193 4.13606 12.4135 3.52654 12.2019 2.93878C12.0114 2.3728 11.7363 1.87212 11.3765 1.43674ZM3.39784 0.108826H2.4243C2.27615 0.52243 2.23382 0.957809 2.27615 1.41495L0.519531 1.89386V2.76461L2.46663 2.24216C2.50895 2.37278 2.59361 2.54693 2.69943 2.76461C2.97456 3.24352 3.10155 3.61359 3.10155 3.89659C3.10155 4.07074 3.03806 4.22312 2.91107 4.3755L0.519531 5.05033V5.92108L2.23382 5.46394C1.95869 6.16054 2.14916 6.83537 2.80525 7.53197L2.86874 7.57551L0.519531 8.22857V9.09932L3.16504 8.35918C3.16504 8.70748 3.05922 9.09932 2.82641 9.49116H3.84229C4.03277 8.99048 4.11742 8.53333 4.07509 8.14149L5.62007 7.70612V6.83537L3.82113 7.33605C3.71531 7.1619 3.60949 7.00952 3.46134 6.87891C3.16504 6.57414 3.03805 6.26939 3.08038 5.96462C3.10155 5.79047 3.1862 5.59455 3.37668 5.35509L3.54599 5.13741L5.64123 4.54965V3.65714L4.07509 4.09251C4.11742 3.61359 3.94811 3.00407 3.54599 2.30747L3.37668 1.98094L5.62007 1.37141V0.500664L3.1862 1.17549C3.14388 0.783653 3.22853 0.435356 3.39784 0.108826ZM8.54057 0.870728C8.2231 0.870728 7.94797 1.21902 7.694 1.91563C7.39771 2.67754 7.27072 3.61359 7.27072 4.70203V4.7891C7.27072 5.96461 7.41887 6.96598 7.73633 7.77142C7.9903 8.40272 8.24427 8.72925 8.54057 8.72925C9.38713 8.72925 10.1279 8.33741 10.7416 7.59727C11.3766 6.83537 11.694 5.89931 11.694 4.7891C11.694 3.67889 11.3766 2.74284 10.7416 1.98093C10.1279 1.2408 9.40829 0.870728 8.54057 0.870728Z" fill="#A5A8B6"/>
</g>
</svg>
