<svg width="15" height="10" viewBox="0 0 15 10" fill="none" xmlns="http://www.w3.org/2000/svg">
<path fill-rule="evenodd" clip-rule="evenodd" d="M1.09343 0.0103836L0.0934833 0L0.0882897 0.499969L0.00519293 8.49954L0 8.99952L0.999945 9.0099L1.00514 8.50993L1.03977 5.155L3.07283 7.22615L3.78647 6.52563L2.3115 5.02305L6.36042 5.06528L6.36045 5.07326L6.86045 5.07134L6.92015 5.07112L8.27278 5.08523L8.77275 5.09042L8.77303 5.06417L12.1235 5.05161L10.6766 6.52563L11.3903 7.22615L13.3606 5.21886L13.3738 8.54642L13.3757 9.04641L14.3757 9.04258L14.3738 8.54259L14.3604 5.04262L14.3566 4.04263L14.3432 0.542648L14.3412 0.0426559L13.3413 0.0464859L13.3432 0.546478L13.3563 4.0202L11.1073 2.11822L10.4615 2.88177L11.8474 4.05247L6.91461 4.07113L2.64588 4.02699L4.00155 2.88177L3.35581 2.11822L1.11747 4.01119L1.05207 4.01051L1.08824 0.510361L1.09343 0.0103836Z" fill="white"/>
</svg>
