<svg width="106" height="107" viewBox="0 0 106 107" fill="none" xmlns="http://www.w3.org/2000/svg">
<path fill-rule="evenodd" clip-rule="evenodd" d="M87.414 59.0915L86.4616 58.918C86.8029 57.0445 86.9812 55.1135 86.9812 53.14C86.9812 51.1665 86.8029 49.2355 86.4616 47.362L87.414 47.1885C87.7656 49.119 87.9492 51.1081 87.9492 53.14C87.9492 55.172 87.7656 57.161 87.414 59.0915ZM87.2206 46.2113L86.274 46.4136C85.4496 42.5552 83.9302 38.954 81.8525 35.7471L82.6649 35.2208C84.8053 38.5246 86.3711 42.2352 87.2206 46.2113ZM82.1104 34.3925C79.8375 31.1058 76.9834 28.2517 73.6967 25.9788L73.1462 26.775C76.3369 28.9815 79.1077 31.7524 81.3142 34.9431L82.1104 34.3925ZM72.8684 25.4243L72.3421 26.2367C69.1352 24.1591 65.534 22.6396 61.6757 21.8152L61.8779 20.8686C65.854 21.7182 69.5647 23.2839 72.8684 25.4243ZM60.9007 20.6753L60.7272 21.6276C58.8537 21.2864 56.9227 21.108 54.9492 21.108C52.9757 21.108 51.0447 21.2864 49.1712 21.6276L48.9978 20.6753C50.9282 20.3237 52.9173 20.14 54.9492 20.14C56.9812 20.14 58.9702 20.3237 60.9007 20.6753ZM48.0205 20.8686L48.2228 21.8152C44.3644 22.6396 40.7632 24.1591 37.5563 26.2367L37.03 25.4243C40.3338 23.2839 44.0444 21.7182 48.0205 20.8686ZM36.2017 25.9788L36.7523 26.775C33.5616 28.9815 30.7907 31.7524 28.5842 34.9431L27.788 34.3925C30.0609 31.1058 32.915 28.2517 36.2017 25.9788ZM27.2335 35.2208L28.0459 35.7471C25.9683 38.954 24.4489 42.5552 23.6244 46.4136L22.6778 46.2113C23.5274 42.2352 25.0931 38.5246 27.2335 35.2208ZM22.4845 47.1885C22.1329 49.119 21.9492 51.1081 21.9492 53.14C21.9492 55.172 22.1329 57.161 22.4845 59.0915L23.4368 58.918C23.0956 57.0445 22.9172 55.1135 22.9172 53.14C22.9172 51.1665 23.0956 49.2355 23.4368 47.362L22.4845 47.1885ZM22.6778 60.0687L23.6244 59.8665C24.4489 63.7248 25.9683 67.326 28.0459 70.5329L27.2335 71.0592C25.0931 67.7555 23.5274 64.0448 22.6778 60.0687ZM27.788 71.8875L28.5842 71.337C30.7907 74.5276 33.5616 77.2985 36.7523 79.505L36.2017 80.3012C32.915 78.0283 30.0609 75.1742 27.788 71.8875ZM37.03 80.8557L37.5563 80.0433C40.7632 82.121 44.3644 83.6404 48.2228 84.4648L48.0205 85.4114C44.0444 84.5619 40.3338 82.9961 37.03 80.8557ZM48.9977 85.6048L49.1712 84.6524C51.0447 84.9937 52.9757 85.172 54.9492 85.172C56.9227 85.172 58.8537 84.9937 60.7272 84.6524L60.9007 85.6048C58.9702 85.9564 56.9812 86.14 54.9492 86.14C52.9173 86.14 50.9282 85.9564 48.9977 85.6048ZM61.8779 85.4114L61.6757 84.4648C65.534 83.6404 69.1352 82.121 72.3421 80.0433L72.8684 80.8557C69.5647 82.9961 65.854 84.5619 61.8779 85.4114ZM73.6967 80.3012L73.1462 79.505C76.3369 77.2985 79.1077 74.5276 81.3142 71.337L82.1104 71.8875C79.8375 75.1742 76.9834 78.0283 73.6967 80.3012ZM82.6649 71.0592L81.8525 70.5329C83.9302 67.326 85.4496 63.7248 86.274 59.8665L87.2206 60.0687C86.3711 64.0448 84.8053 67.7555 82.6649 71.0592Z" fill="url(#paint0_linear_1931_66854)"/>
<path fill-rule="evenodd" clip-rule="evenodd" d="M54.9492 81.236C70.4662 81.236 83.0452 68.657 83.0452 53.14C83.0452 37.623 70.4662 25.044 54.9492 25.044C39.4322 25.044 26.8532 37.623 26.8532 53.14C26.8532 68.657 39.4322 81.236 54.9492 81.236ZM54.9492 84.14C72.07 84.14 85.9492 70.2608 85.9492 53.14C85.9492 36.0192 72.07 22.14 54.9492 22.14C37.8284 22.14 23.9492 36.0192 23.9492 53.14C23.9492 70.2608 37.8284 84.14 54.9492 84.14Z" fill="url(#paint1_linear_1931_66854)"/>
<path fill-rule="evenodd" clip-rule="evenodd" d="M54.9492 89.14C74.8315 89.14 90.9492 73.0223 90.9492 53.14C90.9492 33.2578 74.8315 17.14 54.9492 17.14C35.067 17.14 18.9492 33.2578 18.9492 53.14C18.9492 73.0223 35.067 89.14 54.9492 89.14ZM54.9492 97.14C79.2497 97.14 98.9492 77.4405 98.9492 53.14C98.9492 28.8395 79.2497 9.14001 54.9492 9.14001C30.6487 9.14001 10.9492 28.8395 10.9492 53.14C10.9492 77.4405 30.6487 97.14 54.9492 97.14Z" fill="white" fill-opacity="0.2"/>
<path opacity="0.6" d="M55.3391 98.8047C54.5991 98.8047 53.9891 98.9647 53.5191 99.2847C52.9891 99.6247 52.7291 100.115 52.7291 100.735C52.7291 101.335 52.9991 101.795 53.5491 102.115C53.7791 102.235 54.3291 102.435 55.1891 102.695C55.9891 102.925 56.4991 103.095 56.6991 103.215C57.1691 103.465 57.4091 103.815 57.4091 104.265C57.4091 104.645 57.2291 104.945 56.8691 105.165C56.5091 105.385 56.0291 105.495 55.4491 105.495C54.8091 105.495 54.3291 105.355 53.9991 105.095C53.6391 104.805 53.4191 104.345 53.3491 103.725H52.5391C52.5991 104.605 52.9091 105.255 53.4691 105.685C53.9491 106.045 54.6091 106.225 55.4491 106.225C56.2991 106.225 56.9691 106.045 57.4691 105.695C57.9691 105.335 58.2191 104.835 58.2191 104.215C58.2191 103.565 57.9191 103.065 57.3291 102.705C57.0291 102.525 56.4091 102.295 55.4691 102.015C54.7791 101.815 54.3391 101.665 54.1591 101.565C53.7491 101.345 53.5491 101.055 53.5491 100.695C53.5491 100.285 53.7191 99.9847 54.0591 99.7847C54.3591 99.6047 54.7691 99.5247 55.2991 99.5247C55.8791 99.5247 56.3291 99.6447 56.6491 99.9047C56.9591 100.155 57.1591 100.535 57.2491 101.055H58.0591C57.9891 100.305 57.7191 99.7347 57.2391 99.3547C56.7791 98.9847 56.1391 98.8047 55.3391 98.8047Z" fill="white"/>
<path opacity="0.6" d="M51.9395 0V7.14H52.7595V1.27H52.7895L56.8495 7.14H57.6895V0H56.8695V5.81H56.8395L52.7995 0H51.9395Z" fill="white"/>
<path opacity="0.6" d="M0 50L2.05 57.14H2.96L4.59 51.19H4.62L6.24 57.14H7.15L9.2 50H8.28L6.71 55.99H6.67L5.05 50H4.16L2.53 55.99H2.49L0.92 50H0Z" fill="white"/>
<path opacity="0.6" d="M100.67 50V57.14H105.9V56.43H101.49V53.81H105.49V53.1H101.49V50.71H105.73V50H100.67Z" fill="white"/>
<path d="M21.9492 53.14L85.9492 53.14" stroke="#4294FF" stroke-width="0.5" stroke-linecap="square" stroke-dasharray="2.9 2.46"/>
<path d="M54.9492 22.14L54.9492 84.14" stroke="#4294FF" stroke-width="0.5" stroke-linecap="square" stroke-dasharray="2.9 2.46"/>
<path fill-rule="evenodd" clip-rule="evenodd" d="M14.9492 51.14L20.1423 52.1525C20.4334 52.2092 20.6435 52.4643 20.6435 52.7609V52.7609C20.6435 53.0575 20.4334 53.3125 20.1423 53.3693L14.9492 54.3817V51.14Z" fill="#4294FF"/>
<path fill-rule="evenodd" clip-rule="evenodd" d="M94.6426 51.14L89.4495 52.1525C89.1584 52.2092 88.9483 52.4643 88.9483 52.7609V52.7609C88.9483 53.0575 89.1584 53.3125 89.4495 53.3693L94.6426 54.3817V51.14Z" fill="#4294FF"/>
<path fill-rule="evenodd" clip-rule="evenodd" d="M52.9492 94.801L54.3165 88.8232C54.4079 88.4235 54.7635 88.14 55.1736 88.14V88.14C55.5836 88.14 55.9392 88.4235 56.0306 88.8232L57.3979 94.801H52.9492Z" fill="#4294FF"/>
<path fill-rule="evenodd" clip-rule="evenodd" d="M52.9492 13.14L54.1788 18.5257C54.2609 18.8851 54.5806 19.14 54.9492 19.14V19.14C55.3179 19.14 55.6376 18.8851 55.7196 18.5257L56.9492 13.14H52.9492Z" fill="#4294FF"/>
<defs>
<linearGradient id="paint0_linear_1931_66854" x1="21.9492" y1="20.14" x2="21.9492" y2="86.14" gradientUnits="userSpaceOnUse">
<stop stop-color="white" stop-opacity="0.762974"/>
<stop offset="1" stop-color="white"/>
</linearGradient>
<linearGradient id="paint1_linear_1931_66854" x1="23.9492" y1="22.14" x2="23.9492" y2="84.14" gradientUnits="userSpaceOnUse">
<stop stop-color="#373739"/>
<stop offset="1" stop-color="#68686B"/>
</linearGradient>
</defs>
</svg>
