<svg width="18" height="10" viewBox="0 0 18 10" fill="none" xmlns="http://www.w3.org/2000/svg">
<g opacity="1">
<path fill-rule="evenodd" clip-rule="evenodd" d="M9.64456 9.49404C10.1213 9.5652 10.6027 9.60062 11.0848 9.60002C14.8967 9.60002 17.9997 7.45033 17.9997 4.80239C17.9997 2.15444 14.8967 9.38778e-06 11.0848 9.38778e-06C10.5422 -0.000738293 10.0005 0.0431765 9.46532 0.131304L9.25088 0.167681L9.13886 0.351175C8.36033 1.66216 7.95605 3.15731 7.96905 4.67742C7.95576 6.31324 8.42693 7.91717 9.3245 9.29156L9.44132 9.46398L9.64456 9.49404ZM11.0848 8.66517C10.721 8.66531 10.3576 8.64312 9.99659 8.59874C9.27684 7.41535 8.90242 6.05816 8.91479 4.67743C8.90295 3.39871 9.22189 2.13819 9.84136 1.01554C10.2533 0.958116 10.6688 0.929567 11.0848 0.930124C14.375 0.930124 17.0523 2.67011 17.0523 4.79765C17.0523 6.92518 14.375 8.66517 11.0848 8.66517Z" fill="#4294FF"/>
<path d="M0.195312 2.17657H7.20937V2.9485H0.195312V2.17657Z" fill="#4294FF"/>
<path d="M0.390625 0.439758H7.40469V1.21168H0.390625V0.439758Z" fill="#4294FF"/>
<path d="M0 3.91345H7.01406V4.68538H0V3.91345Z" fill="#4294FF"/>
<path d="M0.195312 5.8432H7.20937V6.61512H0.195312V5.8432Z" fill="#4294FF"/>
<path d="M0.390625 7.58008H7.40469V8.352H0.390625V7.58008Z" fill="#4294FF"/>
</g>
</svg>
