<svg width="11" height="10" viewBox="0 0 11 10" fill="none" xmlns="http://www.w3.org/2000/svg">
<g opacity="0.495794">
<path fill-rule="evenodd" clip-rule="evenodd" d="M8.89544 0H9.67778C9.71594 0.515701 9.56329 1.03141 9.20074 1.50744H10.8799V2.32066H8.57106C8.323 2.71736 8.24668 3.13389 8.36117 3.59009C8.41841 3.88761 8.55198 4.14546 8.76187 4.40331H10.8799V5.19671H9.35339C9.73502 5.91076 9.77318 6.60497 9.50605 7.27936H10.8799V8.07275H8.99085L8.85728 8.21159C8.43749 8.64795 8.26576 9.12399 8.30392 9.60002H7.52159C7.48343 9.06448 7.61699 8.56861 7.96046 8.07275H6.30038V7.27936H8.60922C8.85728 6.86282 8.93361 6.4463 8.81912 5.9901C8.76187 5.71241 8.60922 5.45456 8.41841 5.19671H6.30038V4.40331H7.84597C7.46434 3.68926 7.42618 2.99505 7.69332 2.32066H6.31947V1.50744H8.20852L8.34208 1.38844C8.76187 0.952065 8.93361 0.495872 8.89544 0ZM5.59458 4.78018V4.70084C5.59458 3.60993 5.44193 2.6777 5.17479 1.88431C4.83133 0.912407 4.33521 0.416534 3.68645 0.416534H3.66736C3.17125 0.416534 2.7133 0.535545 2.25535 0.77356C1.81648 0.991745 1.43485 1.3091 1.11047 1.72563C0.423542 2.57852 0.0800781 3.60993 0.0800781 4.80002C0.0800781 5.39506 0.175485 5.95043 0.347216 6.48597C0.518948 7.00167 0.767005 7.47771 1.11047 7.8744C1.45393 8.29093 1.83556 8.60828 2.25535 8.82647C2.7133 9.06448 3.17125 9.18349 3.66736 9.18349C4.27797 9.18349 4.77408 8.72729 5.11754 7.8149C5.44193 6.98183 5.59458 5.97027 5.59458 4.78018ZM4.83153 4.70081V4.78015C4.83153 5.85123 4.69796 6.7438 4.41174 7.49751C4.18277 8.07272 3.93471 8.37025 3.66757 8.37025C3.28594 8.37025 2.9234 8.27107 2.57994 8.09256C2.25555 7.91405 1.95025 7.67603 1.7022 7.33884C1.12976 6.62479 0.843536 5.77189 0.843536 4.78015C0.843536 3.78841 1.12976 2.93552 1.7022 2.22147C1.95025 1.90411 2.25555 1.64626 2.57994 1.46775C2.9234 1.28924 3.28594 1.19006 3.66757 1.19006H3.68665C3.97287 1.19006 4.22093 1.50742 4.4499 2.14213C4.69796 2.85619 4.81245 3.70908 4.83153 4.70081Z" fill="#A5A8B6"/>
</g>
</svg>
