<svg width="103" height="97" viewBox="0 0 103 97" fill="none" xmlns="http://www.w3.org/2000/svg">
<path opacity="0.35" d="M27.3395 82.4784C14.0422 72.1756 8.75963 54.5627 14.1918 38.6424C19.624 22.7222 34.5709 12.0118 51.3924 11.9859C68.2139 11.9601 83.1936 22.6244 88.6748 38.5279C94.1559 54.4313 88.9275 72.0604 75.6621 82.404" stroke="white" stroke-width="0.61952"/>
<path d="M19.9044 90.7427C3.18707 77.3388 -3.24616 54.8411 3.85757 34.6254C10.9613 14.4098 30.0539 0.881836 51.4813 0.881836C72.9088 0.881836 92.0013 14.4098 99.1051 34.6254C106.209 54.8411 99.7756 77.3388 83.0583 90.7427" stroke="white" stroke-opacity="0.2" stroke-width="1.23904"/>
<g opacity="0.200385">
<path d="M74.5952 12.6151L71.541 17.72" stroke="white" stroke-width="0.61952"/>
<path d="M59.4608 6.85358L58.3457 12.6957" stroke="white" stroke-width="0.61952"/>
<path d="M43.4648 6.83496L44.4127 12.7142" stroke="white" stroke-width="0.61952"/>
<path d="M28.416 12.5717L31.3154 17.7695" stroke="white" stroke-width="0.61952"/>
<path d="M16.1445 22.8558L20.6484 26.7464" stroke="white" stroke-width="0.61952"/>
<path d="M8.28906 37.3154L13.8524 39.4341" stroke="white" stroke-width="0.61952"/>
<path d="M5.74219 52.8033L11.6896 52.8901" stroke="white" stroke-width="0.61952"/>
<path d="M9.29883 67.5851L14.9179 65.6336" stroke="white" stroke-width="0.61952"/>
<path d="M17.0664 80.8304L21.6818 77.0699" stroke="white" stroke-width="0.61952"/>
<path d="M86.2868 22.6141L81.7891 26.5109" stroke="white" stroke-width="0.61952"/>
<path d="M94.1411 37.0737L88.584 39.1925" stroke="white" stroke-width="0.61952"/>
<path d="M96.6935 52.5617L90.7461 52.6485" stroke="white" stroke-width="0.61952"/>
<path d="M93.6643 67.5293L88.0391 65.5778" stroke="white" stroke-width="0.61952"/>
<path d="M85.8576 80.9915L81.2422 77.231" stroke="white" stroke-width="0.61952"/>
</g>
<path d="M22.9526 87.9363C5.73147 74.5772 0.0867558 51.0567 9.36919 31.337C18.6516 11.6173 40.3752 0.979552 61.6445 5.73857C82.9138 10.4976 98.0325 29.3787 98.026 51.174C98.0668 65.519 91.4538 79.0722 80.1219 87.8681L76.2808 82.9801C89.8668 72.3745 95.2163 54.3103 89.5961 38.017C83.976 21.7237 68.6271 10.7991 51.3918 10.825C34.1564 10.8509 18.8404 21.8214 13.2691 38.1315C7.69782 54.4416 13.1015 72.4897 26.7192 83.0545L22.9526 87.9363Z" fill="#4294FF" fill-opacity="0.1" stroke="#4294FF" stroke-opacity="0.2" stroke-width="0.61952"/>
<g opacity="0.1">
<path d="M24.9346 85.7804C10.2761 74.3972 4.46681 54.9597 10.4752 37.3998C16.4835 19.8399 32.9826 8.03551 51.542 8.01827C70.1014 8.00103 86.6224 19.7747 92.6633 37.3234C98.7043 54.8721 92.9312 74.3204 78.2938 85.7308" stroke="#4294FF" stroke-width="4.95616"/>
</g>
<g clip-path="url(#clip0_252_46203)">
<g opacity="0.85">
<path d="M40.332 88.2631V81.1049H41.46V84.9037L42.7734 83.0775H44.1602L42.7051 84.972L44.2627 88.2631H43.0518L41.9775 85.934L41.46 86.6029V88.2631H40.332Z" fill="white"/>
<path d="M44.8438 83.0775H45.8789V83.7855C46.0645 83.5088 46.2679 83.3021 46.4893 83.1654C46.7106 83.0287 46.9499 82.9603 47.207 82.9603C47.4805 82.9603 47.7165 83.0287 47.915 83.1654C48.1169 83.3021 48.2812 83.5088 48.4082 83.7855C48.597 83.5088 48.7988 83.3021 49.0137 83.1654C49.2318 83.0287 49.4629 82.9603 49.707 82.9603C49.9967 82.9603 50.2458 83.0303 50.4541 83.1703C50.6657 83.307 50.8252 83.5039 50.9326 83.7611C51.0433 84.0183 51.0986 84.4138 51.0986 84.9476V88.2631H49.9707V85.2992C49.9707 84.7816 49.9251 84.4382 49.834 84.2689C49.7428 84.0964 49.5898 84.0101 49.375 84.0101C49.1243 84.0101 48.9225 84.1306 48.7695 84.3715C48.6165 84.6091 48.54 85.0762 48.54 85.7728V88.2631H47.4121V85.4213C47.4121 84.8581 47.3812 84.4952 47.3193 84.3324C47.238 84.1176 47.0736 84.0101 46.8262 84.0101C46.6602 84.0101 46.5072 84.0655 46.3672 84.1761C46.2272 84.2868 46.1263 84.4496 46.0645 84.6644C46.0026 84.876 45.9717 85.2357 45.9717 85.7435V88.2631H44.8438V83.0775Z" fill="white"/>
<path d="M53.9111 88.3851L55.3662 80.9828H56.2109L54.7412 88.3851H53.9111Z" fill="white"/>
<path d="M60.2051 81.1049V83.7367C60.3841 83.4763 60.5811 83.2826 60.7959 83.1556C61.014 83.0254 61.25 82.9603 61.5039 82.9603C61.8424 82.9603 62.1257 83.0498 62.3535 83.2289C62.5814 83.4079 62.7441 83.6618 62.8418 83.9906C62.9134 84.2315 62.9492 84.6416 62.9492 85.2211V88.2631H61.8262V85.5238C61.8262 84.889 61.7855 84.4919 61.7041 84.3324C61.5902 84.1176 61.3965 84.0101 61.123 84.0101C60.8333 84.0101 60.6071 84.1273 60.4443 84.3617C60.2848 84.5928 60.2051 85.0274 60.2051 85.6654V88.2631H59.0771V81.1049H60.2051Z" fill="white"/>
</g>
<path d="M36.8131 64.135C35.9251 64.135 35.1931 64.327 34.6291 64.711C33.9931 65.119 33.6811 65.707 33.6811 66.451C33.6811 67.171 34.0051 67.723 34.6651 68.107C34.9411 68.251 35.6011 68.491 36.6331 68.803C37.5931 69.079 38.2051 69.283 38.4451 69.427C39.0091 69.727 39.2971 70.147 39.2971 70.687C39.2971 71.143 39.0811 71.503 38.6491 71.767C38.2171 72.031 37.6411 72.163 36.9451 72.163C36.1771 72.163 35.6011 71.995 35.2051 71.683C34.7731 71.335 34.5091 70.783 34.4251 70.039H33.4531C33.5251 71.095 33.8971 71.875 34.5691 72.391C35.1451 72.823 35.9371 73.039 36.9451 73.039C37.9651 73.039 38.7691 72.823 39.3691 72.403C39.9691 71.971 40.2691 71.371 40.2691 70.627C40.2691 69.847 39.9091 69.247 39.2011 68.815C38.8411 68.599 38.0971 68.323 36.9691 67.987C36.1411 67.747 35.6131 67.567 35.3971 67.447C34.9051 67.183 34.6651 66.835 34.6651 66.403C34.6651 65.911 34.8691 65.551 35.2771 65.311C35.6371 65.095 36.1291 64.999 36.7651 64.999C37.4611 64.999 38.0011 65.143 38.3851 65.455C38.7571 65.755 38.9971 66.211 39.1051 66.835H40.0771C39.9931 65.935 39.6691 65.251 39.0931 64.795C38.5411 64.351 37.7731 64.135 36.8131 64.135Z" fill="#A5A8B6"/>
<path d="M44.3592 66.499C43.4232 66.499 42.7392 66.895 42.2952 67.687V66.667H41.3952V75.247H42.3552V71.743C42.8352 72.607 43.5192 73.039 44.4072 73.039C45.2952 73.039 45.9792 72.703 46.4832 72.055C46.9392 71.455 47.1792 70.699 47.1792 69.787C47.1792 68.851 46.9392 68.095 46.4712 67.495C45.9552 66.823 45.2472 66.499 44.3592 66.499ZM44.2392 67.291C44.8992 67.291 45.4032 67.531 45.7512 68.035C46.0392 68.467 46.1952 69.055 46.1952 69.787C46.1952 70.531 46.0392 71.119 45.7272 71.551C45.3792 72.007 44.8752 72.247 44.2032 72.247C43.6272 72.247 43.1832 72.019 42.8472 71.587C42.4872 71.143 42.3192 70.567 42.3192 69.847V69.727C42.3192 69.031 42.4752 68.455 42.7872 68.023C43.1232 67.531 43.6152 67.291 44.2392 67.291Z" fill="#A5A8B6"/>
<path d="M50.9824 66.499C50.0824 66.499 49.3744 66.823 48.8464 67.471C48.3184 68.083 48.0664 68.851 48.0664 69.763C48.0664 70.771 48.3304 71.563 48.8824 72.163C49.4104 72.739 50.1304 73.039 51.0184 73.039C51.8224 73.039 52.4824 72.799 52.9984 72.343C53.4184 71.959 53.6944 71.479 53.8384 70.879H52.8784C52.7224 71.311 52.5184 71.635 52.2544 71.851C51.9424 72.103 51.5224 72.235 51.0184 72.235C50.4304 72.235 49.9624 72.043 49.6264 71.659C49.2904 71.275 49.1104 70.735 49.0624 70.039H53.9584C53.9344 68.959 53.6944 68.107 53.2384 67.507C52.7344 66.835 51.9784 66.499 50.9824 66.499ZM51.0064 67.303C52.1824 67.303 52.8424 67.963 52.9624 69.295H49.0864C49.1464 68.683 49.3384 68.203 49.6744 67.843C50.0104 67.483 50.4544 67.303 51.0064 67.303Z" fill="#A5A8B6"/>
<path d="M57.6387 66.499C56.7387 66.499 56.0307 66.823 55.5027 67.471C54.9747 68.083 54.7227 68.851 54.7227 69.763C54.7227 70.771 54.9867 71.563 55.5387 72.163C56.0667 72.739 56.7867 73.039 57.6747 73.039C58.4787 73.039 59.1387 72.799 59.6547 72.343C60.0747 71.959 60.3507 71.479 60.4947 70.879H59.5347C59.3787 71.311 59.1747 71.635 58.9107 71.851C58.5987 72.103 58.1787 72.235 57.6747 72.235C57.0867 72.235 56.6187 72.043 56.2827 71.659C55.9467 71.275 55.7667 70.735 55.7187 70.039H60.6147C60.5907 68.959 60.3507 68.107 59.8947 67.507C59.3907 66.835 58.6347 66.499 57.6387 66.499ZM57.6627 67.303C58.8387 67.303 59.4987 67.963 59.6187 69.295H55.7427C55.8027 68.683 55.9947 68.203 56.3307 67.843C56.6667 67.483 57.1107 67.303 57.6627 67.303Z" fill="#A5A8B6"/>
<path d="M66.3229 64.135V67.807C65.8429 66.931 65.1589 66.499 64.2709 66.499C63.3829 66.499 62.6989 66.823 62.1949 67.495C61.7269 68.095 61.4989 68.839 61.4989 69.751C61.4989 70.687 61.7269 71.455 62.1949 72.055C62.6989 72.703 63.4069 73.039 64.3189 73.039C65.2549 73.039 65.9509 72.643 66.3829 71.851V72.871H67.2829V64.135H66.3229ZM64.4749 67.291C65.0269 67.291 65.4829 67.507 65.8309 67.963C66.1669 68.407 66.3469 68.995 66.3469 69.715V69.835C66.3469 70.531 66.1909 71.095 65.8909 71.527C65.5429 72.007 65.0629 72.247 64.4389 72.247C63.7669 72.247 63.2629 71.995 62.9269 71.515C62.6269 71.083 62.4829 70.495 62.4829 69.751C62.4829 69.007 62.6269 68.431 62.9389 68.011C63.2749 67.531 63.7909 67.291 64.4749 67.291Z" fill="#A5A8B6"/>
</g>
<path fill-rule="evenodd" clip-rule="evenodd" d="M14.4828 93.5373L17.1701 96.2246L18.5644 92.143L14.4828 93.5373Z" fill="white"/>
<defs>
<clipPath id="clip0_252_46203">
<rect width="35" height="30.392" fill="white" transform="translate(33.0684 59.871)"/>
</clipPath>
</defs>
</svg>
