<svg width="52" height="53" viewBox="0 0 52 53" fill="none" xmlns="http://www.w3.org/2000/svg">
<path fill-rule="evenodd" clip-rule="evenodd" d="M0 26.3367C0 33.5194 2.88309 40.0225 7.54463 44.7293C10.0027 47.2107 12.9547 49.1929 16.2394 50.513C19.2805 51.7343 22.5192 52.3467 25.7603 52.3467C29.0002 52.3467 32.24 51.7344 35.2806 50.513C38.5648 49.1928 41.5173 47.2107 43.9748 44.7293C48.6363 40.0225 51.52 33.5194 51.52 26.3367C51.52 19.155 48.6363 12.6519 43.9748 7.94512C39.2761 3.2008 32.5177 0.828613 25.7603 0.828613C19.0018 0.828613 12.2439 3.2008 7.54463 7.94512C2.88309 12.652 0 19.155 0 26.3367ZM11.2137 11.6998C14.9661 7.90986 20.3635 6.01537 25.7609 6.01534C31.158 6.01534 36.5548 7.90976 40.3072 11.6998C42.5418 13.9551 44.2646 16.7277 45.2846 19.8242C45.5671 20.8641 45.1906 21.355 44.1581 21.2988C42.3433 21.2284 39.4045 21.1657 36.8377 21.1108L36.8374 21.1108C34.6162 21.0634 32.6736 21.0219 31.9786 20.9866C33.2647 22.4606 34.0455 24.396 34.0455 26.5149C34.0455 28.8248 33.1183 30.9166 31.619 32.4304C31.0837 32.9711 30.4755 33.4377 29.8106 33.814C28.5578 34.5246 27.1597 34.8799 25.7611 34.8804C24.3619 34.8798 22.9638 34.5246 21.7109 33.814C21.046 33.4377 20.4374 32.9711 19.9025 32.4304C18.4032 30.9166 17.476 28.8247 17.476 26.5149C17.476 24.3959 18.2562 22.4607 19.5434 20.9866C18.8482 21.0219 16.9056 21.0634 14.6844 21.1108C12.1172 21.1656 9.17811 21.2284 7.36291 21.2988C6.33042 21.3551 5.95447 20.8641 6.23635 19.8242C7.25699 16.7276 8.9796 13.955 11.2137 11.6998ZM30.4085 21.8295C28.01 19.4077 23.5091 19.4077 21.1106 21.8295C19.9212 23.0305 19.1853 24.6904 19.1853 26.5232C19.1853 28.3569 19.9212 30.0164 21.1106 31.2178C21.569 31.6801 22.094 32.0751 22.6711 32.3851C24.5877 33.4167 26.9321 33.4167 28.8488 32.3851C29.4252 32.0751 29.9508 31.68 30.4087 31.2178C31.5986 30.0163 32.3345 28.3569 32.3345 26.5232C32.3346 24.6906 31.5986 23.0306 30.4087 21.8295H30.4085ZM28.4722 26.5149C28.4722 27.5945 27.8532 28.529 26.9539 28.9748C26.2097 29.3432 25.3114 29.3432 24.5662 28.9748C23.667 28.529 23.0485 27.5944 23.0485 26.5149C23.0485 25.3707 23.744 24.3904 24.7313 23.9811C25.3848 23.7102 26.136 23.7102 26.7894 23.9811C27.7766 24.3903 28.4722 25.3707 28.4722 26.5149ZM30.0292 46.7109C33.9967 45.8657 37.5432 43.8659 40.3061 41.076C43.1925 38.1617 45.2244 34.3855 45.9926 30.163C46.2691 29.0177 45.7811 28.6669 44.9262 28.6944C43.2019 28.6575 41.4769 28.6646 39.833 28.9775C33.9761 30.0924 31.8814 32.9462 30.8449 39.516C30.5315 41.5025 30.3132 43.7705 30.1335 45.6375L30.1335 45.6376C30.0973 46.0135 30.0627 46.3731 30.0292 46.7109ZM21.3885 45.6661C21.4237 46.0316 21.4573 46.3816 21.4899 46.7109C17.5222 45.8656 13.9763 43.8659 11.2129 41.076C8.32706 38.1616 6.29451 34.3854 5.52687 30.163C5.24991 29.0176 5.7383 28.6669 6.59281 28.6944C8.31717 28.6575 10.0426 28.6646 11.686 28.9775C17.5431 30.0925 19.6382 32.9463 20.6747 39.516C20.9892 41.5127 21.2085 43.7936 21.3885 45.6661Z" fill="url(#paint0_linear_221_184493)" fill-opacity="0.3"/>
<path fill-rule="evenodd" clip-rule="evenodd" d="M0 26.3367C0 33.5194 2.88309 40.0225 7.54463 44.7293C10.0027 47.2107 12.9547 49.1929 16.2394 50.513C19.2805 51.7343 22.5192 52.3467 25.7603 52.3467C29.0002 52.3467 32.24 51.7344 35.2806 50.513C38.5648 49.1928 41.5173 47.2107 43.9748 44.7293C48.6363 40.0225 51.52 33.5194 51.52 26.3367C51.52 19.155 48.6363 12.6519 43.9748 7.94512C39.2761 3.2008 32.5177 0.828613 25.7603 0.828613C19.0018 0.828613 12.2439 3.2008 7.54463 7.94512C2.88309 12.652 0 19.155 0 26.3367ZM11.2137 11.6998C14.9661 7.90986 20.3635 6.01537 25.7609 6.01534C31.158 6.01534 36.5548 7.90976 40.3072 11.6998C42.5418 13.9551 44.2646 16.7277 45.2846 19.8242C45.5671 20.8641 45.1906 21.355 44.1581 21.2988C42.3433 21.2284 39.4045 21.1657 36.8377 21.1108L36.8374 21.1108C34.6162 21.0634 32.6736 21.0219 31.9786 20.9866C33.2647 22.4606 34.0455 24.396 34.0455 26.5149C34.0455 28.8248 33.1183 30.9166 31.619 32.4304C31.0837 32.9711 30.4755 33.4377 29.8106 33.814C28.5578 34.5246 27.1597 34.8799 25.7611 34.8804C24.3619 34.8798 22.9638 34.5246 21.7109 33.814C21.046 33.4377 20.4374 32.9711 19.9025 32.4304C18.4032 30.9166 17.476 28.8247 17.476 26.5149C17.476 24.3959 18.2562 22.4607 19.5434 20.9866C18.8482 21.0219 16.9056 21.0634 14.6844 21.1108C12.1172 21.1656 9.17811 21.2284 7.36291 21.2988C6.33042 21.3551 5.95447 20.8641 6.23635 19.8242C7.25699 16.7276 8.9796 13.955 11.2137 11.6998ZM30.4085 21.8295C28.01 19.4077 23.5091 19.4077 21.1106 21.8295C19.9212 23.0305 19.1853 24.6904 19.1853 26.5232C19.1853 28.3569 19.9212 30.0164 21.1106 31.2178C21.569 31.6801 22.094 32.0751 22.6711 32.3851C24.5877 33.4167 26.9321 33.4167 28.8488 32.3851C29.4252 32.0751 29.9508 31.68 30.4087 31.2178C31.5986 30.0163 32.3345 28.3569 32.3345 26.5232C32.3346 24.6906 31.5986 23.0306 30.4087 21.8295H30.4085ZM28.4722 26.5149C28.4722 27.5945 27.8532 28.529 26.9539 28.9748C26.2097 29.3432 25.3114 29.3432 24.5662 28.9748C23.667 28.529 23.0485 27.5944 23.0485 26.5149C23.0485 25.3707 23.744 24.3904 24.7313 23.9811C25.3848 23.7102 26.136 23.7102 26.7894 23.9811C27.7766 24.3903 28.4722 25.3707 28.4722 26.5149ZM30.0292 46.7109C33.9967 45.8657 37.5432 43.8659 40.3061 41.076C43.1925 38.1617 45.2244 34.3855 45.9926 30.163C46.2691 29.0177 45.7811 28.6669 44.9262 28.6944C43.2019 28.6575 41.4769 28.6646 39.833 28.9775C33.9761 30.0924 31.8814 32.9462 30.8449 39.516C30.5315 41.5025 30.3132 43.7705 30.1335 45.6375L30.1335 45.6376C30.0973 46.0135 30.0627 46.3731 30.0292 46.7109ZM21.3885 45.6661C21.4237 46.0316 21.4573 46.3816 21.4899 46.7109C17.5222 45.8656 13.9763 43.8659 11.2129 41.076C8.32706 38.1616 6.29451 34.3854 5.52687 30.163C5.24991 29.0176 5.7383 28.6669 6.59281 28.6944C8.31717 28.6575 10.0426 28.6646 11.686 28.9775C17.5431 30.0925 19.6382 32.9463 20.6747 39.516C20.9892 41.5127 21.2085 43.7936 21.3885 45.6661Z" fill="url(#paint1_radial_221_184493)"/>
<circle cx="25.7634" cy="3.59191" r="2.76342" fill="white"/>
<defs>
<linearGradient id="paint0_linear_221_184493" x1="25.76" y1="0.828613" x2="25.76" y2="52.3467" gradientUnits="userSpaceOnUse">
<stop stop-color="#A3C0D5"/>
<stop offset="1" stop-color="#A3C0D5" stop-opacity="0"/>
</linearGradient>
<radialGradient id="paint1_radial_221_184493" cx="0" cy="0" r="1" gradientUnits="userSpaceOnUse" gradientTransform="translate(25.8096 26.8304) rotate(90.1115) scale(25.5164 25.5173)">
<stop offset="0.313039" stop-color="#4294FF"/>
<stop offset="1" stop-color="#4294FF" stop-opacity="0.3"/>
</radialGradient>
</defs>
</svg>
