<svg width="21" height="10" viewBox="0 0 21 10" fill="none" xmlns="http://www.w3.org/2000/svg">
<g opacity="0.495794">
<path fill-rule="evenodd" clip-rule="evenodd" d="M4.23446 1.38921L0.826117 0.00012207L0.579681 0.5774L3.98794 1.96658L4.23446 1.38921ZM6.37939 8.9709L6.25647 8.78389C5.33887 7.3879 4.89095 6.02425 4.92506 4.73089C4.9569 3.5247 5.40902 2.34084 6.26907 1.21206L6.43779 0.99057L6.68372 1.12676C8.85627 2.32992 10.0016 4.09984 9.74765 5.86131C9.53407 7.34209 8.32819 8.5138 6.60062 8.9191L6.37939 8.9709ZM6.61577 1.81339C5.2 3.82204 5.21865 5.93354 6.67198 8.25349C8.03766 7.86535 8.94409 6.95084 9.1139 5.77387C9.32042 4.3416 8.39047 2.87608 6.61577 1.81339ZM0.419159 4.55554H4.25366V5.18109H0.419159V4.55554ZM4.37141 8.07304L4.13724 7.491L0.160156 9.01785L0.394241 9.59996L4.37141 8.07304Z" fill="#A5A8B6"/>
<path fill-rule="evenodd" clip-rule="evenodd" d="M20.1385 0.577278L19.892 0L16.4838 1.38909L16.7302 1.96645L20.1385 0.577278ZM14.3387 8.97094L14.1174 8.91906C12.3898 8.51369 11.184 7.34206 10.9704 5.86127C10.7164 4.0998 11.8617 2.32987 14.0343 1.12672L14.2804 0.990448L14.4492 1.21227C15.3082 2.34145 15.76 3.52523 15.7921 4.73084C15.8265 6.02471 15.3789 7.38835 14.4616 8.78394L14.3387 8.97094ZM14.1023 1.8136C12.3278 2.87621 11.3978 4.34173 11.6043 5.774C11.7741 6.95097 12.6806 7.86556 14.0463 8.25362C15.4985 5.93515 15.5171 3.82389 14.1023 1.8136ZM16.4645 4.5556H20.2991V5.18115H16.4645V4.5556ZM20.5601 9.01714L16.5825 7.49078L16.3484 8.07291L20.326 9.59934L20.5601 9.01714Z" fill="#A5A8B6"/>
</g>
</svg>
